<svg width="1665" height="1665" viewBox="0 0 1665 1665" fill="none" xmlns="http://www.w3.org/2000/svg">
<rect width="1665" height="1665" fill="white"/>
<rect width="1665" height="1665" fill="#1A4789" fill-opacity="0.16"/>
<path d="M1342.65 471.412C1334.59 509.838 1367.91 549.284 1417.13 559.6Z" fill="#228B22"/>
<path d="M1417.13 559.6C1425.19 521.173 1391.87 481.728 1342.65 471.412Z" fill="#228B22"/>
<path d="M1424.19 383.476C1452.86 428.941 1449.98 482.171 1417.75 502.486Z" fill="#228B22"/>
<path d="M1417.75 502.486C1389.09 457.02 1391.97 403.79 1424.19 383.476Z" fill="#228B22"/>
<path d="M1429.19 559.6C1429.19 470.979 1506.94 399.268 1603.03 399.268Z" fill="#228B22"/>
<path d="M1603.03 399.268C1603.03 487.888 1525.28 559.6 1429.19 559.6Z" fill="#228B22"/>
<path d="M508.837 959.016C491.373 967.898 454.751 976.78 408.551 976.78C301.5 976.78 221.499 910.178 221.499 786.966C221.499 669.304 302.067 590.494 419.819 590.494C466.581 590.494 497.007 600.484 509.966 607.144L497.569 646.551C479.541 637.669 453.06 631.011 421.51 631.011C332.49 631.011 273.33 687.066 273.33 785.301C273.33 877.433 326.857 935.708 418.692 935.708C449.117 935.708 479.541 929.603 499.26 920.17L508.837 959.016Z" fill="black"/>
<path d="M570.803 970.673V596.6H624.89L746.024 785.858C773.632 829.703 796.167 868.553 813.632 907.403L815.323 906.848C810.815 856.898 809.69 811.386 809.69 753.666V596.6H855.888V970.673H806.31L685.74 780.861C659.261 739.236 633.905 696.5 615.314 655.985L613.623 656.54C616.439 703.716 617.003 748.671 617.003 810.831V970.671H570.803V970.673Z" fill="black"/>
<path d="M1261.54 806.391C1258.72 754.221 1255.34 690.951 1255.34 644.885H1254.21C1240.69 688.175 1225.48 735.35 1206.32 786.966L1139.27 968.455H1102.09L1040.11 790.296C1022.08 737.016 1007.43 689.285 996.731 644.885H995.606C994.481 691.505 991.662 753.666 988.28 810.276L978.14 970.671H931.377L957.858 596.598H1020.4L1085.19 777.531C1100.96 823.595 1113.36 864.666 1123.5 903.518H1124.63C1134.76 865.778 1148.29 824.706 1165.19 777.531L1232.8 596.598H1295.34L1319 970.671H1270.55L1261.54 806.391Z" fill="black"/>
<path d="M1443.5 596.6V970.673H1393.92V596.6H1443.5Z" fill="#F8C134"/>
<path d="M314.648 1158.33H296.829C291.712 1120.04 279.966 1100.89 261.585 1100.89H238.848V1158.33H221.312V1028.73C234.889 1026.33 247.051 1025.13 257.8 1025.13C273.822 1025.13 286.55 1028.45 295.982 1035.08C305.409 1041.72 310.125 1050.75 310.125 1062.17C310.125 1077.28 302.769 1088.15 288.064 1094.79C295.036 1099.41 300.459 1106.16 304.325 1115.04C308.186 1123.92 311.629 1138.36 314.648 1158.33ZM292.587 1063.15C292.587 1047.8 280.895 1040.12 257.517 1040.12C249.972 1040.12 243.751 1040.39 238.848 1040.95V1086.46H260.626C281.933 1086.46 292.587 1078.69 292.587 1063.15Z" fill="#808080"/>
<path d="M446.729 1158.33H427.213L409.394 1114.21H355.374L337.838 1158.33H318.605L375.171 1024.3H390.447L446.729 1158.33ZM402.607 1099.23L382.808 1044.28L361.879 1099.23H402.607Z" fill="#808080"/>
<path d="M600.584 1158.33H583.333L575.979 1055.93L533.553 1158.33H521.674L479.248 1055.93L471.894 1158.33H454.643L464.258 1026.24H482.926L527.611 1136.13L572.298 1026.24H590.966L600.584 1158.33Z" fill="#808080"/>
<path d="M736.624 1158.33H717.109L699.289 1114.21H645.269L627.733 1158.33H608.502L665.068 1024.3H680.34L736.624 1158.33ZM692.502 1099.23L672.705 1044.28L651.774 1099.23H692.502Z" fill="#808080"/>
<path d="M793.471 1158.33H775.935V1041.23H726.157V1026.24H842.683V1041.23H793.469V1158.33H793.471Z" fill="#808080"/>
<path d="M963.452 1158.33H945.914V1095.62H875.775V1158.33H858.239V1026.24H875.775V1080.63H945.914V1026.24H963.452V1158.33Z" fill="#808080"/>
<path d="M1009.26 1158.33H991.728V1026.24H1009.26V1158.33Z" fill="#808080"/>
<path d="M1127.2 1119.95C1127.2 1146.65 1107.21 1160 1067.24 1160C1058.76 1160 1048.95 1158.79 1037.83 1156.39V1028.74C1049.48 1025.97 1060.19 1024.58 1069.96 1024.58C1104.35 1024.58 1121.55 1036.21 1121.55 1059.45C1121.55 1071.27 1115.98 1080.59 1104.85 1087.41C1119.75 1094.27 1127.2 1105.12 1127.2 1119.95ZM1104.01 1059.54C1104.01 1046.22 1092.63 1039.56 1069.87 1039.56C1065.89 1039.56 1061.05 1039.84 1055.36 1040.39V1080.91H1075.56C1083.91 1080.91 1090.73 1079.02 1096.04 1075.22C1101.35 1071.43 1104.01 1066.2 1104.01 1059.54ZM1109.67 1120.32C1109.67 1111.44 1105.31 1104.87 1096.59 1100.62C1089.95 1097.47 1081.71 1095.9 1071.85 1095.9H1055.36V1144.18C1058.59 1144.74 1063.32 1145.02 1069.58 1145.02C1081.9 1145.02 1091.66 1142.89 1098.86 1138.63C1106.06 1134.38 1109.67 1128.27 1109.67 1120.32Z" fill="#808080"/>
<path d="M1274.84 1092.57C1274.84 1111.99 1268.71 1128.27 1256.45 1141.4C1244.2 1154.54 1228.36 1161.11 1208.94 1161.11C1189.52 1161.11 1173.68 1154.54 1161.42 1141.4C1149.16 1128.27 1143.04 1111.99 1143.04 1092.57C1143.04 1073.14 1149.16 1056.82 1161.42 1043.59C1173.68 1030.36 1189.52 1023.74 1208.94 1023.74C1228.36 1023.74 1244.2 1030.36 1256.45 1043.59C1268.71 1056.82 1274.84 1073.14 1274.84 1092.57ZM1257.3 1092.43C1257.3 1077.22 1252.87 1064.46 1244.01 1054.17C1235.15 1043.88 1223.46 1038.73 1208.94 1038.73C1194.42 1038.73 1182.73 1043.88 1173.87 1054.17C1165 1064.46 1160.57 1077.22 1160.57 1092.43C1160.57 1107.64 1165 1120.39 1173.87 1130.68C1182.73 1140.98 1194.42 1146.12 1208.94 1146.12C1223.46 1146.12 1235.15 1140.98 1244.01 1130.68C1252.87 1120.39 1257.3 1107.64 1257.3 1092.43Z" fill="#808080"/>
<path d="M1404.66 1089.51C1404.66 1109.49 1399.75 1125.5 1389.95 1137.52C1377.88 1152.13 1359.31 1159.44 1334.23 1159.44C1326.5 1159.44 1313.87 1158.52 1296.34 1156.67V1028.46C1317.83 1026.06 1332.35 1024.85 1339.89 1024.85C1362.89 1024.85 1379.95 1031.61 1391.08 1045.11C1400.13 1056.03 1404.66 1070.83 1404.66 1089.51ZM1386.56 1089.51C1386.56 1056.4 1370.65 1039.84 1338.85 1039.84C1333.55 1039.84 1325.23 1040.39 1313.87 1041.5V1143.62C1320.11 1144.18 1327.97 1144.46 1337.44 1144.46C1355.79 1144.46 1369.14 1138.07 1377.47 1125.31C1383.53 1115.88 1386.56 1103.94 1386.56 1089.51Z" fill="#808080"/>
<path d="M1443.69 1158.33H1426.15V1026.24H1443.69V1158.33Z" fill="#808080"/>
<path d="M239.448 1262.54H232.011V1206.34H210.896V1199.14H260.319V1206.34H239.448V1262.54Z" fill="#808080"/>
<path d="M305.663 1262.54H298.224V1237.1C298.224 1233.11 297.234 1229.8 295.255 1227.18C293.277 1224.56 290.591 1223.25 287.198 1223.25C283.807 1223.25 280.817 1224.58 278.233 1227.25C275.647 1229.91 274.353 1232.84 274.353 1236.04V1262.54H266.917V1195.41H274.353V1222.18C278.046 1218.1 282.66 1216.06 288.201 1216.06C293.658 1216.06 297.934 1217.95 301.027 1221.72C304.116 1225.49 305.663 1230.58 305.663 1236.97V1262.54Z" fill="#808080"/>
<path d="M353.765 1260.15C347.926 1262.54 342.369 1263.74 337.089 1263.74C330.61 1263.74 325.273 1261.59 321.075 1257.28C316.878 1252.98 314.778 1247.4 314.778 1240.57C314.778 1233.02 316.857 1226.89 321.016 1222.18C325.095 1217.75 330.292 1215.52 336.612 1215.52C348.923 1215.52 355.204 1224.09 355.445 1241.23H322.215C322.533 1246.03 324.074 1249.74 326.832 1252.35C329.593 1254.97 333.171 1256.28 337.57 1256.28C342.049 1256.28 347.168 1255.13 352.925 1252.82L353.765 1260.15ZM348.006 1234.04C347.604 1230.61 346.326 1227.83 344.167 1225.68C342.006 1223.53 339.248 1222.45 335.888 1222.45C332.69 1222.45 329.831 1223.53 327.312 1225.68C324.794 1227.83 323.253 1230.61 322.694 1234.04H348.006Z" fill="#808080"/>
<path d="M399.104 1262.54H391.666V1199.14H399.104V1262.54Z" fill="#808080"/>
<path d="M449.968 1262.54H442.529V1236.93C442.529 1227.72 438.69 1223.12 431.017 1223.12C428.19 1223.12 425.422 1224.51 422.716 1227.3C420.011 1230.09 418.659 1232.85 418.659 1235.59V1262.54H411.22V1229.24C411.22 1223.74 410.9 1219.7 410.258 1217.12H417.232C417.782 1218.67 418.057 1220.53 418.057 1222.71C421.911 1218.19 426.566 1215.92 432.023 1215.92C437.482 1215.92 441.837 1217.79 445.09 1221.52C448.34 1225.25 449.968 1230.35 449.968 1236.83V1262.54Z" fill="#808080"/>
<path d="M494.59 1259.67C490.751 1262.38 486.073 1263.74 480.556 1263.74C474.077 1263.74 468.877 1261.5 464.96 1257.01C461.04 1252.53 459.083 1246.74 459.083 1239.63C459.083 1232.44 461.04 1226.63 464.96 1222.18C468.877 1217.74 474.077 1215.52 480.556 1215.52C485.991 1215.52 490.67 1216.88 494.59 1219.59L491.952 1226.58C488.191 1224 484.313 1222.71 480.314 1222.71C476.236 1222.71 472.954 1224.28 470.479 1227.4C468 1230.53 466.76 1234.61 466.76 1239.63C466.76 1244.74 468 1248.84 470.479 1251.92C472.956 1255.01 476.236 1256.54 480.314 1256.54C484.313 1256.54 488.191 1255.26 491.952 1252.68L494.59 1259.67Z" fill="#808080"/>
<path d="M544.248 1262.01L537.014 1263.61C536.228 1261.48 535.52 1258.9 534.894 1255.88C530.077 1261.12 525.298 1263.74 520.564 1263.74C509.244 1263.74 503.585 1256.5 503.585 1242.03V1217.25H511.024V1241.23C511.024 1251.26 514.496 1256.28 521.445 1256.28C524.355 1256.28 527.222 1255.06 530.049 1252.62C532.88 1250.18 534.293 1247.32 534.293 1244.03V1217.25H541.732V1250.42C541.73 1253.44 542.57 1257.3 544.248 1262.01Z" fill="#808080"/>
<path d="M596.79 1238.97C596.79 1246.16 594.764 1252.09 590.713 1256.75C586.661 1261.41 581.666 1263.74 575.728 1263.74C569.789 1263.74 564.935 1261.74 561.165 1257.72C561.165 1259.98 561.042 1261.59 560.804 1262.54H553.728C554.046 1258.19 554.207 1254.15 554.207 1250.42V1195.41H561.646L561.764 1221.78C565.521 1217.61 570.402 1215.52 576.399 1215.52C582.236 1215.52 587.092 1217.77 590.974 1222.25C594.851 1226.74 596.79 1232.31 596.79 1238.97ZM589.353 1239.03C589.353 1234.22 588.106 1230.26 585.616 1227.13C583.128 1224.01 579.794 1222.45 575.619 1222.45C572.244 1222.45 569.071 1223.7 566.098 1226.19C563.126 1228.69 561.642 1231.63 561.642 1235.02V1245.45C561.642 1248.84 562.887 1251.54 565.377 1253.54C567.867 1255.55 571.119 1256.55 575.136 1256.55C579.633 1256.55 583.128 1254.99 585.616 1251.87C588.108 1248.75 589.353 1244.47 589.353 1239.03Z" fill="#808080"/>
<path d="M639.495 1262.15L632.504 1263.74L631.324 1257.99C627.23 1261.83 622.614 1263.74 617.478 1263.74C613.382 1263.74 609.971 1262.53 607.242 1260.1C604.514 1257.67 603.108 1254.37 603.032 1250.21C603.032 1238.99 612.149 1233.24 630.38 1232.97C629.579 1226.23 626.301 1222.85 620.544 1222.85C616.226 1222.85 611.468 1223.96 606.269 1226.18L605.429 1218.59C610.865 1216.81 616.026 1215.92 620.903 1215.92C632.18 1215.92 637.817 1222.41 637.817 1235.37V1250.42C637.815 1253.8 638.372 1257.7 639.495 1262.15ZM630.378 1248.22V1240.17C617.262 1240.44 610.706 1243.53 610.706 1249.43C610.706 1254.18 613.077 1256.55 617.826 1256.55C620.481 1256.55 623.136 1255.83 625.792 1254.4C628.848 1252.7 630.378 1250.64 630.378 1248.22Z" fill="#808080"/>
<path d="M672.841 1261.88C670.201 1263.12 667.563 1263.74 664.923 1263.74C661.259 1263.74 658.382 1262.37 656.297 1259.61C654.212 1256.86 653.17 1253.09 653.17 1248.29V1224.18H645.014V1217.26H653.17V1204.87L660.607 1201.28V1217.26H673.683V1224.18H660.607V1248.16C660.607 1253.58 662.169 1256.29 665.286 1256.29C667.284 1256.29 669.522 1255.8 672.003 1254.82L672.841 1261.88Z" fill="#808080"/>
<path d="M721.184 1239.64C721.184 1246.38 719.143 1252.07 715.064 1256.68C710.986 1261.3 705.829 1263.61 699.59 1263.61C693.354 1263.61 688.194 1261.3 684.119 1256.68C680.04 1252.07 677.999 1246.39 677.999 1239.64C677.999 1232.88 680.04 1227.18 684.119 1222.52C688.194 1217.86 693.354 1215.52 699.59 1215.52C705.829 1215.52 710.986 1217.86 715.064 1222.52C719.145 1227.18 721.184 1232.88 721.184 1239.64ZM713.748 1239.57C713.748 1234.79 712.428 1230.79 709.788 1227.56C707.149 1224.33 703.747 1222.72 699.59 1222.72C695.433 1222.72 692.033 1224.33 689.395 1227.56C686.755 1230.79 685.434 1234.79 685.434 1239.57C685.434 1244.34 686.755 1248.35 689.395 1251.57C692.033 1254.8 695.433 1256.42 699.59 1256.42C703.747 1256.42 707.149 1254.8 709.788 1251.57C712.428 1248.35 713.748 1244.34 713.748 1239.57Z" fill="#808080"/>
<path d="M737.736 1262.54H730.297V1232.58C730.297 1225.47 729.816 1220.14 728.857 1216.59H735.493C736.359 1218.16 736.79 1220.25 736.79 1222.86C737.501 1221.2 738.994 1219.63 741.275 1218.15C743.556 1216.67 745.811 1215.93 748.053 1215.93C749.65 1215.93 750.932 1216.06 751.89 1216.32V1223.38C751.248 1223.21 750.33 1223.12 749.132 1223.12C741.534 1223.12 737.736 1228.2 737.736 1238.35V1262.54Z" fill="#808080"/>
<path d="M827.22 1239.64C827.22 1246.38 825.182 1252.07 821.104 1256.68C817.025 1261.3 811.867 1263.61 805.629 1263.61C799.391 1263.61 794.233 1261.3 790.156 1256.68C786.076 1252.07 784.038 1246.39 784.038 1239.64C784.038 1232.88 786.076 1227.18 790.156 1222.52C794.233 1217.86 799.391 1215.52 805.629 1215.52C811.867 1215.52 817.025 1217.86 821.104 1222.52C825.183 1227.18 827.22 1232.88 827.22 1239.64ZM819.785 1239.57C819.785 1234.79 818.466 1230.79 815.826 1227.56C813.186 1224.33 809.788 1222.72 805.629 1222.72C801.47 1222.72 798.074 1224.33 795.432 1227.56C792.792 1230.79 791.475 1234.79 791.475 1239.57C791.475 1244.34 792.792 1248.35 795.432 1251.57C798.074 1254.8 801.47 1256.42 805.629 1256.42C809.788 1256.42 813.186 1254.8 815.826 1251.57C818.466 1248.35 819.785 1244.34 819.785 1239.57Z" fill="#808080"/>
<path d="M846.653 1262.54H839.216V1224.18H832.378V1217.26H839.339C839.339 1202.07 844.612 1194.48 855.17 1194.48C858.53 1194.48 861.371 1195.46 863.689 1197.41L861.525 1203.67C858.727 1202.34 856.528 1201.67 854.931 1201.67C849.411 1201.67 846.653 1206.87 846.653 1217.26H858.291V1224.18H846.653V1262.54Z" fill="#808080"/>
<path d="M937.105 1259.22C931.263 1262.06 924.307 1263.48 916.231 1263.48C908.633 1263.48 902.534 1260.48 897.937 1254.49C893.338 1248.49 891.038 1240.65 891.038 1230.98C891.038 1221.38 893.275 1213.66 897.755 1207.8C902.713 1201.41 909.629 1198.21 918.511 1198.21C925.304 1198.21 931.499 1199.5 937.105 1202.07L934.702 1208.73C929.903 1206.51 924.584 1205.4 918.749 1205.4C911.392 1205.4 905.992 1208.42 902.554 1214.46C899.992 1218.9 898.714 1224.5 898.714 1231.24C898.714 1237.46 900.116 1242.88 902.913 1247.5C906.436 1253.36 911.394 1256.29 917.789 1256.29C924.431 1256.29 930.186 1254.95 935.064 1252.29L937.105 1259.22Z" fill="#F8C134"/>
<path d="M984.485 1262.54H977.046V1237.1C977.046 1233.11 976.056 1229.8 974.079 1227.18C972.096 1224.56 969.411 1223.25 966.022 1223.25C962.629 1223.25 959.638 1224.58 957.053 1227.25C954.467 1229.91 953.176 1232.84 953.176 1236.04V1262.54H945.737V1195.41H953.176V1222.18C956.868 1218.1 961.482 1216.06 967.021 1216.06C972.477 1216.06 976.756 1217.95 979.845 1221.72C982.938 1225.49 984.485 1230.58 984.485 1236.97V1262.54Z" fill="#F8C134"/>
<path d="M1030.07 1262.15L1023.07 1263.74L1021.89 1257.99C1017.8 1261.83 1013.19 1263.74 1008.05 1263.74C1003.95 1263.74 1000.54 1262.53 997.813 1260.1C995.084 1257.67 993.68 1254.37 993.6 1250.21C993.6 1238.99 1002.72 1233.24 1020.95 1232.97C1020.15 1226.23 1016.87 1222.85 1011.11 1222.85C1006.8 1222.85 1002.03 1223.96 996.838 1226.18L996 1218.59C1001.44 1216.81 1006.59 1215.92 1011.47 1215.92C1022.75 1215.92 1028.39 1222.41 1028.39 1235.37V1250.42C1028.39 1253.8 1028.95 1257.7 1030.07 1262.15ZM1020.95 1248.22V1240.17C1007.83 1240.44 1001.27 1243.53 1001.27 1249.43C1001.27 1254.18 1003.65 1256.55 1008.4 1256.55C1011.05 1256.55 1013.71 1255.83 1016.36 1254.4C1019.42 1252.7 1020.95 1250.64 1020.95 1248.22Z" fill="#F8C134"/>
<path d="M1079.25 1262.54H1071.81V1236.93C1071.81 1227.72 1067.97 1223.12 1060.3 1223.12C1057.47 1223.12 1054.7 1224.51 1052 1227.3C1049.29 1230.09 1047.94 1232.85 1047.94 1235.59V1262.54H1040.5V1229.24C1040.5 1223.74 1040.18 1219.7 1039.54 1217.12H1046.51C1047.06 1218.67 1047.34 1220.53 1047.34 1222.71C1051.19 1218.19 1055.85 1215.92 1061.31 1215.92C1066.77 1215.92 1071.12 1217.79 1074.37 1221.52C1077.63 1225.24 1079.25 1230.35 1079.25 1236.83V1262.54H1079.25Z" fill="#F8C134"/>
<path d="M1120.27 1268.54C1120.27 1272.71 1118.91 1276.09 1116.19 1278.66C1113.48 1281.24 1109.52 1282.53 1104.32 1282.53C1100 1282.53 1095.56 1280.99 1091.01 1277.91L1093.64 1271.2C1097.88 1273.95 1101.6 1275.33 1104.8 1275.33C1107.28 1275.33 1109.34 1274.69 1110.98 1273.42C1112.61 1272.15 1113.44 1270.63 1113.44 1268.87C1113.44 1266.23 1111.2 1263.9 1106.72 1261.88C1103.36 1260.37 1100.12 1258.68 1097 1256.82C1093.89 1254.95 1092.32 1252.51 1092.32 1249.49C1092.32 1248.07 1092.68 1246.25 1093.4 1244.03C1090.52 1240.57 1089.09 1236.88 1089.09 1232.97C1089.09 1228.09 1090.56 1224.1 1093.52 1220.99C1096.48 1217.88 1100.04 1216.32 1104.2 1216.32H1121.47V1222.05H1115.48C1116.92 1222.68 1118.07 1224.14 1118.95 1226.45C1119.68 1228.31 1120.03 1230.18 1120.03 1232.04C1120.03 1237.28 1118.73 1241.43 1116.14 1244.5C1113.54 1247.56 1109.8 1249.09 1104.92 1249.09C1103.16 1249.09 1101.44 1248.78 1099.76 1248.16C1099.36 1248.6 1099.16 1249.18 1099.16 1249.89C1099.16 1251.22 1102.04 1252.78 1107.8 1254.55C1116.11 1257.13 1120.27 1261.79 1120.27 1268.54ZM1113.67 1232.71C1113.67 1230.04 1112.81 1227.78 1111.09 1225.92C1109.37 1224.05 1107.32 1223.12 1104.91 1223.12C1102.52 1223.12 1100.46 1224.05 1098.74 1225.92C1097.02 1227.78 1096.16 1230.04 1096.16 1232.71C1096.16 1235.37 1097.02 1237.61 1098.74 1239.43C1100.46 1241.25 1102.52 1242.17 1104.91 1242.17C1107.8 1242.17 1109.97 1241.26 1111.45 1239.43C1112.93 1237.61 1113.67 1235.37 1113.67 1232.71Z" fill="#F8C134"/>
<path d="M1167.17 1260.15C1161.33 1262.54 1155.77 1263.74 1150.5 1263.74C1144.02 1263.74 1138.68 1261.59 1134.48 1257.28C1130.29 1252.98 1128.19 1247.4 1128.19 1240.57C1128.19 1233.02 1130.26 1226.89 1134.42 1222.18C1138.5 1217.75 1143.7 1215.52 1150.02 1215.52C1162.33 1215.52 1168.61 1224.09 1168.85 1241.23H1135.62C1135.94 1246.03 1137.48 1249.74 1140.24 1252.35C1143 1254.97 1146.58 1256.28 1150.98 1256.28C1155.46 1256.28 1160.57 1255.13 1166.34 1252.82L1167.17 1260.15ZM1161.41 1234.04C1161.02 1230.61 1159.73 1227.83 1157.58 1225.68C1155.42 1223.53 1152.66 1222.45 1149.3 1222.45C1146.1 1222.45 1143.24 1223.53 1140.72 1225.68C1138.21 1227.83 1136.66 1230.61 1136.1 1234.04H1161.41Z" fill="#F8C134"/>
<path d="M1253.3 1262.54H1245.02L1237.47 1241.37H1214.55L1207.12 1262.54H1198.96L1222.95 1198.21H1229.43L1253.3 1262.54ZM1234.59 1234.17L1226.19 1207.8L1217.31 1234.17H1234.59Z" fill="#F8C134"/>
<path d="M1288.21 1268.54C1288.21 1272.71 1286.85 1276.09 1284.13 1278.66C1281.41 1281.24 1277.45 1282.53 1272.25 1282.53C1267.94 1282.53 1263.5 1280.99 1258.94 1277.91L1261.57 1271.2C1265.81 1273.95 1269.53 1275.33 1272.74 1275.33C1275.21 1275.33 1277.27 1274.69 1278.91 1273.42C1280.55 1272.15 1281.37 1270.63 1281.37 1268.87C1281.37 1266.23 1279.13 1263.9 1274.65 1261.88C1271.29 1260.37 1268.05 1258.68 1264.93 1256.82C1261.82 1254.95 1260.26 1252.51 1260.26 1249.49C1260.26 1248.07 1260.62 1246.25 1261.34 1244.03C1258.46 1240.57 1257.02 1236.88 1257.02 1232.97C1257.02 1228.09 1258.5 1224.1 1261.46 1220.99C1264.41 1217.88 1267.97 1216.32 1272.13 1216.32H1289.41V1222.05H1283.41C1284.85 1222.68 1286.01 1224.14 1286.89 1226.45C1287.61 1228.31 1287.97 1230.18 1287.97 1232.04C1287.97 1237.28 1286.67 1241.43 1284.07 1244.5C1281.47 1247.56 1277.73 1249.09 1272.85 1249.09C1271.09 1249.09 1269.38 1248.78 1267.7 1248.16C1267.3 1248.6 1267.1 1249.18 1267.1 1249.89C1267.1 1251.22 1269.98 1252.78 1275.73 1254.55C1284.05 1257.13 1288.21 1261.79 1288.21 1268.54ZM1281.61 1232.71C1281.61 1230.04 1280.75 1227.78 1279.03 1225.92C1277.31 1224.05 1275.25 1223.12 1272.85 1223.12C1270.45 1223.12 1268.39 1224.05 1266.67 1225.92C1264.95 1227.78 1264.09 1230.04 1264.09 1232.71C1264.09 1235.37 1264.95 1237.61 1266.67 1239.43C1268.39 1241.25 1270.45 1242.17 1272.85 1242.17C1275.73 1242.17 1277.91 1241.26 1279.39 1239.43C1280.87 1237.61 1281.61 1235.37 1281.61 1232.71Z" fill="#F8C134"/>
<path d="M1335.11 1260.15C1329.27 1262.54 1323.72 1263.74 1318.44 1263.74C1311.96 1263.74 1306.62 1261.59 1302.42 1257.28C1298.22 1252.98 1296.12 1247.4 1296.12 1240.57C1296.12 1233.02 1298.2 1226.89 1302.36 1222.18C1306.44 1217.75 1311.64 1215.52 1317.95 1215.52C1330.27 1215.52 1336.55 1224.09 1336.79 1241.23H1303.56C1303.88 1246.03 1305.42 1249.74 1308.18 1252.35C1310.94 1254.97 1314.52 1256.28 1318.92 1256.28C1323.4 1256.28 1328.52 1255.13 1334.27 1252.82L1335.11 1260.15ZM1329.35 1234.04C1328.95 1230.61 1327.67 1227.83 1325.51 1225.68C1323.35 1223.53 1320.59 1222.45 1317.24 1222.45C1314.03 1222.45 1311.18 1223.53 1308.66 1225.68C1306.14 1227.83 1304.6 1230.61 1304.04 1234.04H1329.35Z" fill="#F8C134"/>
<path d="M1384.65 1262.54H1377.21V1236.93C1377.21 1227.72 1373.38 1223.12 1365.7 1223.12C1362.87 1223.12 1360.1 1224.51 1357.4 1227.3C1354.69 1230.09 1353.34 1232.85 1353.34 1235.59V1262.54H1345.9V1229.24C1345.9 1223.74 1345.58 1219.7 1344.94 1217.12H1351.92C1352.47 1218.67 1352.74 1220.53 1352.74 1222.71C1356.59 1218.19 1361.25 1215.92 1366.71 1215.92C1372.17 1215.92 1376.52 1217.79 1379.77 1221.52C1383.03 1225.24 1384.65 1230.35 1384.65 1236.83V1262.54H1384.65Z" fill="#F8C134"/>
<path d="M1419.56 1261.88C1416.92 1263.12 1414.28 1263.74 1411.64 1263.74C1407.97 1263.74 1405.09 1262.37 1403.01 1259.61C1400.92 1256.86 1399.88 1253.09 1399.88 1248.29V1224.18H1391.73V1217.26H1399.88V1204.87L1407.32 1201.28V1217.26H1420.4V1224.18H1407.32V1248.16C1407.32 1253.58 1408.88 1256.29 1412 1256.29C1414 1256.29 1416.24 1255.8 1418.72 1254.82L1419.56 1261.88Z" fill="#F8C134"/>
<path d="M1454.1 1249.62C1454.1 1253.8 1452.64 1257.2 1449.72 1259.81C1446.81 1262.43 1442.87 1263.74 1437.91 1263.74C1433.83 1263.74 1429.43 1262.3 1424.71 1259.42L1427.71 1252.82C1430.99 1255.31 1434.51 1256.55 1438.27 1256.55C1443.86 1256.55 1446.67 1254.4 1446.67 1250.1C1446.67 1246.78 1443.95 1244.18 1438.51 1242.3C1430.51 1239.55 1426.51 1235.33 1426.51 1229.65C1426.51 1225.83 1427.85 1222.61 1430.53 1219.99C1433.21 1217.37 1436.83 1216.06 1441.39 1216.06C1446.02 1216.06 1449.95 1217.34 1453.14 1219.92L1450.38 1226.05C1447.58 1223.74 1444.42 1222.59 1440.91 1222.59C1438.83 1222.59 1437.09 1223.18 1435.69 1224.39C1434.29 1225.58 1433.59 1227.11 1433.59 1228.98C1433.59 1231.29 1436.51 1233.56 1442.35 1235.77C1450.18 1238.79 1454.1 1243.41 1454.1 1249.62Z" fill="#F8C134"/>
</svg>
