<?xml version="1.0" encoding="utf-8"?>
<!-- Generator: Adobe Illustrator 16.0.0, SVG Export Plug-In . SVG Version: 6.00 Build 0)  -->
<!DOCTYPE svg PUBLIC "-//W3C//DTD SVG 1.1//EN" "http://www.w3.org/Graphics/SVG/1.1/DTD/svg11.dtd">
<svg version="1.1" id="Layer_1" xmlns="http://www.w3.org/2000/svg" xmlns:xlink="http://www.w3.org/1999/xlink" x="0px" y="0px"
	 width="900px" height="600px" viewBox="0 0 900 600" enable-background="new 0 0 900 600" xml:space="preserve">
<g>
	<g>
		<g>
			<path fill="#228B22" d="M725.755,104.547c-4.354,20.771,13.654,42.093,40.263,47.669"/>
			<path fill="#228B22" d="M766.018,152.216c4.354-20.771-13.654-42.093-40.263-47.669"/>
		</g>
		<g>
			<path fill="#228B22" d="M769.833,57.014c15.494,24.576,13.939,53.349-3.48,64.33"/>
			<g>
				<path fill="#228B22" d="M766.353,121.344c-15.494-24.576-13.938-53.349,3.48-64.33"/>
			</g>
		</g>
		<g>
			<path fill="#228B22" d="M772.533,152.216c0-47.903,42.03-86.666,93.971-86.666"/>
			<path fill="#228B22" d="M866.504,65.55c0,47.903-42.03,86.666-93.971,86.666"/>
		</g>
	</g>
	<g>
		<path d="M275.047,368.117c-9.44,4.801-29.236,9.602-54.209,9.602c-57.865,0-101.109-36.001-101.109-102.602
			c0-63.601,43.55-106.201,107.2-106.201c25.277,0,41.723,5.4,48.728,9l-6.701,21.301c-9.745-4.801-24.059-8.4-41.113-8.4
			c-48.119,0-80.097,30.3-80.097,83.4c0,49.801,28.933,81.301,78.574,81.301c16.446,0,32.891-3.3,43.55-8.399L275.047,368.117z"/>
		<path d="M308.542,374.418V172.216h29.236l65.478,102.302c14.923,23.7,27.104,44.7,36.545,65.7l0.914-0.3
			c-2.437-27-3.045-51.601-3.045-82.801v-84.901h24.972v202.202h-26.799l-65.173-102.601c-14.313-22.5-28.019-45.601-38.068-67.501
			l-0.914,0.3c1.522,25.501,1.827,49.801,1.827,83.401v86.4H308.542z"/>
		<path d="M681.911,285.617c-1.522-28.2-3.351-62.4-3.351-87.301h-0.608c-7.311,23.4-15.533,48.9-25.887,76.801l-36.241,98.102
			h-20.1l-33.501-96.302c-9.745-28.8-17.664-54.601-23.45-78.601h-0.608c-0.608,25.2-2.132,58.801-3.96,89.401l-5.481,86.7h-25.277
			l14.314-202.202h33.804l35.022,97.802c8.527,24.899,15.229,47.1,20.709,68.101h0.611c5.479-20.4,12.79-42.601,21.927-68.101
			l36.545-97.802h33.805l12.791,202.202h-26.191L681.911,285.617z"/>
		<path fill="#F8C134" d="M780.271,172.216v202.202h-26.8V172.216H780.271z"/>
	</g>
	<g>
		<path fill="#808080" d="M170.08,475.855h-9.632c-2.766-20.699-9.115-31.049-19.051-31.049h-12.29v31.049h-9.479v-70.055
			c7.339-1.295,13.913-1.945,19.723-1.945c8.661,0,15.541,1.793,20.639,5.379c5.096,3.586,7.645,8.469,7.645,14.643
			c0,8.168-3.976,14.043-11.925,17.629c3.769,2.5,6.7,6.15,8.79,10.949C166.587,457.256,168.448,465.057,170.08,475.855z
			 M158.155,424.406c0-8.299-6.32-12.451-18.957-12.451c-4.078,0-7.441,0.15-10.091,0.451v24.6h11.772
			C152.396,437.006,158.155,432.807,158.155,424.406z"/>
		<path fill="#808080" d="M241.475,475.855h-10.549l-9.632-23.85h-29.2l-9.479,23.85h-10.396l30.576-72.449h8.257L241.475,475.855z
			 M217.625,443.906l-10.702-29.701l-11.313,29.701H217.625z"/>
		<path fill="#808080" d="M324.64,475.855h-9.325l-3.975-55.35l-22.933,55.35h-6.421l-22.933-55.35l-3.975,55.35h-9.325l5.197-71.4
			h10.091l24.154,59.4l24.155-59.4h10.091L324.64,475.855z"/>
		<path fill="#808080" d="M398.175,475.855h-10.549l-9.632-23.85h-29.2l-9.479,23.85H328.92l30.576-72.449h8.255L398.175,475.855z
			 M374.325,443.906l-10.701-29.701l-11.314,29.701H374.325z"/>
		<path fill="#808080" d="M428.903,475.855h-9.479v-63.299h-26.907v-8.102h62.987v8.102h-26.602V475.855z"/>
		<path fill="#808080" d="M520.785,475.855h-9.48v-33.9h-37.913v33.9h-9.479v-71.4h9.479v29.4h37.913v-29.4h9.48V475.855z"/>
		<path fill="#808080" d="M545.548,475.855h-9.479v-71.4h9.479V475.855z"/>
		<path fill="#808080" d="M609.299,455.109c0,14.432-10.806,21.646-32.412,21.646c-4.586,0-9.885-0.652-15.898-1.949v-69
			c6.296-1.5,12.087-2.25,17.368-2.25c18.591,0,27.885,6.285,27.885,18.852c0,6.385-3.01,11.424-9.027,15.113
			C605.27,441.229,609.299,447.094,609.299,455.109z M596.762,422.455c0-7.199-6.151-10.799-18.453-10.799
			c-2.154,0-4.768,0.15-7.842,0.449v21.9h10.919c4.511,0,8.197-1.023,11.07-3.074C595.326,428.883,596.762,426.057,596.762,422.455z
			 M599.819,455.307c0-4.801-2.356-8.35-7.066-10.65c-3.59-1.699-8.047-2.551-13.374-2.551h-8.912v26.1
			c1.742,0.301,4.303,0.451,7.685,0.451c6.66,0,11.934-1.148,15.827-3.451C597.872,462.906,599.819,459.607,599.819,455.307z"/>
		<path fill="#808080" d="M689.102,440.307c0,10.5-3.313,19.301-9.938,26.398c-6.624,7.102-15.187,10.65-25.683,10.65
			c-10.499,0-19.061-3.549-25.684-10.65c-6.627-7.098-9.938-15.898-9.938-26.398s3.311-19.324,9.938-26.477
			c6.623-7.148,15.185-10.725,25.684-10.725c10.496,0,19.059,3.576,25.683,10.725C685.789,420.982,689.102,429.807,689.102,440.307z
			 M679.624,440.23c0-8.221-2.396-15.115-7.186-20.678c-4.792-5.564-11.11-8.348-18.957-8.348c-7.85,0-14.168,2.783-18.957,8.348
			c-4.792,5.563-7.187,12.457-7.187,20.678c0,8.223,2.395,15.115,7.187,20.68c4.789,5.564,11.107,8.346,18.957,8.346
			c7.847,0,14.165-2.781,18.957-8.346C677.228,455.346,679.624,448.453,679.624,440.23z"/>
		<path fill="#808080" d="M759.274,438.656c0,10.799-2.651,19.451-7.949,25.949c-6.525,7.9-16.563,11.85-30.118,11.85
			c-4.181,0-11.008-0.5-20.485-1.5v-69.299c11.619-1.299,19.466-1.951,23.543-1.951c12.434,0,21.656,3.652,27.672,10.951
			C756.828,420.557,759.274,428.557,759.274,438.656z M749.49,438.656c0-17.9-8.596-26.85-25.785-26.85
			c-2.866,0-7.367,0.299-13.506,0.898v55.201c3.376,0.299,7.624,0.449,12.739,0.449c9.924,0,17.138-3.449,21.641-10.35
			C747.852,452.906,749.49,446.455,749.49,438.656z"/>
		<path fill="#808080" d="M780.371,475.855h-9.478v-71.4h9.478V475.855z"/>
	</g>
	<g>
		<path fill="#808080" d="M129.431,532.186h-4.02v-30.383h-11.413v-3.889h26.715v3.889h-11.282V532.186z"/>
		<path fill="#808080" d="M165.223,532.186h-4.021v-13.752c0-2.16-0.535-3.947-1.605-5.363c-1.069-1.416-2.521-2.125-4.355-2.125
			c-1.833,0-3.449,0.721-4.846,2.16c-1.398,1.441-2.097,3.025-2.097,4.752v14.328h-4.02v-36.287h4.02v14.471
			c1.996-2.207,4.49-3.311,7.485-3.311c2.95,0,5.261,1.02,6.933,3.059c1.67,2.041,2.506,4.789,2.506,8.244V532.186z"/>
		<path fill="#808080" d="M191.224,530.891c-3.156,1.295-6.16,1.943-9.014,1.943c-3.502,0-6.387-1.164-8.656-3.492
			s-3.404-5.34-3.404-9.035c0-4.08,1.124-7.393,3.372-9.938c2.205-2.398,5.014-3.6,8.43-3.6c6.655,0,10.05,4.633,10.18,13.896
			H174.17c0.172,2.592,1.005,4.598,2.496,6.012c1.492,1.416,3.426,2.125,5.804,2.125c2.421,0,5.188-0.623,8.3-1.873L191.224,530.891
			z M188.111,516.777c-0.217-1.85-0.908-3.355-2.075-4.52c-1.168-1.162-2.659-1.744-4.475-1.744c-1.729,0-3.274,0.582-4.636,1.744
			c-1.361,1.164-2.194,2.67-2.496,4.52H188.111z"/>
		<path fill="#808080" d="M215.732,532.186h-4.021v-34.271h4.021V532.186z"/>
		<path fill="#808080" d="M243.226,532.186h-4.021v-13.848c0-4.975-2.075-7.463-6.223-7.463c-1.528,0-3.024,0.752-4.487,2.26
			c-1.462,1.508-2.193,3.002-2.193,4.484v14.566h-4.021v-18c0-2.975-0.173-5.158-0.52-6.551h3.77
			c0.297,0.834,0.446,1.842,0.446,3.02c2.083-2.445,4.599-3.668,7.549-3.668c2.951,0,5.305,1.008,7.063,3.023
			c1.757,2.016,2.637,4.777,2.637,8.279V532.186z"/>
		<path fill="#808080" d="M267.346,530.633c-2.075,1.467-4.604,2.201-7.586,2.201c-3.502,0-6.313-1.211-8.43-3.637
			c-2.119-2.422-3.177-5.555-3.177-9.395c0-3.889,1.058-7.031,3.177-9.434c2.117-2.398,4.928-3.6,8.43-3.6
			c2.938,0,5.467,0.734,7.586,2.201l-1.426,3.775c-2.033-1.393-4.129-2.088-6.291-2.088c-2.204,0-3.978,0.846-5.316,2.535
			c-1.34,1.691-2.01,3.895-2.01,6.609c0,2.762,0.67,4.977,2.01,6.643c1.339,1.668,3.112,2.5,5.316,2.5
			c2.162,0,4.258-0.695,6.291-2.088L267.346,530.633z"/>
		<path fill="#808080" d="M294.188,531.898l-3.91,0.863c-0.425-1.152-0.808-2.543-1.146-4.176c-2.604,2.832-5.187,4.248-7.746,4.248
			c-6.119,0-9.178-3.912-9.178-11.736v-13.393h4.021v12.961c0,5.424,1.877,8.137,5.633,8.137c1.573,0,3.123-0.66,4.651-1.98
			c1.53-1.32,2.294-2.867,2.294-4.645v-14.473h4.021v17.93C292.827,527.266,293.281,529.354,294.188,531.898z"/>
		<path fill="#808080" d="M322.589,519.441c0,3.889-1.095,7.092-3.285,9.613c-2.19,2.52-4.89,3.779-8.1,3.779
			s-5.834-1.084-7.872-3.252c0,1.221-0.066,2.088-0.195,2.604h-3.825c0.172-2.352,0.259-4.535,0.259-6.551v-29.736h4.021
			l0.064,14.256c2.031-2.256,4.669-3.385,7.911-3.385c3.155,0,5.78,1.213,7.878,3.637
			C321.541,512.83,322.589,515.842,322.589,519.441z M318.569,519.477c0-2.602-0.674-4.744-2.02-6.432
			c-1.345-1.688-3.147-2.531-5.404-2.531c-1.824,0-3.539,0.676-5.146,2.023c-1.607,1.352-2.409,2.939-2.409,4.771v5.639
			c0,1.83,0.673,3.289,2.019,4.373s3.104,1.625,5.275,1.625c2.431,0,4.32-0.842,5.665-2.529
			C317.896,524.73,318.569,522.416,318.569,519.477z"/>
		<path fill="#808080" d="M345.673,531.971l-3.779,0.863l-0.638-3.111c-2.213,2.076-4.708,3.111-7.484,3.111
			c-2.214,0-4.058-0.656-5.533-1.971c-1.475-1.314-2.235-3.096-2.276-5.342c0-6.068,4.928-9.176,14.783-9.32
			c-0.433-3.646-2.205-5.471-5.317-5.471c-2.334,0-4.906,0.6-7.716,1.799l-0.454-4.104c2.938-0.959,5.728-1.439,8.364-1.439
			c6.096,0,9.143,3.504,9.143,10.512v8.137C344.765,527.459,345.066,529.57,345.673,531.971z M340.745,524.445v-4.355
			c-7.09,0.146-10.634,1.816-10.634,5.008c0,2.566,1.282,3.848,3.849,3.848c1.435,0,2.87-0.387,4.306-1.16
			C339.918,526.865,340.745,525.752,340.745,524.445z"/>
		<path fill="#808080" d="M363.698,531.826c-1.427,0.672-2.853,1.008-4.28,1.008c-1.981,0-3.536-0.744-4.663-2.232
			c-1.127-1.486-1.69-3.527-1.69-6.119v-13.033h-4.409v-3.744h4.409v-6.695l4.02-1.943v8.639h7.068v3.744h-7.068v12.961
			c0,2.928,0.844,4.393,2.529,4.393c1.08,0,2.29-0.264,3.631-0.793L363.698,531.826z"/>
		<path fill="#808080" d="M389.829,519.803c0,3.648-1.103,6.721-3.308,9.215c-2.204,2.496-4.992,3.744-8.364,3.744
			c-3.371,0-6.16-1.248-8.363-3.744c-2.205-2.494-3.308-5.566-3.308-9.215s1.103-6.732,3.308-9.252
			c2.203-2.521,4.992-3.781,8.363-3.781c3.372,0,6.16,1.26,8.364,3.781C388.727,513.07,389.829,516.154,389.829,519.803z
			 M385.81,519.766c0-2.58-0.714-4.744-2.141-6.49c-1.426-1.744-3.265-2.617-5.512-2.617s-4.085,0.873-5.511,2.617
			c-1.427,1.746-2.141,3.91-2.141,6.49c0,2.582,0.714,4.746,2.141,6.49c1.426,1.746,3.264,2.619,5.511,2.619
			s4.086-0.873,5.512-2.619C385.096,524.512,385.81,522.348,385.81,519.766z"/>
		<path fill="#808080" d="M398.776,532.186h-4.021v-16.199c0-3.84-0.26-6.721-0.778-8.641h3.587
			c0.468,0.848,0.701,1.977,0.701,3.387c0.384-0.896,1.191-1.744,2.424-2.545s2.452-1.201,3.664-1.201
			c0.863,0,1.556,0.072,2.074,0.215v3.816c-0.347-0.096-0.843-0.143-1.491-0.143c-4.107,0-6.16,2.746-6.16,8.234V532.186z"/>
		<path fill="#808080" d="M447.146,519.803c0,3.648-1.102,6.721-3.306,9.215c-2.205,2.496-4.993,3.744-8.365,3.744
			s-6.16-1.248-8.364-3.744c-2.205-2.494-3.307-5.566-3.307-9.215s1.102-6.732,3.307-9.252c2.204-2.521,4.992-3.781,8.364-3.781
			s6.16,1.26,8.365,3.781C446.045,513.07,447.146,516.154,447.146,519.803z M443.127,519.766c0-2.58-0.713-4.744-2.14-6.49
			c-1.427-1.744-3.264-2.617-5.512-2.617s-4.084,0.873-5.512,2.617c-1.427,1.746-2.139,3.91-2.139,6.49
			c0,2.582,0.712,4.746,2.139,6.49c1.428,1.746,3.264,2.619,5.512,2.619s4.085-0.873,5.512-2.619
			C442.414,524.512,443.127,522.348,443.127,519.766z"/>
		<path fill="#808080" d="M457.65,532.186h-4.02v-20.736h-3.696v-3.744h3.763c0-8.207,2.85-12.311,8.557-12.311
			c1.816,0,3.352,0.527,4.605,1.584l-1.17,3.383c-1.512-0.719-2.701-1.08-3.564-1.08c-2.984,0-4.475,2.809-4.475,8.424h6.291v3.744
			h-6.291V532.186z"/>
		<path fill="#F8C134" d="M506.543,530.387c-3.158,1.535-6.918,2.303-11.283,2.303c-4.107,0-7.404-1.619-9.889-4.859
			c-2.486-3.24-3.729-7.477-3.729-12.709c0-5.184,1.209-9.359,3.631-12.527c2.68-3.455,6.418-5.184,11.219-5.184
			c3.672,0,7.021,0.695,10.051,2.088l-1.299,3.6c-2.594-1.199-5.469-1.799-8.623-1.799c-3.977,0-6.896,1.631-8.754,4.895
			c-1.385,2.402-2.076,5.426-2.076,9.072c0,3.361,0.758,6.289,2.27,8.785c1.904,3.168,4.584,4.752,8.041,4.752
			c3.59,0,6.701-0.721,9.338-2.16L506.543,530.387z"/>
		<path fill="#F8C134" d="M532.154,532.186h-4.021v-13.752c0-2.16-0.535-3.947-1.604-5.363c-1.072-1.416-2.523-2.125-4.355-2.125
			c-1.834,0-3.451,0.721-4.848,2.16c-1.398,1.441-2.096,3.025-2.096,4.752v14.328h-4.021v-36.287h4.021v14.471
			c1.996-2.207,4.49-3.311,7.484-3.311c2.949,0,5.262,1.02,6.932,3.059c1.672,2.041,2.508,4.789,2.508,8.244V532.186z"/>
		<path fill="#F8C134" d="M556.793,531.971l-3.781,0.863l-0.637-3.111c-2.213,2.076-4.707,3.111-7.484,3.111
			c-2.215,0-4.057-0.656-5.533-1.971c-1.475-1.314-2.234-3.096-2.277-5.342c0-6.068,4.928-9.176,14.783-9.32
			c-0.432-3.646-2.203-5.471-5.316-5.471c-2.334,0-4.908,0.6-7.717,1.799l-0.453-4.104c2.939-0.959,5.727-1.439,8.365-1.439
			c6.094,0,9.143,3.504,9.143,10.512v8.137C555.885,527.459,556.188,529.57,556.793,531.971z M551.863,524.445v-4.355
			c-7.088,0.146-10.635,1.816-10.635,5.008c0,2.566,1.285,3.848,3.852,3.848c1.434,0,2.869-0.387,4.305-1.16
			C551.037,526.865,551.863,525.752,551.863,524.445z"/>
		<path fill="#F8C134" d="M583.377,532.186h-4.021v-13.848c0-4.975-2.074-7.463-6.223-7.463c-1.527,0-3.023,0.752-4.486,2.26
			s-2.193,3.002-2.193,4.484v14.566h-4.021v-18c0-2.975-0.174-5.158-0.518-6.551h3.768c0.297,0.834,0.447,1.842,0.447,3.02
			c2.082-2.445,4.6-3.668,7.551-3.668c2.949,0,5.303,1.008,7.061,3.023s2.637,4.777,2.637,8.279V532.186z"/>
		<path fill="#F8C134" d="M605.553,535.426c0,2.256-0.736,4.08-2.205,5.473c-1.469,1.391-3.609,2.088-6.42,2.088
			c-2.334,0-4.732-0.832-7.195-2.494l1.424-3.627c2.291,1.488,4.303,2.232,6.033,2.232c1.338,0,2.451-0.346,3.338-1.033
			c0.885-0.689,1.33-1.51,1.33-2.459c0-1.428-1.211-2.686-3.631-3.779c-1.816-0.816-3.568-1.729-5.254-2.736
			c-1.684-1.008-2.529-2.328-2.529-3.959c0-0.768,0.195-1.752,0.584-2.953c-1.557-1.871-2.332-3.863-2.332-5.977
			c0-2.639,0.797-4.799,2.398-6.479c1.598-1.68,3.521-2.521,5.77-2.521h9.336v3.098h-3.24c0.779,0.336,1.404,1.127,1.879,2.375
			c0.391,1.008,0.584,2.016,0.584,3.023c0,2.834-0.703,5.076-2.105,6.732c-1.406,1.656-3.426,2.484-6.064,2.484
			c-0.951,0-1.879-0.168-2.787-0.504c-0.217,0.24-0.324,0.553-0.324,0.936c0,0.721,1.555,1.561,4.668,2.52
			C603.305,529.258,605.553,531.779,605.553,535.426z M601.986,516.059c0-1.441-0.467-2.664-1.395-3.672
			c-0.93-1.008-2.041-1.512-3.34-1.512c-1.295,0-2.41,0.504-3.338,1.512c-0.93,1.008-1.396,2.23-1.396,3.672
			c0,1.439,0.467,2.652,1.396,3.635c0.928,0.984,2.043,1.477,3.338,1.477c1.557,0,2.734-0.492,3.533-1.477
			C601.586,518.711,601.986,517.498,601.986,516.059z"/>
		<path fill="#F8C134" d="M630.904,530.891c-3.156,1.295-6.162,1.943-9.014,1.943c-3.502,0-6.387-1.164-8.656-3.492
			s-3.402-5.34-3.402-9.035c0-4.08,1.121-7.393,3.369-9.938c2.205-2.398,5.014-3.6,8.43-3.6c6.658,0,10.051,4.633,10.182,13.896
			H613.85c0.174,2.592,1.006,4.598,2.496,6.012c1.492,1.416,3.426,2.125,5.805,2.125c2.42,0,5.186-0.623,8.301-1.873
			L630.904,530.891z M627.791,516.777c-0.215-1.85-0.908-3.355-2.074-4.52c-1.166-1.162-2.658-1.744-4.473-1.744
			c-1.73,0-3.275,0.582-4.637,1.744c-1.361,1.164-2.195,2.67-2.498,4.52H627.791z"/>
		<path fill="#F8C134" d="M677.459,532.186h-4.473l-4.084-11.447h-12.387l-4.02,11.447h-4.408l12.967-34.775h3.502L677.459,532.186z
			 M667.346,516.85l-4.539-14.256l-4.801,14.256H667.346z"/>
		<path fill="#F8C134" d="M696.328,535.426c0,2.256-0.736,4.08-2.205,5.473c-1.469,1.391-3.609,2.088-6.42,2.088
			c-2.332,0-4.732-0.832-7.195-2.494l1.424-3.627c2.291,1.488,4.303,2.232,6.033,2.232c1.34,0,2.451-0.346,3.338-1.033
			c0.885-0.689,1.33-1.51,1.33-2.459c0-1.428-1.211-2.686-3.631-3.779c-1.816-0.816-3.568-1.729-5.254-2.736
			c-1.684-1.008-2.527-2.328-2.527-3.959c0-0.768,0.193-1.752,0.582-2.953c-1.557-1.871-2.332-3.863-2.332-5.977
			c0-2.639,0.797-4.799,2.398-6.479c1.598-1.68,3.521-2.521,5.77-2.521h9.338v3.098h-3.242c0.779,0.336,1.404,1.127,1.879,2.375
			c0.391,1.008,0.584,2.016,0.584,3.023c0,2.834-0.703,5.076-2.105,6.732c-1.406,1.656-3.426,2.484-6.064,2.484
			c-0.951,0-1.879-0.168-2.787-0.504c-0.217,0.24-0.324,0.553-0.324,0.936c0,0.721,1.555,1.561,4.668,2.52
			C694.08,529.258,696.328,531.779,696.328,535.426z M692.762,516.059c0-1.441-0.467-2.664-1.395-3.672
			c-0.93-1.008-2.041-1.512-3.34-1.512c-1.295,0-2.41,0.504-3.338,1.512c-0.93,1.008-1.395,2.23-1.395,3.672
			c0,1.439,0.465,2.652,1.395,3.635c0.928,0.984,2.043,1.477,3.338,1.477c1.557,0,2.734-0.492,3.533-1.477
			C692.361,518.711,692.762,517.498,692.762,516.059z"/>
		<path fill="#F8C134" d="M721.68,530.891c-3.154,1.295-6.158,1.943-9.012,1.943c-3.502,0-6.389-1.164-8.658-3.492
			c-2.268-2.328-3.402-5.34-3.402-9.035c0-4.08,1.123-7.393,3.371-9.938c2.203-2.398,5.016-3.6,8.428-3.6
			c6.658,0,10.051,4.633,10.182,13.896h-17.961c0.172,2.592,1.006,4.598,2.498,6.012c1.49,1.416,3.426,2.125,5.803,2.125
			c2.42,0,5.188-0.623,8.299-1.873L721.68,530.891z M718.568,516.777c-0.217-1.85-0.908-3.355-2.074-4.52
			c-1.168-1.162-2.66-1.744-4.475-1.744c-1.73,0-3.275,0.582-4.637,1.744c-1.361,1.164-2.193,2.67-2.496,4.52H718.568z"/>
		<path fill="#F8C134" d="M748.459,532.186h-4.02v-13.848c0-4.975-2.074-7.463-6.223-7.463c-1.529,0-3.025,0.752-4.488,2.26
			s-2.193,3.002-2.193,4.484v14.566h-4.021v-18c0-2.975-0.172-5.158-0.518-6.551h3.77c0.297,0.834,0.445,1.842,0.445,3.02
			c2.082-2.445,4.6-3.668,7.551-3.668c2.949,0,5.303,1.008,7.061,3.023s2.637,4.777,2.637,8.279V532.186z"/>
		<path fill="#F8C134" d="M767.328,531.826c-1.428,0.672-2.854,1.008-4.281,1.008c-1.98,0-3.537-0.744-4.664-2.232
			c-1.127-1.486-1.689-3.527-1.689-6.119v-13.033h-4.41v-3.744h4.41v-6.695l4.02-1.943v8.639h7.068v3.744h-7.068v12.961
			c0,2.928,0.844,4.393,2.529,4.393c1.08,0,2.291-0.264,3.631-0.793L767.328,531.826z"/>
		<path fill="#F8C134" d="M786.002,525.201c0,2.258-0.789,4.094-2.367,5.51s-3.707,2.123-6.387,2.123
			c-2.205,0-4.582-0.777-7.133-2.334l1.621-3.57c1.771,1.344,3.674,2.016,5.705,2.016c3.025,0,4.541-1.162,4.541-3.488
			c0-1.791-1.471-3.197-4.41-4.215c-4.322-1.488-6.484-3.768-6.484-6.84c0-2.064,0.725-3.805,2.172-5.221
			c1.449-1.414,3.406-2.123,5.867-2.123c2.508,0,4.627,0.695,6.355,2.088l-1.492,3.313c-1.512-1.248-3.221-1.873-5.121-1.873
			c-1.125,0-2.064,0.324-2.82,0.973c-0.758,0.646-1.135,1.475-1.135,2.484c0,1.248,1.578,2.473,4.732,3.672
			C783.883,519.346,786.002,521.844,786.002,525.201z"/>
	</g>
</g>
</svg>
