<svg width="1665" height="1665" viewBox="0 0 1665 1665" fill="none" xmlns="http://www.w3.org/2000/svg">
<rect width="1665" height="1665" fill="white"/>
<rect width="1665" height="1665" fill="#1A4789" fill-opacity="0.32"/>
<g clip-path="url(#clip0_612_19)">
<path d="M1247.62 936.281C1247.62 972.981 1233.05 1008.18 1207.1 1034.13C1181.15 1060.08 1145.95 1074.66 1109.25 1074.66C1072.55 1074.66 1037.35 1060.08 1011.4 1034.13C985.454 1008.18 970.875 972.981 970.875 936.281C970.875 899.582 985.454 864.386 1011.4 838.435C1037.35 812.485 1072.55 797.906 1109.25 797.906C1145.95 797.906 1181.15 812.485 1207.1 838.435C1233.05 864.386 1247.62 899.582 1247.62 936.281ZM832.5 1330.65C832.5 1386 887.85 1386 887.85 1386H1330.65C1330.65 1386 1386 1386 1386 1330.65C1386 1275.3 1330.65 1109.25 1109.25 1109.25C887.85 1109.25 832.5 1275.3 832.5 1330.65Z" fill="black"/>
<path d="M417.375 417.375C380.676 417.375 345.479 431.954 319.529 457.904C293.579 483.854 279 519.051 279 555.75V1109.25C279 1145.95 293.579 1181.15 319.529 1207.1C345.479 1233.05 380.676 1247.62 417.375 1247.62H780.125C788.566 1225.07 800.535 1201.41 816.518 1178.44H417.375C399.025 1178.44 381.427 1171.15 368.452 1158.17C355.477 1145.2 348.188 1127.6 348.188 1109.25V555.75C348.188 537.4 355.477 519.802 368.452 506.827C381.427 493.852 399.025 486.562 417.375 486.562H1247.62C1265.97 486.562 1283.57 493.852 1296.55 506.827C1309.52 519.802 1316.81 537.4 1316.81 555.75V1096.1C1341.24 1112.02 1362.2 1130.42 1379.77 1150.28C1383.86 1137.34 1386 1123.57 1386 1109.25V555.75C1386 519.051 1371.42 483.854 1345.47 457.904C1319.52 431.954 1284.32 417.375 1247.62 417.375H417.375Z" fill="black"/>
</g>
<defs>
<clipPath id="clip0_612_19">
<rect width="1107" height="1107" fill="white" transform="translate(279 279)"/>
</clipPath>
</defs>
</svg>
