<svg width="1665" height="1665" viewBox="0 0 1665 1665" fill="none" xmlns="http://www.w3.org/2000/svg">
<g clip-path="url(#clip0_612_26)">
<rect width="1665" height="1665" fill="white"/>
<rect width="1665" height="1665" fill="#1A4789" fill-opacity="0.16"/>
<g clip-path="url(#clip1_612_26)">
<path d="M-397 1955H3889L3825.43 1922.15L3681.52 1854.37H3578.84V1776.81L3613.77 1716.02L3762.58 1477.76L3794.73 1470.77L3802.41 1463.09L3805.19 1447.02L3721.35 1433.75L3324.54 1358.28L2998.98 1292.61L2507.17 1155.68L2361.85 1108.16H2351.38L2217.24 1051.57L2204.66 1059.25L2061.45 981.697L2048.18 992.888L1904.27 909.042L1893.08 923.016L1803.65 885.297L1739.38 841.287L1725.4 853.174L1625.5 802.176L1564.02 750.483L1554.25 766.544L1434.78 709.951L1383.79 654.054L1375.41 679.915L1241.97 616.335L1199.35 557.655H1190.98L1189.58 589.082L1039.39 511.528L1005.85 447.947H991.873V488.479L846.547 410.228L838.865 403.241L802.541 324.991H793.467V382.28L630.689 286.547L623.703 280.256L583.175 165.678H571.289L592.944 540.868L615.296 949.602L627.877 1194.15L642.546 1538.61L652.316 1786.64L449.01 1797.11L274.346 1805.49L270.375 1817.14L260.373 1819.46L256.894 1821.78L230.34 1822.48L228.484 1829.46L214.743 1835.06L210.54 1839.49V1843.47L152.56 1843.23L151.864 1849.99L134.644 1853L129.745 1863.47L73.8527 1863.93L71.7654 1871.39L39.3838 1872.08V1873.7L-98.9557 1877.68L-100.579 1884.43L-158.559 1884.9L-157.631 1895.62L-186.737 1897.94L-188.128 1903.77L-241.209 1905.39C-241.209 1905.39 -241.209 1911.45 -242.136 1911.45C-243.064 1911.45 -259.124 1912.38 -259.124 1912.38L-261.444 1915.86L-274.257 1916.56L-277.504 1921.69L-327.569 1923.31L-328.729 1931.92L-355.979 1934.47L-360.183 1942.39L-364.618 1943.55L-363.923 1947.98L-397 1950.3" fill="url(#paint0_linear_612_26)"/>
<path d="M792.539 400.4L796.279 324.962L1452.35 1768.29" stroke="white" stroke-width="5" stroke-miterlimit="10"/>
<path d="M1001.47 497.843L1003.35 460.153L1735.14 1704.33" stroke="white" stroke-width="5" stroke-miterlimit="10"/>
<path d="M1200.11 606.565L1201.64 575.543L2003.36 1667.66" stroke="white" stroke-width="5" stroke-miterlimit="10"/>
<path d="M1376.05 693.832L1386.16 664.521L2255.86 1632.66" stroke="white" stroke-width="5" stroke-miterlimit="10"/>
<path d="M1554.48 778.084L1566.45 760.485L2482.15 1598.86" stroke="white" stroke-width="5" stroke-miterlimit="10"/>
<path d="M1061.65 1511.33C1035.56 1559.51 1001.5 1611.73 978.799 1639.24C942.069 1683.78 909.049 1712.65 899.135 1721.18C872.29 1744.2 846.257 1762.64 822.834 1777.28L1158.33 1776.58L571.289 165.678L663.1 1781.6H756.621" fill="#414042"/>
<path d="M1061.65 1511.33C1035.56 1559.51 1001.5 1611.73 978.799 1639.24C942.069 1683.78 909.049 1712.65 899.135 1721.18C872.29 1744.2 846.257 1762.64 822.834 1777.28L1158.33 1776.58L571.289 165.678L663.1 1781.6H756.621" stroke="white" stroke-width="5" stroke-miterlimit="10"/>
<path d="M905.454 1256.81L954.041 1667.66L832.922 1755.97" stroke="white" stroke-width="5" stroke-miterlimit="10"/>
<path d="M795.322 780.49L756.592 1781.6L832.922 1755.97L923.544 1132.37" stroke="white" stroke-width="5" stroke-miterlimit="10"/>
<path d="M1060.72 1526.26C1040.6 1564.97 1010.19 1614.28 964.97 1664.67C922.268 1712.25 879.276 1746.43 844.518 1770.17C945.75 1769.42 1047.01 1768.67 1148.24 1767.94C1119.08 1687.37 1089.89 1606.83 1060.72 1526.29V1526.26Z" fill="#6D6E71"/>
<path d="M960.477 1648.2L908.093 1264.4L923.544 1155.16L1054.72 1506.37L960.477 1648.2Z" fill="#6D6E71"/>
<path d="M1662.47 926.928L1697.84 887.274L1568.23 771.619L1532.85 811.272L1662.47 926.928Z" fill="url(#paint1_linear_612_26)"/>
<path d="M1318.8 1689.45L1393.99 1655.19L813.063 379.763L737.875 414.015L1318.8 1689.45Z" fill="url(#paint2_linear_612_26)"/>
<path d="M1646.46 1737.81L1717.74 1696.04L1009.22 486.838L937.934 528.613L1646.46 1737.81Z" fill="url(#paint3_linear_612_26)"/>
<path d="M784.451 785.447L583.088 224.213L655.968 1644.37L756.592 1639.21L784.451 785.447Z" fill="url(#paint4_linear_612_26)"/>
<path d="M1625.45 1065.94L1687.1 1010.93L1391.44 679.528L1329.79 734.538L1625.45 1065.94Z" fill="url(#paint5_linear_612_26)"/>
<path d="M1659.16 1342.87L1725.46 1293.56L1206.83 596.192L1140.54 645.504L1659.16 1342.87Z" fill="url(#paint6_linear_612_26)"/>
</g>
</g>
<defs>
<linearGradient id="paint0_linear_612_26" x1="-397" y1="1060.32" x2="3889" y2="1060.32" gradientUnits="userSpaceOnUse">
<stop offset="0.24" stop-color="#414042"/>
<stop offset="0.35" stop-color="#564840" stop-opacity="0.8"/>
<stop offset="0.56" stop-color="#73543D" stop-opacity="0.52"/>
<stop offset="0.77" stop-color="#855B3C" stop-opacity="0.35"/>
<stop offset="1" stop-color="#8B5E3C" stop-opacity="0.3"/>
</linearGradient>
<linearGradient id="paint1_linear_612_26" x1="1489.31" y1="754.001" x2="1454.06" y2="793.514" gradientUnits="userSpaceOnUse">
<stop stop-color="#231F20"/>
<stop offset="0.01" stop-color="#231F20" stop-opacity="0.97"/>
<stop offset="0.33" stop-color="#231F20" stop-opacity="0.43"/>
<stop offset="0.65" stop-color="#231F20" stop-opacity="0.11"/>
<stop offset="1" stop-color="#231F20" stop-opacity="0"/>
</linearGradient>
<linearGradient id="paint2_linear_612_26" x1="1086.49" y1="993.506" x2="1011.29" y2="1027.76" gradientUnits="userSpaceOnUse">
<stop stop-color="#231F20"/>
<stop offset="1" stop-color="#231F20" stop-opacity="0"/>
</linearGradient>
<linearGradient id="paint3_linear_612_26" x1="1343.71" y1="1068.39" x2="1272.47" y2="1110.13" gradientUnits="userSpaceOnUse">
<stop stop-color="#231F20"/>
<stop offset="0.01" stop-color="#231F20" stop-opacity="0.97"/>
<stop offset="0.33" stop-color="#231F20" stop-opacity="0.43"/>
<stop offset="0.65" stop-color="#231F20" stop-opacity="0.11"/>
<stop offset="1" stop-color="#231F20" stop-opacity="0"/>
</linearGradient>
<linearGradient id="paint4_linear_612_26" x1="618.544" y1="968.885" x2="790.643" y2="960.048" gradientUnits="userSpaceOnUse">
<stop stop-color="#231F20"/>
<stop offset="1" stop-color="#231F20" stop-opacity="0"/>
</linearGradient>
<linearGradient id="paint5_linear_612_26" x1="1564.18" y1="880.584" x2="1502.52" y2="935.592" gradientUnits="userSpaceOnUse">
<stop stop-color="#231F20"/>
<stop offset="0.01" stop-color="#231F20" stop-opacity="0.97"/>
<stop offset="0.33" stop-color="#231F20" stop-opacity="0.43"/>
<stop offset="0.65" stop-color="#231F20" stop-opacity="0.11"/>
<stop offset="1" stop-color="#231F20" stop-opacity="0"/>
</linearGradient>
<linearGradient id="paint6_linear_612_26" x1="1452.49" y1="935.205" x2="1386.23" y2="984.481" gradientUnits="userSpaceOnUse">
<stop stop-color="#231F20"/>
<stop offset="0.01" stop-color="#231F20" stop-opacity="0.97"/>
<stop offset="0.33" stop-color="#231F20" stop-opacity="0.43"/>
<stop offset="0.65" stop-color="#231F20" stop-opacity="0.11"/>
<stop offset="1" stop-color="#231F20" stop-opacity="0"/>
</linearGradient>
<clipPath id="clip0_612_26">
<rect width="1665" height="1665" fill="white"/>
</clipPath>
<clipPath id="clip1_612_26">
<rect width="4286" height="1838" fill="white" transform="translate(-397 117)"/>
</clipPath>
</defs>
</svg>
