<svg width="1665" height="1665" viewBox="0 0 1665 1665" fill="none" xmlns="http://www.w3.org/2000/svg">
<g clip-path="url(#clip0_612_125)">
<rect width="1665" height="1665" fill="white"/>
<rect width="1665" height="1665" fill="#1A4789" fill-opacity="0.16"/>
<path d="M1197 1337.77L588.2 1550L436 1240.26L579.585 1173.34L530.766 854.991L614.045 846.387L544.167 548.116L995.024 442L1148.18 488.844L1197 1337.77Z" fill="#1A4789"/>
<path d="M1853.05 -718.993L1978.47 -965H2371V-891.294L2141.23 -483.515L1910.5 -43.1903L1643.39 579.007L1570.62 1155.26L1674.98 1594.63V1840.63L1910.5 2280H1433.72L1271.92 1594.63L1182.88 1238.54L1151.29 657.5V479.456L994.277 443.081L826.734 479.456L408.356 579.007L-5.23511 657.5L-418.826 621.125L-707 579.007V479.456L-450.42 516.788L-5.23511 579.007L340.382 516.788L690.785 396.177L957.896 333H1271.92L1433.72 -43.1903L1570.62 -278.668L1853.05 -718.993Z" fill="#D9D9D9" stroke="black" stroke-width="3"/>
<path d="M1442.2 1204.49C1441.43 1212.59 1438.24 1219.47 1432.62 1225.13C1427.01 1230.67 1419.5 1234.71 1410.09 1237.25C1400.58 1239.66 1389.58 1240.28 1377.1 1239.1C1365.05 1237.95 1354.71 1235.15 1346.07 1230.69C1337.34 1226.1 1330.8 1220.51 1326.45 1213.91C1322 1207.19 1320.14 1200.06 1320.85 1192.5C1321.28 1188.01 1322.09 1184.11 1323.29 1180.8C1324.37 1177.47 1325.7 1174.56 1327.26 1172.06C1328.15 1170.82 1329.37 1170.27 1330.9 1170.41L1355.91 1172.29C1357.78 1172.46 1358.64 1173.21 1358.52 1174.52C1358.41 1175.73 1357.62 1176.42 1356.17 1176.62L1349.93 1177.69C1341.17 1179.18 1335.01 1181.3 1331.43 1184.05C1327.86 1186.7 1325.89 1190.1 1325.49 1194.26C1324.77 1201.93 1328.92 1208.79 1337.96 1214.84C1346.9 1220.77 1360.35 1224.58 1378.31 1226.28C1390.58 1227.44 1401.05 1227.16 1409.72 1225.44C1418.4 1223.61 1425.07 1220.88 1429.72 1217.23C1434.39 1213.47 1436.94 1209.29 1437.37 1204.69C1437.84 1199.77 1436.68 1195.68 1433.89 1192.43C1431.12 1189.08 1425.45 1185.94 1416.88 1183.03L1409.02 1180.3C1407.41 1179.81 1406.78 1178.87 1407.13 1177.47C1407.47 1176.28 1408.45 1175.77 1410.1 1175.92L1436.65 1179.1C1438.18 1179.25 1439.26 1180.07 1439.89 1181.56C1440.96 1184.32 1441.7 1187.54 1442.13 1191.22C1442.67 1194.81 1442.69 1199.23 1442.2 1204.49ZM1444.16 1167.97C1444.04 1169.28 1443.37 1169.88 1442.17 1169.77C1441.08 1169.67 1440.48 1169 1440.37 1167.78L1440.26 1165.44C1440.15 1163.11 1439.63 1161.57 1438.71 1160.82C1437.8 1159.96 1436.19 1159.42 1433.89 1159.21L1339.77 1150.29C1337.79 1150.11 1336.45 1150.31 1335.73 1150.9C1334.91 1151.38 1334.32 1152.37 1333.96 1153.89L1333.14 1157.29C1332.8 1158.47 1332.09 1159.01 1330.99 1158.91C1329.9 1158.81 1329.3 1158.14 1329.19 1156.92C1328.83 1153.79 1328.3 1151.14 1327.63 1148.98C1326.95 1146.81 1326.24 1144.98 1325.49 1143.47C1324.57 1141.62 1324.14 1140.25 1324.23 1139.37C1324.34 1138.17 1325.27 1137.65 1327.02 1137.82L1370.56 1141.94C1371.54 1142.03 1372.17 1141.76 1372.46 1141.12C1372.63 1140.48 1372.32 1139.62 1371.54 1138.55C1368.1 1134.03 1365.82 1130.11 1364.7 1126.8C1363.57 1123.49 1363.18 1120.08 1363.51 1116.58C1364 1111.43 1366.13 1107.54 1369.92 1104.92C1373.59 1102.28 1378.77 1101.28 1385.45 1101.91L1438.84 1106.97C1441.14 1107.19 1442.81 1107.01 1443.86 1106.45C1444.81 1105.77 1445.55 1104.29 1446.1 1102.02L1446.94 1098.46C1447.27 1097.27 1447.98 1096.73 1449.08 1096.84C1450.28 1096.95 1450.82 1097.66 1450.7 1098.98L1448.08 1126.57C1447.94 1128.11 1447.26 1128.82 1446.06 1128.7C1444.96 1128.6 1444.36 1127.93 1444.26 1126.71L1444.15 1124.38C1444.04 1122.05 1443.52 1120.51 1442.6 1119.76C1441.68 1118.9 1440.08 1118.36 1437.78 1118.14L1386.2 1113.26C1380.83 1112.75 1376.96 1113.37 1374.58 1115.14C1372.21 1116.9 1370.85 1119.59 1370.51 1123.21C1370.17 1126.71 1370.91 1129.98 1372.72 1133.03C1374.44 1135.95 1376.91 1138.4 1380.15 1140.36C1383.28 1142.31 1386.87 1143.48 1390.92 1143.87L1434.95 1148.04C1437.25 1148.25 1438.92 1148.08 1439.97 1147.52C1441.03 1146.84 1441.77 1145.37 1442.21 1143.09L1443.12 1138.7C1443.46 1137.52 1444.17 1136.98 1445.27 1137.08C1446.47 1137.19 1447.01 1137.91 1446.89 1139.22L1444.16 1167.97ZM1454.4 1075.67C1453.96 1080.27 1452.18 1083.92 1449.05 1086.6C1445.82 1089.28 1441.79 1090.39 1436.97 1089.93C1432.26 1089.49 1427.97 1087.59 1424.08 1084.24C1420.09 1080.88 1416.64 1076.46 1413.74 1070.99C1410.83 1065.52 1408.65 1059.41 1407.19 1052.64C1406.88 1051.17 1406.02 1050.37 1404.6 1050.24L1389.65 1048.82C1384.39 1048.33 1380.59 1048.79 1378.25 1050.23C1375.79 1051.65 1374.43 1053.79 1374.16 1056.64C1373.9 1059.38 1374.92 1062.01 1377.22 1064.55C1379.42 1066.97 1383.38 1068.95 1389.09 1070.48C1392.54 1071.36 1395 1072.81 1396.47 1074.83C1397.84 1076.72 1398.43 1078.6 1398.25 1080.47C1397.96 1083.53 1396.29 1084.92 1393.22 1084.63C1390.04 1084.33 1387.01 1083.16 1384.11 1081.11C1381.11 1078.95 1378.49 1076.27 1376.25 1073.08C1373.9 1069.87 1372.12 1066.44 1370.92 1062.8C1369.72 1059.15 1369.29 1055.57 1369.62 1052.06C1370.65 1041.22 1377.46 1036.4 1390.05 1037.59L1440.32 1042.35C1444.91 1042.79 1447.32 1041.86 1447.54 1039.56C1447.68 1038.13 1446.87 1036.73 1445.12 1035.35C1443.26 1033.96 1440.04 1033.04 1435.44 1032.61C1433.68 1032.44 1432.88 1031.65 1433.01 1030.22C1433.14 1028.91 1434.13 1028.34 1435.99 1028.52C1443.98 1029.27 1449.65 1031.25 1453 1034.44C1456.24 1037.51 1457.7 1040.79 1457.37 1044.3C1457.12 1046.93 1455.88 1048.91 1453.66 1050.24C1451.32 1051.57 1448.65 1052.37 1445.64 1052.63C1444.53 1052.64 1443.94 1053.08 1443.86 1053.96C1443.67 1054.71 1444.09 1055.53 1445.12 1056.4C1448.48 1059.37 1450.97 1062.31 1452.57 1065.22C1454.17 1068.14 1454.78 1071.62 1454.4 1075.67ZM1447.26 1070.52C1447.53 1067.67 1446.79 1064.95 1445.05 1062.36C1443.2 1059.75 1440.65 1057.52 1437.4 1055.67C1434.15 1053.81 1430.39 1052.68 1426.12 1052.28L1414.12 1051.14C1412.04 1050.94 1411.33 1052.04 1411.99 1054.42C1413.77 1061.33 1416.62 1066.85 1420.53 1070.97C1424.35 1074.98 1429.22 1077.27 1435.13 1077.83C1442.69 1078.54 1446.73 1076.11 1447.26 1070.52ZM1461.9 996.429C1461.37 1002.01 1459.03 1006.88 1454.88 1011.01C1450.64 1015.03 1445.1 1018.04 1438.28 1020.05C1431.46 1022.05 1424 1022.67 1415.9 1021.91C1407.8 1021.14 1400.64 1019.13 1394.43 1015.89C1388.21 1012.65 1383.4 1008.61 1380 1003.75C1376.59 998.901 1375.14 993.737 1375.66 988.262C1376.19 982.677 1378.58 977.876 1382.83 973.858C1387.08 969.731 1392.57 966.66 1399.28 964.643C1405.99 962.627 1413.4 962.002 1421.5 962.77C1429.6 963.537 1436.82 965.546 1443.14 968.797C1449.47 971.938 1454.34 975.935 1457.75 980.788C1461.05 985.63 1462.43 990.844 1461.9 996.429ZM1457.79 996.04C1458.87 984.651 1446.38 977.722 1420.32 975.254C1394.36 972.796 1380.85 977.262 1379.77 988.651C1378.69 1000.04 1391.13 1006.96 1417.08 1009.42C1443.14 1011.89 1456.72 1007.43 1457.79 996.04ZM1497.71 961.335C1497.55 962.978 1496.87 963.742 1495.67 963.628C1494.46 963.514 1493.87 962.74 1493.9 961.306L1493.79 958.975C1493.68 956.644 1493.16 955.104 1492.24 954.353C1491.32 953.493 1489.72 952.954 1487.42 952.737L1398.55 944.321C1396.58 944.134 1395.24 944.338 1394.52 944.933C1393.7 945.408 1393.11 946.401 1392.74 947.914L1391.92 951.317C1391.68 952.73 1391.01 953.385 1389.91 953.281C1389.04 953.198 1388.52 952.265 1388.36 950.482C1388.13 947.035 1387.5 944.379 1386.46 942.512C1385.43 940.537 1384.13 938.48 1382.57 936.343C1381.68 935.264 1381.26 934.396 1381.32 933.739C1381.42 932.754 1382.12 932.323 1383.43 932.447L1388.53 932.93C1389.29 933.002 1389.87 932.726 1390.26 932.1C1390.54 931.463 1390.29 930.666 1389.49 929.707L1387.86 927.729C1385.88 925.331 1384.5 922.936 1383.73 920.543C1382.86 918.139 1382.56 915.459 1382.84 912.502C1383.31 907.465 1385.43 903.19 1389.19 899.679C1392.85 896.048 1397.74 893.417 1403.86 891.787C1409.99 890.047 1417.05 889.556 1425.05 890.313C1434.14 891.174 1442.05 893.36 1448.79 896.871C1455.53 900.382 1460.63 904.843 1464.1 910.253C1467.57 915.555 1469 921.436 1468.39 927.897C1468.08 931.182 1467.2 934.027 1465.76 936.432C1464.7 938.32 1465.21 939.363 1467.29 939.56L1488.48 941.567C1490.78 941.784 1492.34 941.601 1493.17 941.017C1494.12 940.333 1494.87 938.857 1495.41 936.588L1496.81 930.588C1497.14 929.404 1497.8 928.859 1498.79 928.952C1500.1 929.077 1500.68 929.96 1500.52 931.603L1497.71 961.335ZM1464.33 927.015C1464.91 920.883 1461.76 915.613 1454.89 911.205C1448.02 906.687 1438.46 903.848 1426.19 902.686C1414.92 901.618 1406.16 902.447 1399.94 905.172C1393.71 907.897 1390.32 912.271 1389.75 918.295C1389.39 922.018 1390.62 925.394 1393.43 928.422C1396.23 931.45 1400.38 933.223 1405.85 933.742L1447.25 937.662C1452.17 938.129 1456.17 937.402 1459.22 935.481C1462.29 933.451 1463.99 930.629 1464.33 927.015ZM1399.66 857.357C1392.42 852.142 1389.1 846.358 1389.7 840.006C1390.04 836.392 1391.39 833.813 1393.75 832.268C1396 830.713 1398.43 830.06 1401.06 830.309C1403.14 830.506 1404.79 831.214 1406 832.434C1407.22 833.544 1407.73 835.194 1407.52 837.384C1407.35 839.136 1406.84 840.414 1406 841.218C1405.05 841.901 1404 842.465 1402.85 842.909C1401.72 843.243 1400.73 843.703 1399.9 844.287C1398.97 844.861 1398.42 845.915 1398.28 847.448C1398.09 849.419 1399.12 851.395 1401.36 853.375C1403.5 855.345 1406.48 857.119 1410.31 858.697C1414.15 860.166 1418.58 861.138 1423.62 861.615L1461.73 865.224C1464.03 865.442 1465.7 865.269 1466.75 864.706C1467.81 864.032 1468.56 862.556 1468.99 860.277L1469.91 855.889C1470.24 854.705 1470.9 854.16 1471.88 854.253C1473.2 854.377 1473.78 855.261 1473.62 856.904L1470.99 884.664C1470.84 886.307 1470.16 887.071 1468.95 886.957C1467.97 886.864 1467.38 886.09 1467.18 884.635L1467.04 882.633C1466.82 880.292 1466.31 878.751 1465.49 878.011C1464.58 877.151 1462.97 876.612 1460.67 876.394L1405.48 871.168C1403.51 870.981 1402.16 871.185 1401.44 871.78C1400.63 872.255 1400.03 873.248 1399.67 874.761L1398.85 878.164C1398.61 879.577 1397.94 880.232 1396.84 880.128C1395.96 880.045 1395.45 879.112 1395.28 877.329C1395.06 873.882 1394.42 871.226 1393.39 869.359C1392.36 867.384 1391.06 865.327 1389.5 863.19C1388.6 862.111 1388.19 861.243 1388.25 860.586C1388.34 859.6 1389.05 859.17 1390.36 859.294L1399.23 860.134C1400 860.207 1400.52 859.925 1400.8 859.289C1400.98 858.642 1400.59 857.998 1399.66 857.357ZM1478.55 820.613C1478.12 825.212 1476.33 828.855 1473.21 831.543C1469.97 834.219 1465.94 835.33 1461.12 834.873C1456.42 834.427 1452.12 832.529 1448.24 829.178C1444.25 825.817 1440.8 821.402 1437.89 815.933C1434.98 810.465 1432.8 804.347 1431.34 797.579C1431.04 796.114 1430.18 795.314 1428.75 795.179L1413.8 793.764C1408.55 793.266 1404.75 793.735 1402.4 795.17C1399.95 796.595 1398.58 798.731 1398.31 801.578C1398.05 804.316 1399.07 806.954 1401.38 809.492C1403.58 811.91 1407.53 813.887 1413.24 815.422C1416.7 816.302 1419.16 817.75 1420.62 819.767C1421.99 821.665 1422.59 823.544 1422.41 825.406C1422.12 828.472 1420.44 829.86 1417.37 829.57C1414.2 829.269 1411.16 828.097 1408.26 826.055C1405.26 823.892 1402.64 821.214 1400.4 818.018C1398.05 814.813 1396.28 811.385 1395.08 807.735C1393.88 804.086 1393.44 800.509 1393.77 797.005C1394.8 786.163 1401.61 781.339 1414.2 782.531L1464.47 787.292C1469.07 787.727 1471.48 786.795 1471.7 784.495C1471.83 783.072 1471.02 781.67 1469.28 780.289C1467.42 778.897 1464.19 777.984 1459.59 777.548C1457.84 777.382 1457.03 776.588 1457.17 775.164C1457.29 773.85 1458.28 773.281 1460.15 773.457C1468.14 774.214 1473.81 776.188 1477.15 779.377C1480.4 782.447 1481.85 785.734 1481.52 789.238C1481.27 791.866 1480.04 793.848 1477.81 795.185C1475.47 796.51 1472.8 797.307 1469.79 797.574C1468.69 797.58 1468.09 798.021 1468.01 798.897C1467.83 799.653 1468.25 800.467 1469.27 801.337C1472.64 804.307 1475.12 807.25 1476.72 810.164C1478.33 813.078 1478.93 816.561 1478.55 820.613ZM1471.42 815.462C1471.68 812.615 1470.95 809.893 1469.2 807.297C1467.35 804.691 1464.8 802.461 1461.55 800.606C1458.3 798.751 1454.54 797.622 1450.27 797.217L1438.28 796.082C1436.2 795.885 1435.49 796.977 1436.15 799.36C1437.92 806.268 1440.77 811.786 1444.69 815.914C1448.51 819.922 1453.37 822.206 1459.29 822.766C1466.84 823.482 1470.89 821.047 1471.42 815.462ZM1516.11 767.017C1515.83 769.974 1514.57 772.23 1512.32 773.785C1510.18 775.351 1507.8 776.009 1505.17 775.76C1503.09 775.563 1501.4 774.795 1500.09 773.455C1498.78 772.116 1498.22 770.406 1498.42 768.325C1498.59 766.573 1499.09 765.35 1499.93 764.656C1500.77 763.962 1501.69 763.497 1502.71 763.262C1503.73 763.027 1504.63 762.781 1505.43 762.525C1506.23 762.27 1506.68 761.649 1506.77 760.663C1506.88 759.459 1506.11 758.28 1504.45 757.129C1502.9 755.988 1499.47 754.282 1494.16 752.011C1490.98 750.605 1488.2 749.678 1485.81 749.231C1483.43 748.674 1480.85 748.485 1478.07 748.664C1475.3 748.733 1471.89 749.238 1467.82 750.179L1409.12 762.686C1406.42 763.204 1404.65 763.81 1403.81 764.503C1402.98 765.088 1402.33 766.131 1401.86 767.633L1401.13 770.051C1400.67 771.443 1399.89 772.087 1398.8 771.984C1397.7 771.88 1397.23 771.062 1397.37 769.528L1399.94 742.425C1400.08 740.892 1400.7 740.177 1401.8 740.281C1403 740.395 1403.65 741.174 1403.73 742.618L1403.81 745.278C1403.89 747.937 1404.39 749.697 1405.3 750.557C1406.11 751.297 1407.76 751.397 1410.24 750.859L1459.74 740.962C1460.87 740.737 1461.46 740.296 1461.52 739.639C1461.6 738.872 1461.1 738.273 1460.04 737.841L1416.19 719.6C1413.31 718.444 1411.14 718.018 1409.68 718.321C1408.11 718.504 1406.98 719.944 1406.29 722.64L1405.3 726.027C1404.84 727.42 1404.06 728.064 1402.96 727.961C1401.87 727.857 1401.39 727.039 1401.54 725.505L1403.52 704.644C1403.66 703.111 1404.34 702.401 1405.54 702.515C1406.64 702.619 1407.34 703.349 1407.65 704.704L1408.01 706.229C1408.4 707.924 1409.25 709.386 1410.57 710.616C1411.89 711.846 1414.25 713.229 1417.64 714.765L1491.7 746.475C1499.14 749.61 1504.63 752.339 1508.17 754.663C1511.71 756.877 1513.95 758.912 1514.88 760.768C1515.92 762.635 1516.33 764.718 1516.11 767.017ZM1490.55 693.885C1490.12 698.484 1488.34 702.128 1485.21 704.815C1481.97 707.491 1477.94 708.602 1473.13 708.145C1468.42 707.699 1464.12 705.801 1460.24 702.45C1456.25 699.089 1452.8 694.674 1449.89 689.205C1446.99 683.737 1444.8 677.619 1443.34 670.851C1443.04 669.386 1442.18 668.586 1440.75 668.451L1425.81 667.036C1420.55 666.538 1416.75 667.007 1414.4 668.442C1411.95 669.867 1410.58 672.003 1410.31 674.85C1410.06 677.588 1411.08 680.226 1413.38 682.764C1415.58 685.182 1419.54 687.159 1425.25 688.695C1428.7 689.574 1431.16 691.022 1432.62 693.039C1433.99 694.937 1434.59 696.816 1434.41 698.678C1434.12 701.744 1432.44 703.132 1429.38 702.842C1426.2 702.541 1423.16 701.369 1420.26 699.327C1417.26 697.164 1414.64 694.486 1412.4 691.29C1410.06 688.085 1408.28 684.657 1407.08 681.008C1405.88 677.358 1405.44 673.781 1405.78 670.277C1406.8 659.435 1413.61 654.611 1426.21 655.804L1476.47 660.564C1481.07 660.999 1483.48 660.067 1483.7 657.768C1483.83 656.344 1483.03 654.942 1481.28 653.561C1479.42 652.169 1476.19 651.256 1471.59 650.82C1469.84 650.655 1469.03 649.86 1469.17 648.436C1469.29 647.122 1470.28 646.553 1472.15 646.729C1480.14 647.486 1485.81 649.46 1489.15 652.649C1492.4 655.719 1493.86 659.006 1493.52 662.51C1493.28 665.138 1492.04 667.121 1489.81 668.457C1487.48 669.782 1484.8 670.579 1481.8 670.847C1480.69 670.852 1480.1 671.293 1480.01 672.169C1479.83 672.926 1480.25 673.739 1481.27 674.609C1484.64 677.58 1487.12 680.522 1488.72 683.436C1490.33 686.35 1490.94 689.833 1490.55 693.885ZM1483.42 688.734C1483.69 685.887 1482.95 683.165 1481.21 680.569C1479.35 677.963 1476.8 675.733 1473.55 673.878C1470.3 672.023 1466.54 670.894 1462.27 670.489L1450.28 669.354C1448.2 669.157 1447.49 670.249 1448.15 672.632C1449.92 679.54 1452.77 685.058 1456.69 689.186C1460.51 693.194 1465.38 695.478 1471.29 696.038C1478.85 696.754 1482.89 694.319 1483.42 688.734ZM1504.54 546.155C1503.64 555.683 1496.82 561.169 1484.09 562.615L1465.5 564.667C1459.47 565.311 1454.85 566.255 1451.64 567.498C1448.44 568.631 1446.17 570.46 1444.82 572.984C1443.49 575.399 1442.61 578.852 1442.18 583.342C1442.04 584.875 1442.36 586.121 1443.16 587.08C1443.84 588.029 1444.78 588.56 1445.99 588.674L1487.05 592.563C1489.35 592.781 1490.98 592.493 1491.94 591.7C1492.79 590.897 1493.64 588.988 1494.47 585.973L1496.04 579.989C1496.37 578.805 1497.03 578.26 1498.01 578.353C1499.33 578.478 1499.91 579.361 1499.75 581.004L1496.59 614.35C1496.44 615.992 1495.76 616.757 1494.55 616.642C1493.57 616.549 1492.98 615.775 1492.78 614.32L1492.48 610.48C1492.26 608.139 1491.8 606.603 1491.1 605.874C1490.4 605.035 1488.91 604.506 1486.61 604.288L1390.02 595.141C1387.72 594.923 1386.15 595.161 1385.31 595.855C1384.48 596.44 1383.74 597.861 1383.08 600.119L1382.07 603.835C1381.61 605.228 1380.88 605.877 1379.9 605.784C1378.69 605.67 1378.17 604.792 1378.32 603.149L1381.48 569.803C1382.09 563.342 1383.9 557.712 1386.89 552.913C1389.89 548.114 1393.77 544.504 1398.52 542.082C1403.17 539.649 1408.4 538.708 1414.21 539.258C1421.11 539.911 1427.15 542.583 1432.34 547.273C1437.42 551.953 1440.81 557.578 1442.51 564.147C1442.66 564.934 1443 565.409 1443.54 565.57C1443.97 565.611 1444.39 565.265 1444.79 564.529C1446.77 561.18 1449.33 558.66 1452.47 556.969C1455.63 555.168 1459.72 553.954 1464.75 553.326L1481.85 551.298C1487.66 550.633 1491.84 549.593 1494.41 548.179C1496.97 546.764 1498.37 544.798 1498.61 542.279C1498.7 541.403 1498.66 540.626 1498.5 539.948C1498.25 539.15 1497.79 538.168 1497.12 537C1496.66 536.072 1496.63 535.24 1497.03 534.505C1497.32 533.759 1497.9 533.428 1498.78 533.511C1500.64 533.687 1502.17 535.047 1503.37 537.591C1504.45 540.125 1504.84 542.98 1504.54 546.155ZM1438.65 576.875C1439.36 569.428 1437.43 563.555 1432.86 559.256C1428.19 554.946 1421.69 552.397 1413.37 551.609C1405.26 550.841 1398.75 552.49 1393.84 556.554C1388.83 560.499 1385.95 566.359 1385.21 574.134C1384.66 579.939 1386.58 583.048 1390.96 583.463L1428.58 587.025C1434.6 587.596 1437.96 584.212 1438.65 576.875ZM1406.22 509.825C1406 512.124 1404.99 514.018 1403.2 515.505C1401.41 516.882 1399.26 517.452 1396.74 517.213C1394.22 516.975 1392.26 516.016 1390.88 514.338C1389.39 512.54 1388.75 510.491 1388.97 508.191C1389.19 505.892 1390.19 504.053 1391.98 502.675C1393.66 501.287 1395.76 500.713 1398.28 500.951C1400.8 501.19 1402.8 502.153 1404.3 503.842C1405.8 505.531 1406.44 507.525 1406.22 509.825ZM1504.29 533.035C1504.14 534.677 1503.46 535.442 1502.25 535.327C1501.27 535.234 1500.68 534.46 1500.48 533.005L1500.34 531.003C1500.16 528.224 1499.67 526.409 1498.87 525.56C1497.96 524.7 1496.35 524.161 1494.05 523.943L1438.86 518.716C1436.89 518.53 1435.54 518.734 1434.82 519.329C1434 519.804 1433.41 520.797 1433.05 522.31L1432.23 525.713C1431.98 527.126 1431.31 527.781 1430.22 527.677C1429.34 527.594 1428.82 526.661 1428.66 524.877C1428.44 521.431 1427.82 518.61 1426.81 516.415C1425.8 514.221 1424.52 512.055 1422.95 509.918C1422.06 508.839 1421.64 507.971 1421.71 507.314C1421.8 506.328 1422.5 505.897 1423.82 506.022L1495.11 512.773C1497.41 512.991 1499.08 512.818 1500.13 512.254C1501.18 511.691 1501.9 510.488 1502.29 508.647L1503.18 504.587C1503.51 503.404 1504.17 502.858 1505.15 502.952C1506.47 503.076 1507.05 503.96 1506.89 505.602L1504.29 533.035ZM1511.79 469.66C1511.69 470.646 1511.02 471.301 1509.78 471.625L1435.27 486.612C1432.57 487.129 1430.8 487.735 1429.96 488.429C1429.13 489.014 1428.48 490.057 1428 491.559L1427.28 493.976C1426.82 495.369 1426.04 496.013 1424.94 495.909C1423.85 495.806 1423.37 494.987 1423.52 493.454L1426.08 466.35C1426.23 464.817 1426.85 464.103 1427.94 464.206C1429.15 464.32 1429.79 465.1 1429.88 466.544L1429.96 469.203C1430.04 471.863 1430.54 473.568 1431.46 474.318C1432.27 475.058 1433.92 475.213 1436.39 474.785L1485.15 465.646C1486.39 465.432 1487.04 464.941 1487.11 464.175C1487.19 463.408 1486.64 462.804 1485.46 462.361L1442.21 444.84C1439.33 443.684 1437.16 443.257 1435.7 443.561C1434.13 443.744 1433 445.184 1432.31 447.88L1431.32 451.267C1430.86 452.66 1430.08 453.304 1428.99 453.2C1427.89 453.097 1427.42 452.278 1427.56 450.745L1429.54 429.884C1429.68 428.35 1430.36 427.641 1431.56 427.755C1432.66 427.859 1433.36 428.588 1433.67 429.944L1434.03 431.469C1434.42 433.163 1435.27 434.68 1436.58 436.02C1437.9 437.25 1440.26 438.578 1443.66 440.005L1510.18 467.354C1511.35 467.906 1511.88 468.675 1511.79 469.66ZM1517.68 407.427C1517.18 412.684 1514.99 417.227 1511.09 421.056C1507.19 424.886 1501.94 427.759 1495.35 429.676C1488.66 431.474 1481.1 431.973 1472.67 431.174C1464.02 430.355 1456.53 428.375 1450.2 425.234C1443.86 422.093 1439.04 418.156 1435.74 413.423C1432.43 408.69 1431.03 403.64 1431.54 398.274C1432.15 391.813 1435.32 386.866 1441.06 383.432C1446.7 379.877 1455.49 378.666 1467.43 379.796C1471.04 380.138 1472.72 381.678 1472.46 384.416L1469.5 415.626C1469.3 417.817 1470.45 419.031 1472.97 419.27C1484.58 420.369 1493.45 419.496 1499.57 416.651C1505.7 413.806 1509.01 409.755 1509.51 404.498C1509.9 400.337 1508.74 396.802 1506.04 393.894C1503.33 390.986 1498.55 388.378 1491.69 386.072C1490.52 385.629 1489.99 384.86 1490.09 383.765C1490.21 382.451 1491.36 382.062 1493.51 382.598C1503.09 385.273 1509.67 388.714 1513.25 392.92C1516.72 397.116 1518.2 401.952 1517.68 407.427ZM1465.35 415.73L1466.92 399.14C1467.42 393.883 1464.93 390.996 1459.45 390.477C1452.34 389.803 1446.67 390.15 1442.45 391.518C1438.23 392.887 1435.96 395.323 1435.63 398.828C1435.22 403.098 1437.34 406.946 1441.99 410.369C1446.65 413.683 1453.48 416.209 1462.49 417.945C1464.22 418.33 1465.17 417.592 1465.35 415.73ZM1447.88 348.2C1440.64 342.984 1437.32 337.2 1437.92 330.849C1438.26 327.235 1439.61 324.656 1441.97 323.111C1444.21 321.556 1446.65 320.903 1449.28 321.152C1451.36 321.349 1453.01 322.057 1454.22 323.276C1455.44 324.387 1455.94 326.037 1455.74 328.227C1455.57 329.979 1455.06 331.257 1454.21 332.06C1453.27 332.744 1452.22 333.308 1451.07 333.751C1449.93 334.086 1448.95 334.545 1448.12 335.13C1447.18 335.704 1446.64 336.757 1446.5 338.291C1446.31 340.262 1447.34 342.237 1449.58 344.218C1451.72 346.188 1454.7 347.962 1458.53 349.54C1462.36 351.008 1466.8 351.981 1471.84 352.458L1509.95 356.067C1512.25 356.285 1513.92 356.112 1514.97 355.548C1516.03 354.875 1516.78 353.399 1517.21 351.12L1518.13 346.731C1518.46 345.547 1519.12 345.002 1520.1 345.096C1521.42 345.22 1522 346.104 1521.84 347.746L1519.21 375.507C1519.06 377.15 1518.38 377.914 1517.17 377.8C1516.19 377.706 1515.6 376.932 1515.4 375.478L1515.26 373.475C1515.04 371.134 1514.52 369.594 1513.71 368.854C1512.8 367.994 1511.19 367.455 1508.89 367.237L1453.7 362.01C1451.73 361.823 1450.38 362.027 1449.66 362.622C1448.84 363.097 1448.25 364.091 1447.89 365.603L1447.07 369.006C1446.82 370.42 1446.15 371.074 1445.06 370.971C1444.18 370.888 1443.66 369.954 1443.5 368.171C1443.28 364.725 1442.64 362.068 1441.6 360.202C1440.58 358.226 1439.28 356.17 1437.71 354.033C1436.82 352.954 1436.41 352.086 1436.47 351.429C1436.56 350.443 1437.27 350.012 1438.58 350.137L1447.45 350.977C1448.22 351.05 1448.74 350.768 1449.02 350.131C1449.19 349.485 1448.81 348.841 1447.88 348.2Z" fill="black"/>
</g>
<defs>
<clipPath id="clip0_612_125">
<rect width="1665" height="1665" fill="white"/>
</clipPath>
</defs>
</svg>
