<svg width="1665" height="1665" viewBox="0 0 1665 1665" fill="none" xmlns="http://www.w3.org/2000/svg">
<rect width="1665" height="1665" fill="white"/>
<path d="M343.447 563.83C338.534 574.215 341.537 581.449 363.224 605.415L388.987 634.948L378.291 678.129C372.778 702.264 365.987 723.81 363.397 725.089C360.956 727.052 353.629 749.431 346.748 773.863C323.896 863.41 263.158 963.331 226.88 971.205C211.136 974.622 211.136 974.622 177.084 900.294C140.177 819.417 114.049 817.92 135.154 898.643C152.751 966.507 241.554 1061.93 286.46 1060.78C317.231 1060.55 371.402 1029.44 443.257 970.833C479.869 941.381 511.064 916.69 512.433 916.392C513.802 916.095 512.311 925.738 508.677 938.713C501.944 963.83 510.143 1011.51 524.72 1029.14C539.981 1046.61 578.403 1035.4 611.683 1003.81C644.279 972.361 687.348 942.941 705.83 938.93C722.942 935.216 737.519 952.84 744.949 987.069C755.647 1036.36 783.744 1023.81 780.813 970.682C780.134 954.343 781.391 930.414 783.805 918.421C786.07 905.743 790.601 880.387 793.582 861.102C797.1 840.984 801.509 824.974 803.563 824.528C813.146 822.448 943.171 893.148 947.454 902.971C950.011 908.151 945.125 928.566 937.591 946.689C920.23 985.582 921.949 1006.71 941.8 1002.41C975.34 995.125 1013.48 933.084 998.399 909.834C984.151 887.121 1029.28 840.767 1074.99 830.128C1092.1 826.413 1099.84 829.035 1108.97 841.39C1118.94 854.28 1119.74 861.275 1113.87 880.469C1106.31 905.05 1108.32 927.551 1119.1 930.948C1127.66 934.106 1137.25 915.537 1151.22 870.929C1168.74 816.232 1190.65 794.989 1266.09 762.842C1325.03 737.148 1345.56 732.691 1358.65 743.469C1367.28 750.198 1367.72 752.252 1360.88 753.738C1356.09 754.778 1331.23 772.359 1305.61 792.975C1280.13 814.276 1250.93 834.951 1241.25 839.918C1223.81 848.721 1220.59 870.208 1237.7 866.494C1247.29 864.414 1364.47 780.198 1384.09 761.603C1398.82 746.935 1393.86 720.773 1376.34 715.975C1339.91 706.676 1304.77 716.456 1211.01 763.329C1186.49 775.821 1153.21 807.417 1142.69 828.336C1136.56 839.703 1135.88 839.851 1133.8 830.267C1132.46 824.106 1121.72 814.251 1109.67 808.265C1080.03 793.909 1043.43 806.873 1001.07 846.174L969.394 875.27L943.866 860.023C929.852 851.596 904.769 838.402 887.332 830.718C810.386 796.524 788.937 770.356 797.76 721.846C803.453 691.937 789.724 625.384 773.067 598.175C753.019 565.251 722.105 548.306 693.356 554.546C658.446 562.123 648.683 569.977 641.265 595.243C630.659 635.537 647.19 688.579 683.512 733.741C701.034 755.027 723.793 777.327 734.177 782.241C746.079 787.543 754.081 797.993 756.904 811C761.214 830.853 759.672 912.907 755.533 920.256C753.777 922.071 745.356 919.598 736.34 914.387C714.292 901.968 684.976 915.5 613.062 970.535C581.719 994.542 552.758 1013.01 548.889 1011.7C538.802 1008.16 537.199 994.17 541.294 933.784C546.195 863.904 538.013 859.228 486.368 901.978C466.455 919.204 446.005 937.263 441.569 943.243C428.649 959.668 323.311 1029.13 306.199 1032.84C291.14 1036.11 241.271 1011.09 238.596 998.769C237.853 995.346 246.396 988.474 257.438 983.21C283.63 971.79 357.198 858.332 369.205 811.282C373.704 792.385 382.432 763.25 388.061 746.258C394.375 729.117 401.793 703.852 405.963 690.043C413.232 664.093 422.311 656.388 426.025 673.503C427.214 678.979 433.046 682.731 439.206 681.394C448.105 679.463 448.582 675.058 440.463 657.466C435.199 646.422 425.058 622.817 419.141 605.464C401.062 558.493 358.781 535.412 343.447 563.83ZM385.903 597.625C383.611 600.273 381.111 598.665 380.071 593.873C379.031 589.081 380.639 586.581 383.823 588.041C386.471 590.333 387.362 594.441 385.903 597.625ZM735.005 597.835C751.041 612.275 755.621 623.467 767.121 679.752C782.543 757.407 778.76 769.697 744.067 748.554C707.708 726.339 674.007 673.44 671.162 633.914C667.722 591.651 669.569 586.949 694.805 584.339C708.792 582.736 722.748 587.592 735.005 597.835Z" fill="black"/>
<path d="M1458.64 943.268C1457.72 945.619 1421.35 956.38 1378.82 968.478C1109.51 1041.99 975.672 1082.51 884.628 1118.76C798.079 1152.6 807.901 1148.31 635.037 1230.28C620.036 1237.12 618.126 1254.74 632.082 1259.59C635.95 1260.9 650.712 1256.27 663.659 1249.87C677.142 1242.64 724.436 1219.48 769.14 1197.59C870.96 1148.25 911.229 1132.34 1057.24 1088.46C1083.49 1080.61 1133.1 1064.82 1167.8 1052.99C1248.16 1026.95 1326.67 1005.6 1451.73 974.159C1559.14 947.261 1567.05 944.109 1563.78 929.048C1562.3 922.202 1550.07 921.99 1511.59 929.625C1483.37 935.032 1459.71 941.601 1458.64 943.268Z" fill="black"/>
</svg>
