<?xml version="1.0" encoding="UTF-8"?>
<svg id="Layer_2" data-name="Layer 2" xmlns="http://www.w3.org/2000/svg" viewBox="0 0 297.36 71.86">
  <defs>
    <style>
      .cls-1, .cls-2 {
        fill: #f8c235;
      }

      .cls-3 {
        fill: #fff;
      }

      .cls-4 {
        fill: #a57f2d;
      }

      .cls-5 {
        fill: #1a458b;
      }

      .cls-2 {
        opacity: .99;
      }
    </style>
  </defs>
  <g id="Layer_1-2" data-name="Layer 1">
    <path class="cls-3" d="m97.75,22.42c-.01-.06-.03-.19-.07-.39-.03-.2-.08-.46-.13-.77-.05-.31-.11-.67-.17-1.06-.06-.4-.13-.83-.2-1.28-.07-.46-.14-.94-.21-1.44-.07-.5-.14-1-.21-1.51-.07-.51-.13-1.01-.19-1.5-.06-.5-.11-.97-.15-1.42-.02-.16-.04-.34-.06-.54-.02-.2-.03-.4-.03-.6,0-.2-.01-.39-.02-.58,0-.19,0-.34,0-.47-.05.14-.1.31-.15.51-.05.2-.1.41-.15.62-.05.22-.1.43-.16.65-.05.21-.11.41-.17.58-.17.46-.35.94-.54,1.44-.19.5-.38,1.02-.58,1.53-.2.52-.4,1.03-.59,1.53-.19.5-.38.99-.56,1.45-.18.46-.35.89-.5,1.28-.15.39-.28.73-.4,1.02-.11.29-.2.51-.27.68-.06.16-.1.25-.1.25h-2.21c-.15-.38-.32-.8-.5-1.25-.18-.45-.37-.93-.57-1.43-.2-.5-.4-1.02-.61-1.56-.21-.54-.42-1.08-.63-1.64-.21-.56-.42-1.11-.62-1.68-.2-.56-.4-1.12-.59-1.67-.06-.17-.12-.36-.17-.58-.05-.21-.11-.43-.16-.64-.05-.21-.1-.42-.15-.62-.05-.2-.1-.37-.15-.53-.01.13-.02.29-.03.47,0,.19-.02.39-.03.59,0,.21-.02.42-.04.63-.02.21-.04.4-.06.57-.06.6-.14,1.23-.23,1.9-.09.67-.18,1.34-.27,2-.09.66-.19,1.3-.28,1.92-.09.62-.17,1.17-.25,1.66-.08.49-.14.9-.2,1.22-.05.33-.09.53-.1.62h-2.61l2.55-16.48h2.05c.38,1.05.75,2.04,1.1,2.99.36.94.7,1.84,1.02,2.7.17.48.34.95.52,1.43.17.47.34.93.5,1.37.16.44.31.85.46,1.23.14.38.27.72.38,1.02.11.3.21.54.28.73.08.19.13.31.15.36.02.07.04.15.07.24.03.09.05.19.08.3.03.11.06.22.09.32.03.11.06.21.09.31.02-.1.04-.2.07-.31.03-.11.05-.22.08-.32.03-.11.05-.21.08-.3.02-.09.05-.17.07-.24,0-.05.05-.17.11-.36.07-.19.15-.43.26-.73.11-.29.23-.63.38-1.02.14-.38.3-.79.46-1.23s.34-.89.52-1.37c.18-.48.37-.95.55-1.43.32-.86.66-1.76,1-2.7.35-.94.72-1.94,1.12-2.99h2.09l2.54,16.48h-2.64Z"/>
    <path class="cls-3" d="m113.48,22.45c-.12.08-.27.15-.44.2-.17.05-.36.08-.56.08-.2,0-.4-.02-.61-.08-.21-.06-.41-.15-.59-.27-.19-.13-.36-.29-.52-.51-.15-.21-.28-.47-.37-.77-.5.48-1.05.85-1.65,1.11-.6.26-1.19.42-1.79.48-.6.06-1.18.02-1.73-.11-.56-.13-1.05-.35-1.48-.66-.43-.31-.78-.69-1.03-1.16-.26-.47-.39-1.01-.39-1.62s.09-1.15.28-1.63c.18-.48.45-.9.79-1.26.34-.36.75-.67,1.23-.92.48-.25,1.01-.46,1.59-.61.58-.16,1.21-.27,1.88-.34.67-.07,1.37-.11,2.11-.11-.04-.08-.07-.19-.08-.33-.02-.14-.03-.27-.04-.41,0-.14-.01-.26,0-.36,0-.11,0-.17,0-.2,0-.21-.08-.42-.23-.61-.15-.2-.37-.37-.65-.52-.28-.15-.62-.26-1.02-.34-.4-.08-.85-.1-1.35-.07-.5.03-1.04.12-1.62.27-.58.15-1.2.38-1.85.69l-.55-1.79c.44-.24.91-.45,1.42-.64.51-.18,1.03-.33,1.57-.43.53-.1,1.07-.17,1.61-.19.54-.02,1.05,0,1.55.07.5.07.96.2,1.38.37.43.18.8.41,1.12.7.31.29.56.64.74,1.06.18.42.27.9.27,1.45v6.84c0,.76.45,1.15,1.36,1.15l-.33,1.48Zm-3.26-6.77c-.94.09-1.76.22-2.45.39-.69.17-1.25.39-1.69.65-.44.26-.77.57-.99.92-.21.35-.32.76-.32,1.21,0,.33.07.6.21.84.14.24.34.43.58.58.25.15.54.25.88.31.34.06.7.07,1.09.04.39-.04.8-.12,1.23-.25.43-.13.86-.31,1.3-.55v-3.51c0-.08.01-.17.04-.28.03-.1.06-.23.11-.36"/>
    <path class="cls-3" d="m124.7,22.42v-8.2c0-.59-.1-1.09-.31-1.5-.2-.41-.47-.72-.81-.94-.33-.22-.72-.35-1.14-.39-.43-.04-.87.01-1.32.16-.45.14-.9.38-1.34.71-.44.33-.83.75-1.19,1.26v8.89h-2.39V3.75h2.39v6.44c0,.14,0,.33-.02.59-.01.25-.06.59-.13,1.02l.09.03c.35-.53.74-.97,1.18-1.32.43-.35.88-.63,1.35-.83.47-.2.94-.32,1.42-.37.48-.05.94-.03,1.38.06.45.09.86.24,1.25.47.39.22.73.5,1.02.84.29.34.52.73.69,1.17.17.45.25.94.25,1.49v9.08h-2.36Z"/>
    <path class="cls-3" d="m131.73,6.69c-.34,0-.63-.07-.86-.23-.23-.15-.4-.34-.51-.56-.11-.22-.17-.47-.17-.73s.06-.5.17-.73c.12-.22.29-.41.51-.56.23-.15.51-.23.86-.23s.62.08.85.23c.22.15.39.34.51.56.11.22.17.47.17.73s-.06.5-.17.73c-.11.22-.28.41-.51.56-.22.15-.51.23-.85.23m-1.18,2.9h2.39v12.83h-2.39v-12.83Z"/>
    <path class="cls-3" d="m148.58,22.44c-.12.08-.26.14-.43.19-.17.05-.35.07-.54.08-.19,0-.39-.02-.6-.06-.21-.05-.4-.13-.59-.24-.19-.12-.36-.27-.51-.46-.15-.19-.28-.43-.37-.71-.06.11-.19.25-.38.42-.19.17-.43.33-.71.48-.28.15-.59.28-.94.39-.35.11-.7.16-1.06.16-.87.02-1.63-.04-2.3-.21-.66-.16-1.24-.4-1.73-.71-.49-.31-.9-.68-1.23-1.11-.33-.43-.59-.91-.8-1.42-.2-.51-.35-1.05-.43-1.61-.09-.56-.13-1.13-.13-1.71,0-1.02.17-1.94.5-2.75.33-.81.79-1.51,1.37-2.07.58-.57,1.27-1.01,2.05-1.31.79-.31,1.63-.46,2.54-.46.29,0,.57.01.81.04.24.03.48.07.71.13.23.06.47.14.7.25.24.11.5.24.78.39-.04-.14-.07-.23-.09-.29-.02-.05-.03-.1-.04-.15,0-.04-.02-.1-.02-.17,0-.07,0-.18,0-.34V3.75h2.42v16.06c0,.76.45,1.15,1.36,1.15l-.33,1.48Zm-3.26-3.2c-.04-.16-.07-.28-.09-.36-.02-.09-.03-.16-.04-.22-.01-.06-.02-.11-.02-.16,0-.05,0-.12,0-.2v-4.99c0-.08,0-.16,0-.22,0-.06.01-.13.02-.2,0-.07.02-.15.05-.23.02-.08.05-.19.08-.31-.21-.19-.44-.34-.69-.46-.25-.12-.51-.22-.77-.29-.26-.07-.51-.12-.75-.15-.24-.03-.45-.04-.63-.04-.55,0-1.04.09-1.47.26-.44.17-.82.4-1.14.7-.32.29-.6.64-.81,1.03-.22.39-.38.81-.48,1.25-.11.44-.16.89-.16,1.36s.05.92.16,1.36c.11.44.27.86.48,1.25.21.39.48.74.79,1.03.31.29.68.53,1.1.7.42.17.89.26,1.41.26.33,0,.64-.04.93-.11.3-.07.57-.17.83-.3.25-.12.48-.27.69-.43.2-.16.38-.33.52-.52"/>
    <path class="cls-3" d="m157.02,22.69c-.9,0-1.71-.12-2.41-.37-.71-.25-1.33-.59-1.85-1.01-.53-.43-.96-.93-1.3-1.5-.34-.57-.6-1.18-.76-1.82-.16-.64-.24-1.3-.23-1.98,0-.68.11-1.34.29-1.98.19-.64.45-1.25.81-1.82.35-.57.79-1.07,1.31-1.5.52-.43,1.12-.77,1.8-1.02.68-.25,1.45-.37,2.29-.37s1.65.12,2.34.37c.69.25,1.3.59,1.83,1.02.52.43.96.93,1.32,1.5s.62,1.18.8,1.82c.18.64.27,1.3.28,1.98,0,.68-.08,1.34-.24,1.98-.17.64-.42,1.25-.77,1.82-.35.57-.78,1.07-1.3,1.5-.52.43-1.13.77-1.83,1.01-.7.25-1.49.37-2.36.37m.21-1.93c.55,0,1.03-.09,1.45-.27.42-.18.79-.42,1.09-.72.3-.3.55-.66.74-1.06.19-.41.33-.84.41-1.29.08-.45.11-.92.08-1.41-.03-.48-.11-.95-.24-1.41-.13-.46-.32-.89-.55-1.29-.23-.41-.52-.76-.85-1.06-.33-.3-.71-.54-1.14-.72-.43-.18-.9-.26-1.41-.26-.56,0-1.05.09-1.48.26-.43.18-.8.42-1.12.72s-.57.66-.77,1.06c-.2.41-.34.84-.43,1.29-.08.46-.11.92-.08,1.41.03.48.11.95.24,1.41.13.46.32.89.56,1.29.24.41.53.76.87,1.06.34.3.73.54,1.17.72.44.18.92.27,1.46.27"/>
    <rect class="cls-3" x="166.39" y="3.75" width="2.39" height="18.66"/>
    <path class="cls-3" d="m189.54,16.21c0,.58-.07,1.15-.2,1.69-.14.55-.33,1.06-.6,1.54-.26.48-.58.92-.96,1.33-.38.4-.81.75-1.3,1.03-.48.29-1.02.51-1.61.67-.59.16-1.22.24-1.89.24s-1.26-.08-1.84-.23c-.58-.15-1.11-.37-1.6-.65-.49-.28-.93-.62-1.32-1.02-.39-.4-.72-.84-.99-1.32-.27-.48-.48-1-.62-1.57-.14-.56-.22-1.15-.22-1.76V5.93h2.48v10.49c0,.36.05.71.15,1.05.1.34.24.65.42.94.18.29.4.55.65.79.25.24.53.44.84.61.31.17.63.3.98.4.34.09.7.14,1.07.14s.73-.05,1.07-.14c.34-.09.67-.23.97-.4.31-.17.58-.37.84-.61.25-.24.47-.5.65-.79s.32-.6.42-.94c.1-.33.15-.68.15-1.05V5.93h2.45v10.28Z"/>
    <path class="cls-3" d="m201.7,22.42v-8.53c0-.46-.09-.86-.27-1.22-.18-.35-.42-.64-.73-.86-.3-.22-.66-.35-1.07-.42-.41-.06-.83-.03-1.29.09-.45.12-.91.34-1.38.66-.47.32-.92.76-1.35,1.32v8.95h-2.39v-9.86c0-.27-.03-.49-.09-.66-.06-.18-.13-.32-.22-.43-.09-.11-.19-.19-.29-.25-.11-.05-.22-.09-.33-.11-.11-.02-.21-.03-.3-.03h-.22l.33-1.51c.48-.18.93-.26,1.35-.25.42.02.79.11,1.11.29.32.17.57.42.76.73s.28.67.28,1.08l.09.06c.29-.41.63-.77,1.03-1.07.4-.3.82-.53,1.27-.71.45-.17.91-.28,1.38-.33.47-.05.94-.03,1.39.04.45.08.88.22,1.28.42.4.2.75.48,1.05.81.3.34.54.74.72,1.21.18.47.27,1.01.27,1.61v8.95h-2.39Z"/>
    <path class="cls-3" d="m208.75,6.69c-.34,0-.63-.07-.86-.23-.23-.15-.4-.34-.51-.56-.11-.22-.17-.47-.17-.73s.06-.5.17-.73c.12-.22.29-.41.51-.56.23-.15.51-.23.86-.23s.62.08.85.23c.22.15.39.34.51.56.11.22.17.47.17.73s-.06.5-.17.73c-.11.22-.28.41-.51.56-.22.15-.51.23-.85.23m-1.18,2.9h2.39v12.83h-2.39v-12.83Z"/>
    <path class="cls-3" d="m219.55,22.42h-2.33l-4.96-12.53,2.3-.58,3.33,8.41c.1.27.17.5.23.7.05.2.09.38.12.55.03.17.05.32.07.46.02.14.05.29.09.44.04-.15.07-.3.09-.44.02-.14.04-.3.07-.46.03-.16.07-.35.13-.55.06-.2.14-.43.26-.7l3.39-8.41,2.3.58-5.08,12.53Z"/>
    <path class="cls-3" d="m236.95,16.12h-8.41c0,.62.08,1.17.25,1.65.16.48.39.91.66,1.27.28.36.6.66.98.89.37.23.77.4,1.19.51.42.11.85.16,1.29.14.44-.01.87-.09,1.29-.23.42-.14.81-.34,1.18-.6.37-.26.69-.58.96-.97l1.15,1.61c-.35.48-.78.89-1.29,1.23-.51.34-1.07.6-1.67.78-.6.19-1.23.29-1.88.31-.65.02-1.29-.05-1.92-.2-.63-.15-1.22-.4-1.79-.73-.56-.34-1.06-.77-1.49-1.31-.43-.53-.77-1.17-1.02-1.9-.25-.73-.38-1.58-.38-2.53,0-.56.06-1.12.17-1.67.11-.55.28-1.07.5-1.57.22-.5.51-.96.85-1.39.35-.43.75-.79,1.21-1.1.47-.31,1-.55,1.59-.73.59-.18,1.25-.27,1.97-.27.65,0,1.24.07,1.77.21.53.14,1,.34,1.4.59.41.25.76.55,1.06.9.3.35.54.72.73,1.12.19.4.34.83.43,1.27.09.45.14.89.14,1.35l-.94,1.36Zm-1.3-1.69c-.05-.4-.15-.76-.3-1.07-.14-.31-.32-.57-.51-.8-.2-.22-.41-.41-.64-.56-.23-.15-.46-.27-.69-.36-.23-.09-.45-.16-.66-.19-.21-.04-.4-.05-.55-.05-.48,0-.93.09-1.35.27-.42.18-.78.41-1.09.69-.31.29-.56.61-.75.97-.19.36-.31.73-.35,1.1h6.9Z"/>
    <path class="cls-3" d="m247.81,11.89c-.47-.22-.91-.33-1.3-.34-.39-.01-.75.05-1.07.18-.32.13-.61.31-.87.54-.26.23-.49.48-.69.73-.2.26-.38.51-.54.77s-.29.46-.42.64c.02.1.04.18.06.25.02.07.03.14.04.2,0,.06.01.13.02.19,0,.06,0,.14,0,.22v7.14h-2.39v-9.62c0-.25-.03-.48-.08-.69-.06-.21-.14-.39-.25-.54-.11-.15-.25-.27-.42-.36-.17-.09-.37-.13-.61-.13l.33-1.51c.12-.08.29-.14.5-.2.21-.05.44-.08.68-.07.25.01.5.06.75.16.25.09.48.25.68.46s.37.5.5.85c.13.35.19.8.19,1.34l.09.03c.07-.11.16-.26.27-.43.11-.18.23-.36.37-.56.14-.2.3-.4.48-.61.18-.2.38-.39.6-.56.22-.17.46-.31.72-.43.26-.12.54-.19.85-.21.3-.02.63,0,.98.09.35.08.72.24,1.12.48l-.58,2Z"/>
    <path class="cls-3" d="m258.89,18.91c-.04.67-.2,1.25-.48,1.74-.28.5-.65.9-1.11,1.22-.46.32-.99.55-1.59.69-.6.14-1.25.2-1.94.17-.69-.03-1.4-.16-2.15-.37-.74-.21-1.48-.51-2.2-.91l.72-1.91c.43.27.88.49,1.35.66.46.17.92.28,1.37.35.45.06.88.08,1.29.04.41-.04.78-.12,1.1-.26.32-.14.58-.32.79-.55.2-.23.33-.51.37-.84.02-.28-.02-.53-.14-.74-.12-.21-.29-.41-.51-.57-.22-.17-.48-.32-.77-.46-.3-.14-.61-.27-.95-.41-.33-.13-.68-.27-1.03-.41-.35-.14-.69-.29-1.02-.46-.33-.17-.63-.36-.91-.58-.28-.21-.51-.46-.7-.75-.19-.28-.32-.61-.41-.97-.08-.36-.08-.78-.01-1.25.06-.5.22-.94.46-1.34.24-.39.56-.72.94-.98.38-.26.83-.45,1.35-.58.52-.12,1.08-.16,1.69-.12.61.04,1.27.17,1.96.38.69.22,1.42.53,2.16.94l-.49,1.66c-.38-.18-.78-.34-1.2-.48-.41-.14-.82-.26-1.22-.34-.4-.09-.79-.14-1.15-.15-.37-.02-.69.02-.98.1-.29.08-.52.22-.71.42-.19.2-.3.46-.34.79-.05.33.02.61.18.83.17.22.4.42.71.59.3.17.65.33,1.06.47.4.14.81.29,1.23.45.42.16.83.35,1.24.55.41.21.76.46,1.07.76.31.3.55.66.73,1.08.18.42.25.93.22,1.52"/>
    <path class="cls-3" d="m263.6,6.69c-.34,0-.63-.07-.86-.23-.23-.15-.4-.34-.51-.56-.12-.22-.17-.47-.17-.73s.06-.5.17-.73c.12-.22.29-.41.51-.56.23-.15.51-.23.86-.23s.62.08.85.23c.22.15.39.34.51.56.11.22.17.47.17.73s-.06.5-.17.73c-.11.22-.28.41-.51.56-.22.15-.51.23-.85.23m-1.18,2.9h2.39v12.83h-2.39v-12.83Z"/>
    <path class="cls-3" d="m274.74,22.14c-.78.29-1.47.47-2.07.55-.61.08-1.14.08-1.6,0-.46-.08-.85-.22-1.16-.44-.32-.22-.58-.49-.77-.81-.2-.32-.34-.68-.43-1.08-.09-.4-.13-.82-.13-1.25v-6.93c0-.06,0-.13.01-.22,0-.09.02-.17.04-.26.02-.09.04-.17.07-.26.02-.08.06-.15.1-.2-.05.02-.12.04-.2.05-.08.01-.16.02-.24.03-.08,0-.16.01-.24.01h-1.17v-1.33c.41-.01.76-.06,1.04-.13.28-.07.51-.17.69-.31.18-.13.33-.3.43-.5.11-.2.19-.44.26-.72.07-.28.13-.6.19-.96.06-.36.12-.77.2-1.22h1.3l-.06,3.12s0,.06-.01.12c0,.05-.02.11-.03.17-.01.06-.03.12-.05.17-.02.06-.04.09-.06.11.04-.02.08-.02.12-.03.03,0,.07-.01.12-.03.11-.01.2-.03.28-.04.08-.01.14-.02.18-.02h2.57v1.6h-2.6c-.12,0-.23,0-.32,0-.09,0-.21-.02-.34-.06.02.03.04.08.06.16.02.08.03.16.04.25,0,.09.01.18.02.27,0,.09,0,.17,0,.23v6.56c0,.42.06.77.18,1.06.12.29.32.51.59.65.27.15.62.21,1.06.21.43,0,.97-.1,1.6-.28l.36,1.75Z"/>
    <path class="cls-3" d="m281.55,23.74c-.36.89-.77,1.65-1.21,2.27-.45.63-.95,1.13-1.51,1.49-.56.36-1.18.59-1.86.67-.68.09-1.44.03-2.29-.17l.49-2.15c.4.14.77.21,1.09.21.33,0,.62-.04.88-.13.26-.09.5-.22.7-.39.2-.17.39-.36.55-.57.16-.21.31-.44.44-.67.12-.24.24-.47.35-.69.11-.23.22-.47.32-.74.11-.26.24-.58.41-.96l-4.69-12.04,2.3-.58,3.03,8.02c.02.05.05.14.1.27.04.13.09.27.14.44.05.17.11.35.17.55.06.2.12.4.17.61h.09c.05-.21.11-.41.16-.6.05-.19.1-.37.15-.54.05-.17.09-.31.13-.45.04-.13.08-.24.11-.33l3.18-7.99,2.24.61-5.63,13.82Z"/>
    <rect class="cls-3" x="82.03" y="33.75" width="1.7" height="11.17"/>
    <path class="cls-3" d="m92.06,44.92v-5.78c0-.31-.06-.58-.18-.83-.12-.24-.29-.43-.49-.58-.21-.15-.45-.24-.72-.28-.28-.04-.57-.02-.87.06-.31.08-.62.23-.93.45-.32.22-.62.52-.92.89v6.07h-1.62v-6.68c0-.18-.02-.33-.06-.45-.04-.12-.09-.22-.15-.29-.06-.07-.13-.13-.2-.17-.07-.04-.15-.06-.22-.08-.07-.01-.14-.02-.2-.02h-.15l.23-1.02c.32-.12.63-.18.92-.17.29.01.54.08.76.19.22.12.39.28.52.49.13.21.19.45.19.73l.06.04c.2-.28.43-.52.7-.72.27-.2.56-.36.86-.48.3-.12.62-.19.94-.23.32-.03.63-.02.94.03.31.05.6.15.87.29.27.14.51.32.71.55.2.23.36.5.48.82.12.32.18.68.18,1.09v6.07h-1.62Z"/>
    <path class="cls-3" d="m101.96,42.54c-.03.45-.13.84-.33,1.18-.19.34-.44.61-.75.83-.31.22-.67.37-1.08.47-.41.1-.85.14-1.31.11-.47-.02-.95-.11-1.45-.25-.5-.14-1-.35-1.49-.61l.49-1.29c.29.18.6.33.91.44.32.11.62.19.93.23.31.04.6.05.87.03.28-.03.53-.08.74-.18.22-.09.39-.21.53-.37.14-.16.22-.35.25-.57.02-.19-.01-.36-.09-.5-.08-.14-.19-.27-.34-.39-.15-.11-.32-.22-.52-.31-.2-.09-.42-.18-.64-.27-.23-.09-.46-.18-.7-.28-.24-.09-.47-.2-.69-.31-.22-.12-.43-.25-.62-.39-.19-.14-.35-.31-.48-.5-.13-.19-.22-.41-.27-.66-.06-.25-.06-.53,0-.85.04-.34.15-.64.31-.91.16-.27.38-.49.64-.67.26-.18.56-.31.91-.39.35-.08.73-.11,1.15-.08.42.03.86.11,1.33.26.47.15.96.36,1.47.64l-.33,1.13c-.26-.12-.53-.23-.81-.32-.28-.1-.56-.18-.83-.23-.27-.06-.53-.09-.78-.1-.25-.01-.47.01-.66.07-.19.05-.35.15-.48.28-.13.13-.2.31-.23.54-.03.22.01.41.12.56.11.15.27.29.48.4.2.12.44.22.72.32.27.09.55.2.83.31.29.11.57.24.84.38.27.14.52.31.73.51.21.2.38.45.5.73.12.29.17.63.15,1.03"/>
    <path class="cls-3" d="m108.65,44.73c-.53.19-1,.32-1.41.37-.41.05-.77.06-1.08,0-.31-.05-.57-.15-.79-.3-.21-.15-.39-.33-.52-.55-.13-.21-.23-.46-.29-.73-.06-.27-.09-.55-.09-.85v-4.69s0-.09,0-.15c0-.06.01-.12.03-.18.01-.06.03-.12.05-.17.02-.06.04-.1.06-.14-.04.02-.08.03-.13.03-.05,0-.1.01-.16.02-.05,0-.11,0-.16,0h-.8v-.9c.28,0,.51-.04.7-.09.19-.05.34-.12.47-.21.12-.09.22-.2.29-.34.07-.14.13-.3.18-.49.05-.19.09-.41.13-.65.04-.25.08-.52.14-.83h.88l-.04,2.11s0,.04,0,.08c0,.04-.01.08-.02.12,0,.04-.02.08-.03.12-.01.04-.03.06-.04.07.03,0,.06-.02.08-.02.02,0,.05,0,.08-.02.07,0,.14-.02.19-.03.05,0,.09-.01.12-.01h1.74v1.09h-1.76c-.08,0-.16,0-.22,0-.06,0-.14-.01-.23-.04.01.02.03.06.04.11.01.05.02.11.03.17,0,.06,0,.12.01.19,0,.06,0,.11,0,.15v4.44c0,.28.04.52.12.72.08.2.21.35.4.44.18.1.42.14.72.14.29,0,.65-.07,1.08-.19l.24,1.19Z"/>
    <path class="cls-3" d="m110.86,34.26c-.23,0-.43-.05-.58-.15-.15-.1-.27-.23-.35-.38-.08-.15-.12-.32-.12-.49s.04-.34.12-.49c.08-.15.19-.28.35-.38.15-.1.35-.15.58-.15s.42.05.57.15c.15.1.27.23.34.38.08.15.11.32.11.49s-.04.34-.11.49c-.08.15-.19.28-.34.38-.15.1-.34.15-.57.15m-.8,1.97h1.62v8.69h-1.62v-8.69Z"/>
    <path class="cls-3" d="m118.51,44.73c-.53.19-1,.32-1.41.37-.41.05-.77.06-1.08,0-.31-.05-.57-.15-.79-.3-.21-.15-.39-.33-.52-.55-.14-.21-.23-.46-.29-.73-.06-.27-.09-.55-.09-.85v-4.69s0-.09,0-.15c0-.06.01-.12.03-.18.01-.06.03-.12.04-.17.02-.06.04-.1.06-.14-.04.02-.08.03-.13.03-.05,0-.1.01-.16.02-.05,0-.11,0-.16,0h-.8v-.9c.28,0,.51-.04.7-.09.19-.05.34-.12.47-.21.12-.09.22-.2.29-.34.07-.14.13-.3.18-.49.05-.19.09-.41.13-.65.04-.25.08-.52.14-.83h.88l-.04,2.11s0,.04,0,.08c0,.04-.01.08-.02.12,0,.04-.02.08-.03.12-.01.04-.03.06-.04.07.03,0,.06-.02.08-.02.02,0,.05,0,.08-.02.07,0,.14-.02.19-.03.05,0,.09-.01.12-.01h1.74v1.09h-1.76c-.08,0-.16,0-.22,0-.06,0-.14-.01-.23-.04.01.02.03.06.04.11.01.05.02.11.02.17,0,.06,0,.12.01.19,0,.06,0,.11,0,.15v4.44c0,.28.04.52.12.72.08.2.21.35.4.44.18.1.42.14.72.14.29,0,.65-.07,1.08-.19l.25,1.19Z"/>
    <path class="cls-3" d="m127.86,44.94c-.32.12-.63.18-.92.17-.29,0-.54-.07-.76-.18-.22-.11-.39-.28-.52-.49-.13-.21-.19-.46-.19-.75l-.06-.04c-.2.28-.43.52-.7.73-.27.2-.56.36-.86.48-.31.12-.62.19-.94.23-.32.03-.64.02-.94-.03-.31-.05-.6-.15-.87-.29-.27-.14-.51-.32-.71-.55-.2-.23-.37-.5-.49-.81-.12-.31-.18-.68-.18-1.08v-6.09h1.62v5.78c0,.32.06.6.19.84.12.24.29.44.5.58.21.15.45.24.73.29.28.04.57.02.88-.06.31-.08.62-.23.94-.45.32-.22.62-.51.91-.88v-6.09h1.62v6.69c0,.18.02.33.06.45.04.12.09.22.15.29.06.07.13.13.2.17.07.04.15.07.22.08.07.01.14.02.2.02.06,0,.11,0,.14,0l-.21,1.01Z"/>
    <path class="cls-3" d="m133.93,44.73c-.53.19-1,.32-1.41.37-.41.05-.77.06-1.08,0-.31-.05-.57-.15-.79-.3-.21-.15-.39-.33-.52-.55-.14-.21-.23-.46-.29-.73-.06-.27-.09-.55-.09-.85v-4.69s0-.09,0-.15c0-.06.01-.12.03-.18.01-.06.03-.12.04-.17.02-.06.04-.1.06-.14-.04.02-.08.03-.13.03-.05,0-.1.01-.16.02-.05,0-.11,0-.16,0h-.8v-.9c.28,0,.51-.04.7-.09.19-.05.34-.12.47-.21.12-.09.22-.2.29-.34.07-.14.13-.3.18-.49.05-.19.09-.41.13-.65.04-.25.08-.52.14-.83h.88l-.04,2.11s0,.04,0,.08c0,.04-.01.08-.02.12,0,.04-.02.08-.03.12-.01.04-.03.06-.04.07.03,0,.06-.02.08-.02.02,0,.05,0,.08-.02.07,0,.14-.02.19-.03.05,0,.09-.01.12-.01h1.74v1.09h-1.76c-.08,0-.16,0-.22,0-.06,0-.14-.01-.23-.04.01.02.03.06.04.11.01.05.02.11.02.17,0,.06,0,.12.01.19,0,.06,0,.11,0,.15v4.44c0,.28.04.52.12.72.08.2.21.35.4.44.18.1.42.14.72.14.29,0,.65-.07,1.08-.19l.25,1.19Z"/>
    <path class="cls-3" d="m142.13,40.65h-5.7c0,.42.06.79.17,1.12.11.33.26.61.45.86.19.24.41.44.66.6.25.16.52.27.81.34.29.07.58.11.88.1.3-.01.59-.06.87-.15.28-.09.55-.23.8-.41.25-.18.47-.4.65-.66l.78,1.09c-.24.33-.53.6-.88.83-.35.23-.72.41-1.13.53-.41.12-.83.19-1.27.21-.44.01-.88-.03-1.3-.13-.42-.1-.83-.27-1.21-.5-.38-.23-.72-.52-1.01-.89-.29-.36-.52-.79-.69-1.29s-.25-1.07-.25-1.72c0-.38.04-.76.11-1.13.07-.37.19-.73.34-1.06.15-.34.34-.65.58-.94.23-.29.51-.54.82-.75.32-.21.67-.38,1.08-.5.4-.12.85-.18,1.33-.18.44,0,.84.05,1.2.14.36.1.67.23.95.4.28.17.52.37.72.61.2.23.37.49.5.76.13.27.23.56.29.86.06.3.1.61.1.91l-.64.92Zm-.88-1.15c-.04-.27-.1-.52-.2-.72-.1-.21-.21-.39-.35-.54-.13-.15-.28-.28-.44-.38-.16-.1-.31-.18-.47-.24-.16-.06-.3-.1-.45-.13-.14-.02-.27-.04-.37-.04-.33,0-.63.06-.91.18-.28.12-.53.28-.74.47-.21.19-.38.41-.51.66-.13.25-.21.49-.23.74h4.67Z"/>
    <path class="cls-3" d="m151.23,33.47c-.37,0-.69.06-.94.17-.26.12-.47.27-.63.47-.16.2-.28.43-.36.69-.08.26-.11.53-.11.82v.25c0,.08,0,.15-.02.23-.01.07-.04.13-.06.18.07-.03.15-.05.22-.06.08,0,.14,0,.19,0h1.38v1.25h-1.38s-.11,0-.17-.02c-.06-.01-.14-.02-.24-.04.06.16.08.32.08.49v7.03h-1.62v-7.03c0-.07,0-.15.02-.24.01-.08.03-.17.06-.25-.16.04-.3.06-.43.06h-.86v-1.25h.86c.13,0,.28.02.43.06-.04-.07-.06-.15-.07-.22,0-.07,0-.15,0-.24v-.23c0-.17.02-.36.06-.58.04-.22.1-.44.19-.67.08-.23.19-.46.33-.69.13-.23.3-.44.49-.62.16-.14.34-.27.54-.39.2-.12.42-.21.65-.29.23-.08.48-.12.74-.14.26-.02.53,0,.81.06l-.14,1.19Z"/>
    <path class="cls-3" d="m156.54,45.1c-.61,0-1.16-.08-1.64-.25-.48-.17-.9-.4-1.26-.69-.36-.29-.65-.63-.88-1.02-.23-.39-.4-.8-.52-1.23-.11-.44-.16-.88-.16-1.34,0-.46.07-.9.2-1.34.12-.44.31-.85.55-1.23.24-.39.53-.73.89-1.02.35-.29.76-.52,1.22-.69.46-.17.98-.25,1.55-.25s1.12.09,1.59.25c.47.17.88.4,1.24.69.35.29.65.63.89,1.02.24.39.42.8.54,1.23.12.44.18.88.19,1.34,0,.46-.05.91-.17,1.34-.11.43-.29.85-.52,1.23-.23.39-.53.73-.88,1.02-.35.29-.77.52-1.24.69-.47.17-1.01.25-1.6.25m.14-1.31c.37,0,.7-.06.99-.18.29-.12.53-.28.74-.49.21-.21.37-.45.5-.72.13-.27.22-.57.27-.88.06-.31.07-.63.05-.95-.02-.33-.07-.64-.17-.95-.09-.31-.21-.6-.37-.88-.16-.27-.35-.52-.58-.72-.23-.21-.48-.37-.77-.49-.29-.12-.61-.18-.96-.18-.38,0-.71.06-1,.18-.29.12-.54.28-.75.49-.21.2-.39.44-.52.72-.13.28-.23.57-.29.88-.06.31-.08.63-.06.95.02.33.07.64.16.95.09.31.22.6.38.88.16.28.36.52.59.72.23.2.49.37.79.49.3.12.63.18.99.18"/>
    <path class="cls-3" d="m167.85,37.78c-.32-.15-.61-.22-.88-.23-.27,0-.51.03-.73.12-.22.09-.42.21-.59.37-.18.16-.33.32-.47.5-.14.17-.26.35-.37.52-.11.17-.2.31-.28.43.01.07.02.12.04.17.01.05.02.09.02.14,0,.04,0,.09.01.13,0,.04,0,.09,0,.15v4.84h-1.62v-6.52c0-.17-.02-.33-.06-.47-.04-.14-.09-.26-.17-.37-.07-.1-.17-.19-.29-.24-.11-.06-.25-.09-.41-.09l.23-1.02c.08-.05.2-.1.34-.14.14-.04.3-.05.46-.04.17,0,.34.04.51.1.17.06.32.17.46.31.14.14.25.34.34.58.09.24.13.54.13.91l.06.02c.05-.08.11-.17.18-.29.07-.12.16-.24.25-.38.09-.13.2-.27.32-.41.12-.14.26-.27.4-.38.15-.11.31-.21.49-.29.18-.08.37-.13.57-.14.21-.02.43,0,.66.06.24.06.49.16.76.33l-.39,1.36Z"/>
    <path class="cls-3" d="m177.01,35.24s-.08,0-.16-.01c-.07,0-.15-.02-.23-.03.01.08.02.16.02.24,0,.07,0,.12,0,.15v9.33h-1.64v-9.33s0-.1,0-.17c0-.07,0-.15.02-.22-.07.01-.15.02-.23.03-.08,0-.13.01-.16.01h-3.05l.1-1.5h8.28l.1,1.5h-3.06Z"/>
    <path class="cls-3" d="m188.71,40.65h-5.7c0,.42.06.79.17,1.12.11.33.26.61.45.86.19.24.41.44.66.6.25.16.52.27.81.34.29.07.58.11.88.1.3-.01.59-.06.87-.15.28-.09.55-.23.8-.41.25-.18.47-.4.65-.66l.78,1.09c-.24.33-.53.6-.88.83-.35.23-.72.41-1.13.53-.41.12-.83.19-1.27.21-.44.01-.88-.03-1.3-.13-.42-.1-.83-.27-1.21-.5-.38-.23-.72-.52-1.01-.89-.29-.36-.52-.79-.69-1.29s-.25-1.07-.25-1.72c0-.38.04-.76.11-1.13.07-.37.19-.73.34-1.06.15-.34.34-.65.58-.94.23-.29.51-.54.82-.75.32-.21.67-.38,1.08-.5.4-.12.85-.18,1.33-.18.44,0,.84.05,1.2.14.36.1.67.23.95.4.28.17.52.37.72.61.2.23.37.49.5.76.13.27.23.56.29.86.06.3.1.61.1.91l-.64.92Zm-.88-1.15c-.04-.27-.1-.52-.2-.72-.1-.21-.21-.39-.35-.54-.13-.15-.28-.28-.44-.38-.16-.1-.31-.18-.47-.24-.16-.06-.3-.1-.45-.13-.14-.02-.27-.04-.37-.04-.33,0-.63.06-.91.18-.28.12-.53.28-.74.47-.21.19-.38.41-.51.66-.13.25-.21.49-.23.74h4.67Z"/>
    <path class="cls-3" d="m197.94,43.93c-.32.3-.66.54-1.04.72-.37.18-.76.31-1.16.39-.4.07-.8.09-1.2.06-.4-.03-.79-.12-1.16-.27-.37-.14-.72-.33-1.04-.58-.32-.24-.6-.54-.84-.88-.24-.35-.43-.74-.56-1.18-.14-.44-.21-.93-.21-1.47s.06-1.06.19-1.52c.13-.46.31-.86.53-1.22.23-.36.49-.67.8-.92.31-.26.64-.47,1-.63.36-.16.73-.27,1.13-.33.39-.06.79-.06,1.19-.02.4.04.79.14,1.18.28.39.14.75.34,1.09.59l-.76,1.13c-.32-.23-.66-.4-1.01-.51-.36-.11-.71-.16-1.05-.14-.34.01-.67.09-.99.23-.31.14-.59.34-.83.61-.24.27-.43.6-.57,1-.14.4-.21.87-.21,1.41,0,.44.07.84.22,1.2.14.36.34.67.59.94.25.26.53.47.86.62.33.15.67.24,1.04.25.36.02.74-.04,1.12-.17.38-.13.75-.35,1.11-.64l.59,1.07Z"/>
    <path class="cls-3" d="m205.56,44.92v-5.56c0-.4-.07-.74-.21-1.01-.14-.27-.32-.49-.55-.64-.23-.15-.48-.24-.77-.27-.29-.03-.59,0-.9.11-.31.1-.61.26-.91.48-.3.22-.57.51-.81.86v6.03h-1.62v-12.65h1.62v4.36c0,.09,0,.23-.01.4,0,.17-.04.4-.09.69l.06.02c.24-.36.5-.66.8-.9.29-.24.6-.43.91-.56.31-.13.63-.22.96-.25.32-.03.64-.02.94.04.3.06.58.17.85.32.26.15.49.34.69.57.2.23.35.49.46.8.11.3.17.64.17,1.01v6.15h-1.6Z"/>
    <path class="cls-3" d="m215.36,44.92v-5.78c0-.31-.06-.58-.18-.83-.12-.24-.29-.43-.49-.58-.21-.15-.45-.24-.72-.28-.27-.04-.56-.02-.87.06-.31.08-.62.23-.93.45-.32.22-.62.52-.92.89v6.07h-1.62v-6.68c0-.18-.02-.33-.06-.45-.04-.12-.09-.22-.15-.29-.06-.07-.13-.13-.2-.17-.07-.04-.15-.06-.22-.08-.07-.01-.14-.02-.21-.02h-.15l.23-1.02c.32-.12.63-.18.91-.17.29.01.54.08.76.19.22.12.39.28.52.49.13.21.19.45.19.73l.06.04c.2-.28.43-.52.7-.72.27-.2.56-.36.86-.48.3-.12.62-.19.94-.23.32-.03.63-.02.94.03.31.05.6.15.87.29.27.14.51.32.71.55.2.23.37.5.49.82.12.32.18.68.18,1.09v6.07h-1.62Z"/>
    <path class="cls-3" d="m223.32,45.1c-.61,0-1.16-.08-1.64-.25-.48-.17-.9-.4-1.26-.69-.36-.29-.65-.63-.88-1.02-.23-.39-.4-.8-.52-1.23-.11-.44-.16-.88-.16-1.34,0-.46.07-.9.2-1.34.12-.44.31-.85.55-1.23.24-.39.53-.73.89-1.02.35-.29.76-.52,1.22-.69.46-.17.98-.25,1.55-.25s1.12.09,1.59.25c.47.17.88.4,1.24.69.35.29.65.63.89,1.02.24.39.42.8.54,1.23.12.44.18.88.19,1.34,0,.46-.05.91-.17,1.34-.11.43-.29.85-.52,1.23-.23.39-.53.73-.88,1.02-.35.29-.77.52-1.24.69-.47.17-1.01.25-1.6.25m.14-1.31c.37,0,.7-.06.99-.18.29-.12.53-.28.74-.49.21-.21.37-.45.5-.72.13-.27.22-.57.28-.88.05-.31.07-.63.05-.95-.02-.33-.08-.64-.17-.95-.09-.31-.21-.6-.37-.88-.16-.27-.35-.52-.58-.72-.23-.21-.48-.37-.77-.49-.29-.12-.61-.18-.96-.18-.38,0-.71.06-1,.18-.29.12-.54.28-.76.49-.21.2-.39.44-.52.72-.13.28-.23.57-.29.88-.06.31-.08.63-.06.95.02.33.07.64.16.95.09.31.22.6.38.88.16.28.36.52.59.72.23.2.49.37.79.49.3.12.63.18.99.18"/>
    <rect class="cls-3" x="229.78" y="32.27" width="1.62" height="12.65"/>
    <path class="cls-3" d="m237.92,45.1c-.61,0-1.16-.08-1.64-.25-.48-.17-.9-.4-1.26-.69-.36-.29-.65-.63-.88-1.02-.23-.39-.4-.8-.52-1.23-.11-.44-.16-.88-.16-1.34,0-.46.07-.9.2-1.34.12-.44.31-.85.55-1.23.24-.39.53-.73.89-1.02.35-.29.76-.52,1.22-.69.46-.17.98-.25,1.55-.25s1.12.09,1.59.25c.47.17.88.4,1.24.69.36.29.65.63.89,1.02.24.39.42.8.54,1.23.12.44.18.88.19,1.34,0,.46-.05.91-.17,1.34-.11.43-.29.85-.52,1.23-.23.39-.53.73-.88,1.02-.35.29-.76.52-1.24.69-.47.17-1.01.25-1.6.25m.14-1.31c.37,0,.7-.06.99-.18.29-.12.53-.28.74-.49.21-.21.37-.45.5-.72.13-.27.22-.57.27-.88.06-.31.07-.63.05-.95-.02-.33-.07-.64-.17-.95-.09-.31-.21-.6-.37-.88-.16-.27-.35-.52-.58-.72-.23-.21-.48-.37-.77-.49-.29-.12-.61-.18-.96-.18-.38,0-.71.06-1,.18-.29.12-.54.28-.75.49-.21.2-.39.44-.52.72-.14.28-.23.57-.29.88-.06.31-.08.63-.06.95.02.33.07.64.16.95.09.31.22.6.38.88.16.28.36.52.59.72.23.2.49.37.79.49s.63.18.99.18"/>
    <path class="cls-3" d="m251.98,37.35c-.07.03-.17.04-.31.04-.14,0-.29-.01-.45-.02-.16-.02-.33-.04-.5-.06-.17-.02-.32-.05-.45-.08l-.16.12c.23.21.41.45.55.73.14.27.23.56.27.87.04.3.04.61,0,.93-.05.31-.15.61-.29.9-.14.28-.33.54-.57.77-.24.23-.53.43-.86.57-.33.15-.71.24-1.14.29-.43.04-.9.01-1.43-.09-.09.05-.18.12-.27.2-.09.08-.15.16-.2.25-.05.09-.08.19-.07.28,0,.1.04.19.12.28.08.09.21.18.39.26.18.08.42.15.72.2.38.07.76.14,1.12.21.36.06.7.14,1.02.23.32.09.61.19.88.31.27.12.5.26.7.44.2.17.35.38.47.62.12.24.19.53.2.86.02.37-.03.71-.17,1.01-.14.3-.33.58-.58.81-.25.24-.55.44-.9.62-.35.17-.72.31-1.11.41-.39.1-.8.16-1.22.19-.42.03-.83.02-1.23-.02-.4-.05-.79-.13-1.15-.25-.36-.12-.68-.29-.96-.49-.28-.2-.5-.44-.67-.73-.17-.28-.26-.61-.28-.98-.02-.27.03-.53.14-.78.11-.25.27-.47.49-.68.21-.2.46-.38.75-.52.29-.14.61-.25.95-.32-.01-.01-.02-.03-.02-.04,0-.03,0-.05.02-.06-.31-.05-.57-.15-.77-.28-.2-.14-.36-.29-.46-.47-.1-.18-.15-.36-.16-.56,0-.2.04-.39.13-.58.09-.19.22-.35.4-.5.18-.15.4-.27.66-.35-.18-.12-.37-.26-.56-.42-.19-.16-.36-.35-.52-.57-.16-.21-.28-.46-.38-.72-.1-.27-.15-.57-.15-.89,0-.4.05-.75.16-1.07.1-.32.24-.59.42-.83.18-.24.39-.44.63-.61.24-.17.5-.31.78-.42.28-.11.57-.19.87-.24.3-.05.61-.08.91-.08.18,0,.35.02.51.04.16.03.31.07.45.11.14.04.26.09.38.15.11.05.22.1.3.15.08-.04.19-.06.32-.08.13-.02.27-.03.42-.03.15,0,.31-.01.47-.03.16-.01.31-.03.45-.06.14-.03.27-.08.38-.14.11-.06.19-.15.25-.26l.31,1.46Zm-1.85,9.37c-.03-.25-.09-.46-.2-.63s-.24-.3-.39-.41c-.16-.11-.34-.19-.53-.25-.19-.06-.4-.11-.61-.16-.21-.04-.42-.08-.62-.12-.21-.04-.4-.08-.58-.14-.35.1-.66.22-.92.37-.26.15-.48.32-.66.5-.17.18-.31.37-.39.56-.09.2-.13.39-.12.57,0,.25.09.47.24.65.15.18.35.32.6.43.24.11.52.18.83.22.31.04.62.05.94.03.32-.02.62-.07.92-.16.3-.08.56-.19.79-.33.23-.14.41-.3.54-.49.13-.19.18-.41.16-.64m-2.66-5.41c.33,0,.61-.06.85-.18.24-.12.43-.28.58-.47.15-.2.26-.42.33-.67.07-.25.1-.51.09-.77,0-.26-.06-.52-.14-.77-.09-.25-.21-.47-.37-.67-.16-.2-.35-.35-.57-.47-.22-.12-.48-.18-.77-.18-.32,0-.59.06-.82.18-.23.12-.42.28-.58.47-.15.19-.27.42-.34.67-.07.25-.11.51-.1.77,0,.26.05.52.13.77.08.25.2.47.35.67.15.19.34.35.57.47.23.12.49.18.79.18"/>
    <path class="cls-3" d="m257.23,45.82c-.25.6-.52,1.11-.82,1.54-.3.43-.64.76-1.02,1.01-.38.25-.8.4-1.26.46-.46.06-.98.02-1.55-.12l.33-1.46c.27.09.52.14.74.15.22,0,.42-.03.6-.09.18-.06.34-.15.48-.26.14-.11.26-.24.37-.38.11-.14.21-.3.3-.46.08-.16.16-.32.24-.47.07-.15.15-.32.22-.5.07-.18.16-.4.28-.65l-3.18-8.16,1.56-.39,2.05,5.44s.04.1.06.18c.03.09.06.19.1.3.04.11.07.24.11.37.04.13.08.27.12.41h.06c.04-.14.07-.28.11-.41.04-.13.07-.25.1-.36.03-.11.06-.21.09-.3.03-.09.05-.16.07-.22l2.15-5.42,1.52.41-3.81,9.37Z"/>
    <path class="cls-3" d="m89.05,62.94c-.08.06-.18.1-.3.14-.12.03-.24.05-.38.05-.14,0-.27-.02-.41-.06-.14-.04-.27-.1-.4-.18-.13-.08-.25-.2-.35-.34-.1-.14-.19-.32-.25-.53-.34.32-.71.57-1.12.75-.4.18-.81.29-1.21.33-.4.04-.8.02-1.17-.08-.38-.09-.71-.24-1-.44-.29-.21-.53-.47-.7-.79-.18-.32-.26-.68-.26-1.1s.06-.78.19-1.11c.12-.32.3-.61.53-.85.23-.25.51-.45.83-.62.32-.17.68-.31,1.08-.42.39-.11.82-.18,1.27-.23.46-.05.93-.07,1.43-.07-.03-.06-.05-.13-.06-.23-.01-.09-.02-.19-.03-.28,0-.09,0-.17,0-.24,0-.07,0-.12,0-.13,0-.14-.05-.28-.15-.41-.1-.13-.25-.25-.44-.35-.19-.1-.42-.18-.69-.23-.27-.05-.58-.07-.91-.05-.34.02-.7.08-1.1.19-.39.1-.81.26-1.25.47l-.37-1.21c.3-.16.62-.31.96-.43.35-.12.7-.22,1.06-.29.36-.07.73-.11,1.09-.13.36-.02.71,0,1.05.05.33.05.65.13.94.25.29.12.54.28.76.47.21.2.38.44.5.72.12.28.18.61.18.98v4.64c0,.52.31.78.92.78l-.23,1Zm-2.21-4.59c-.64.06-1.19.15-1.66.26-.47.12-.85.26-1.15.44-.3.18-.52.38-.67.62-.14.24-.22.51-.22.82,0,.22.05.41.14.57.09.16.23.29.39.39.17.1.37.17.6.21.23.04.48.05.74.02.27-.02.54-.08.84-.17.29-.09.58-.21.88-.37v-2.38c0-.05,0-.12.03-.19.02-.07.04-.15.08-.24"/>
    <path class="cls-3" d="m96.73,62.92v-5.78c0-.31-.06-.58-.18-.83-.12-.24-.29-.43-.49-.58-.21-.15-.45-.24-.72-.28s-.56-.02-.87.06c-.31.08-.62.23-.93.45-.32.22-.62.52-.92.89v6.07h-1.62v-6.68c0-.18-.02-.33-.06-.45-.04-.12-.09-.22-.15-.29-.06-.08-.13-.13-.2-.17-.07-.04-.15-.06-.22-.08-.07-.01-.14-.02-.2-.02h-.15l.23-1.02c.32-.12.63-.18.91-.17.29.01.54.08.76.19.22.12.39.28.52.49.13.21.19.45.19.73l.06.04c.2-.28.43-.52.7-.72.27-.2.55-.36.86-.48.3-.12.62-.19.94-.23.32-.03.63-.02.94.03.31.05.6.15.87.29.27.14.51.32.71.55.2.23.36.5.48.82.12.32.18.68.18,1.09v6.07h-1.62Z"/>
    <path class="cls-3" d="m108.87,62.94c-.08.05-.18.1-.29.13-.11.03-.24.05-.37.05-.13,0-.27-.01-.41-.04-.14-.03-.27-.09-.4-.17-.13-.08-.24-.18-.35-.31-.1-.13-.19-.29-.25-.48-.04.08-.13.17-.26.28-.13.11-.29.22-.48.33-.19.1-.4.19-.63.27-.23.07-.47.11-.72.11-.59.02-1.11-.03-1.56-.14-.45-.11-.84-.27-1.18-.48-.33-.21-.61-.46-.83-.75-.22-.29-.4-.61-.54-.96-.14-.35-.23-.71-.29-1.09-.06-.38-.09-.77-.09-1.16,0-.69.11-1.31.34-1.86.23-.55.54-1.02.93-1.41.39-.38.86-.68,1.39-.89.53-.21,1.11-.31,1.72-.31.2,0,.38,0,.55.03.17.02.33.05.48.09.16.04.31.1.47.17.16.07.34.16.53.27-.03-.09-.05-.16-.06-.19-.01-.04-.02-.07-.03-.1,0-.03-.01-.07-.01-.11,0-.04,0-.12,0-.23v-3.69h1.64v10.89c0,.52.31.78.92.78l-.23,1.01Zm-2.21-2.17c-.03-.11-.05-.19-.06-.25-.01-.06-.02-.11-.03-.14,0-.04-.01-.07-.01-.11,0-.03,0-.08,0-.14v-3.38c0-.06,0-.11,0-.15,0-.04,0-.09.02-.14,0-.05.02-.1.03-.16.02-.06.03-.13.05-.21-.14-.13-.3-.23-.47-.31-.17-.08-.34-.15-.52-.19-.17-.05-.34-.08-.51-.1-.16-.02-.31-.03-.43-.03-.37,0-.7.06-1,.18-.29.12-.55.27-.77.47-.22.2-.4.43-.55.7-.15.27-.26.55-.33.85-.07.3-.11.61-.11.92s.04.62.11.92c.07.3.18.58.33.85.14.27.32.5.53.7.21.2.46.36.75.47.28.12.6.18.96.18.22,0,.43-.02.63-.08.2-.05.39-.12.56-.2.17-.08.33-.18.47-.29.14-.11.26-.23.35-.35"/>
    <rect class="cls-3" x="113.49" y="51.75" width="1.7" height="11.17"/>
    <path class="cls-3" d="m123.51,62.92v-5.78c0-.31-.06-.58-.18-.83-.12-.24-.29-.43-.49-.58-.21-.15-.45-.24-.72-.28-.28-.04-.57-.02-.87.06-.31.08-.62.23-.93.45-.32.22-.62.52-.92.89v6.07h-1.62v-6.68c0-.18-.02-.33-.06-.45-.04-.12-.09-.22-.15-.29-.06-.08-.13-.13-.2-.17-.07-.04-.15-.06-.22-.08-.07-.01-.14-.02-.21-.02h-.15l.23-1.02c.32-.12.63-.18.91-.17.29.01.54.08.76.19.22.12.39.28.52.49.13.21.19.45.19.73l.06.04c.2-.28.43-.52.7-.72.27-.2.56-.36.86-.48.3-.12.62-.19.94-.23.32-.03.63-.02.94.03.31.05.6.15.87.29.27.14.51.32.71.55.2.23.36.5.48.82.12.32.18.68.18,1.09v6.07h-1.62Z"/>
    <path class="cls-3" d="m133.33,62.92v-5.78c0-.31-.06-.58-.18-.83-.12-.24-.29-.43-.49-.58-.21-.15-.45-.24-.72-.28-.27-.04-.56-.02-.87.06-.3.08-.62.23-.93.45-.32.22-.62.52-.92.89v6.07h-1.62v-6.68c0-.18-.02-.33-.06-.45-.04-.12-.09-.22-.15-.29-.06-.08-.13-.13-.2-.17-.07-.04-.15-.06-.22-.08-.07-.01-.14-.02-.21-.02h-.15l.23-1.02c.32-.12.63-.18.91-.17.29.01.54.08.76.19.22.12.39.28.52.49.13.21.19.45.19.73l.06.04c.2-.28.43-.52.7-.72.27-.2.56-.36.86-.48.3-.12.62-.19.94-.23.32-.03.63-.02.94.03.31.05.6.15.87.29.27.14.51.32.71.55.2.23.37.5.48.82.12.32.18.68.18,1.09v6.07h-1.62Z"/>
    <path class="cls-3" d="m141.29,63.1c-.61,0-1.16-.08-1.64-.25-.48-.17-.9-.4-1.26-.69-.36-.29-.65-.63-.88-1.02-.23-.39-.4-.8-.52-1.23-.11-.44-.16-.88-.16-1.34,0-.46.07-.9.2-1.34.12-.44.31-.85.55-1.23.24-.39.53-.73.89-1.02.35-.29.76-.52,1.22-.69.46-.17.98-.25,1.55-.25s1.12.09,1.59.25c.47.17.88.4,1.24.69.35.29.65.63.89,1.02.24.39.42.8.54,1.23.12.44.18.88.19,1.34,0,.46-.05.91-.16,1.34-.11.43-.29.85-.52,1.23-.23.39-.53.73-.88,1.02-.35.29-.76.52-1.24.69-.47.17-1.01.25-1.6.25m.14-1.31c.37,0,.7-.06.99-.18s.53-.28.74-.49c.21-.21.37-.45.5-.72.13-.27.22-.57.27-.88.06-.31.07-.63.05-.95-.02-.33-.08-.64-.17-.95-.09-.31-.21-.6-.37-.88-.16-.27-.35-.52-.58-.72-.22-.21-.48-.37-.77-.49-.29-.12-.61-.18-.96-.18-.38,0-.71.06-1,.18-.29.12-.54.28-.75.49-.21.2-.39.44-.52.72-.14.28-.23.57-.29.88-.06.31-.08.63-.06.95.02.33.07.64.16.95.09.31.22.6.38.88.16.28.36.52.59.72.23.2.49.37.79.49.3.12.63.18.99.18"/>
    <path class="cls-3" d="m151.71,62.92h-1.58l-3.36-8.49,1.56-.39,2.26,5.7c.07.18.12.34.15.47.04.14.06.26.08.37.02.11.04.22.05.31.01.1.03.2.06.3.03-.1.05-.2.06-.3.01-.1.03-.2.05-.31.02-.11.05-.23.09-.37.04-.13.1-.29.17-.47l2.3-5.7,1.56.39-3.44,8.49Z"/>
    <path class="cls-3" d="m163.78,62.94c-.08.06-.18.1-.3.14-.12.03-.24.05-.38.05-.14,0-.27-.02-.41-.06-.14-.04-.27-.1-.4-.18-.13-.08-.25-.2-.35-.34-.11-.14-.19-.32-.25-.53-.34.32-.71.57-1.12.75-.4.18-.81.29-1.21.33-.41.04-.8.02-1.17-.08-.38-.09-.71-.24-1-.44-.29-.21-.52-.47-.7-.79-.18-.32-.26-.68-.26-1.1s.06-.78.19-1.11c.13-.32.3-.61.53-.85.23-.25.51-.45.83-.62.32-.17.68-.31,1.08-.42.39-.11.82-.18,1.27-.23.46-.05.93-.07,1.43-.07-.03-.06-.05-.13-.06-.23-.01-.09-.02-.19-.02-.28,0-.09,0-.17,0-.24,0-.07,0-.12,0-.13,0-.14-.05-.28-.15-.41-.1-.13-.25-.25-.44-.35-.19-.1-.42-.18-.69-.23-.27-.05-.58-.07-.91-.05-.34.02-.7.08-1.1.19-.39.1-.81.26-1.25.47l-.37-1.21c.3-.16.62-.31.96-.43.35-.12.7-.22,1.06-.29.36-.07.72-.11,1.09-.13.36-.02.71,0,1.05.05.33.05.65.13.94.25.29.12.54.28.76.47.21.2.38.44.5.72.12.28.18.61.18.98v4.64c0,.52.31.78.92.78l-.23,1Zm-2.21-4.59c-.64.06-1.19.15-1.66.26-.47.12-.85.26-1.15.44-.3.18-.52.38-.67.62-.14.24-.22.51-.22.82,0,.22.05.41.14.57.1.16.23.29.4.39.17.1.37.17.6.21.23.04.48.05.74.02.27-.02.54-.08.84-.17.29-.09.58-.21.88-.37v-2.38c0-.05,0-.12.03-.19.02-.07.04-.15.08-.24"/>
    <path class="cls-3" d="m169.91,62.73c-.53.19-1,.32-1.41.37-.41.06-.77.06-1.08,0-.31-.05-.57-.15-.79-.3-.21-.15-.39-.33-.52-.55-.14-.21-.23-.46-.29-.73-.06-.27-.09-.55-.09-.85v-4.7s0-.09,0-.15c0-.06.01-.12.03-.18.01-.06.03-.12.04-.17.02-.05.04-.1.07-.14-.04.02-.08.03-.13.03-.05,0-.1.01-.16.02-.06,0-.11,0-.16,0h-.8v-.9c.28,0,.51-.04.7-.09.19-.05.34-.12.47-.21.12-.09.22-.2.29-.34.07-.14.13-.3.18-.49.05-.19.09-.41.13-.65.04-.25.08-.52.14-.83h.88l-.04,2.11s0,.04,0,.08c0,.04-.01.08-.02.12,0,.04-.02.08-.03.12-.01.04-.03.06-.04.07.03,0,.06-.02.08-.02.02,0,.05,0,.08-.02.07-.01.14-.02.19-.03.05,0,.09-.01.12-.01h1.74v1.09h-1.76c-.08,0-.16,0-.22,0-.06,0-.14-.01-.23-.04.01.02.03.06.04.11.01.05.02.11.03.17,0,.06,0,.12.01.19,0,.06,0,.11,0,.15v4.45c0,.28.04.52.12.72.08.2.21.35.4.44.18.1.42.15.72.14.29,0,.65-.07,1.08-.19l.25,1.19Z"/>
    <path class="cls-3" d="m172.12,52.26c-.23,0-.43-.05-.58-.15-.15-.1-.27-.23-.35-.38-.08-.15-.12-.32-.12-.49s.04-.34.12-.49c.08-.15.19-.28.35-.38.15-.1.35-.15.58-.15s.42.05.57.15c.15.1.27.23.34.38.08.15.12.32.12.49s-.04.34-.12.49c-.08.15-.19.28-.34.38-.15.1-.34.15-.57.15m-.8,1.97h1.62v8.69h-1.62v-8.69Z"/>
    <path class="cls-3" d="m179.47,63.1c-.61,0-1.16-.08-1.64-.25-.48-.17-.9-.4-1.26-.69-.36-.29-.65-.63-.88-1.02-.23-.39-.4-.8-.52-1.23-.11-.44-.16-.88-.16-1.34,0-.46.07-.9.2-1.34.12-.44.31-.85.55-1.23.24-.39.53-.73.89-1.02.35-.29.76-.52,1.22-.69.46-.17.98-.25,1.55-.25s1.12.09,1.59.25c.47.17.88.4,1.24.69.35.29.65.63.89,1.02.24.39.42.8.54,1.23.12.44.18.88.19,1.34,0,.46-.05.91-.16,1.34-.11.43-.29.85-.52,1.23-.23.39-.53.73-.88,1.02-.35.29-.76.52-1.24.69-.47.17-1.01.25-1.6.25m.14-1.31c.37,0,.7-.06.99-.18.29-.12.53-.28.74-.49.21-.21.37-.45.5-.72.13-.27.22-.57.27-.88.06-.31.07-.63.05-.95-.02-.33-.07-.64-.16-.95-.09-.31-.21-.6-.37-.88-.16-.27-.35-.52-.58-.72-.22-.21-.48-.37-.77-.49-.29-.12-.61-.18-.96-.18-.38,0-.71.06-1,.18-.29.12-.54.28-.75.49-.21.2-.39.44-.52.72-.14.28-.23.57-.29.88-.06.31-.08.63-.06.95.02.33.07.64.16.95.09.31.22.6.38.88.16.28.36.52.59.72.23.2.49.37.79.49s.63.18.99.18"/>
    <path class="cls-3" d="m191.66,62.92v-5.78c0-.31-.06-.58-.18-.83-.12-.24-.29-.43-.49-.58-.21-.15-.45-.24-.72-.28-.27-.04-.56-.02-.87.06-.31.08-.62.23-.93.45-.32.22-.62.52-.92.89v6.07h-1.62v-6.68c0-.18-.02-.33-.06-.45-.04-.12-.09-.22-.15-.29-.06-.08-.13-.13-.2-.17-.07-.04-.15-.06-.22-.08-.07-.01-.14-.02-.21-.02h-.15l.23-1.02c.32-.12.63-.18.92-.17.29.01.54.08.76.19.22.12.39.28.52.49.13.21.19.45.19.73l.06.04c.2-.28.43-.52.7-.72.27-.2.56-.36.86-.48.3-.12.62-.19.94-.23.32-.03.63-.02.94.03.31.05.6.15.87.29.27.14.51.32.71.55.2.23.36.5.48.82.12.32.18.68.18,1.09v6.07h-1.62Z"/>
    <path class="cls-3" d="m208.71,62.92s-.02-.13-.04-.27c-.02-.14-.05-.31-.09-.52-.04-.21-.07-.45-.12-.72-.04-.27-.09-.56-.14-.87-.05-.31-.1-.64-.14-.97-.05-.34-.1-.68-.14-1.02-.04-.34-.09-.68-.13-1.02-.04-.34-.07-.66-.1-.96-.02-.11-.03-.23-.04-.36-.01-.13-.02-.27-.02-.41,0-.13-.01-.27-.01-.39s0-.23,0-.32c-.04.1-.07.21-.1.35-.03.13-.07.28-.1.42-.04.15-.07.29-.11.44-.04.14-.08.28-.12.39-.12.31-.24.64-.37.98-.13.34-.26.69-.4,1.04-.14.35-.27.7-.4,1.04-.13.34-.26.67-.38.98-.12.31-.23.6-.34.87-.1.27-.19.5-.27.69-.08.19-.14.35-.18.46-.04.11-.06.17-.06.17h-1.5c-.1-.26-.22-.54-.34-.85-.12-.31-.25-.63-.39-.97-.14-.34-.27-.69-.42-1.06-.14-.36-.28-.73-.43-1.11-.14-.38-.28-.76-.42-1.14-.14-.38-.27-.76-.4-1.13-.04-.12-.08-.25-.12-.39-.04-.14-.07-.29-.11-.43-.03-.14-.07-.29-.1-.42-.03-.13-.07-.25-.1-.36,0,.09-.01.19-.02.32,0,.13,0,.26-.02.4,0,.14-.02.28-.03.43-.01.14-.02.27-.04.39-.04.41-.1.84-.16,1.29-.06.45-.12.9-.18,1.35-.06.45-.13.88-.19,1.3s-.12.79-.17,1.12c-.05.33-.1.61-.13.83-.04.22-.06.36-.07.42h-1.77l1.73-11.17h1.39c.26.71.51,1.38.75,2.02.24.64.47,1.25.69,1.83.12.32.23.65.35.97.12.32.23.63.34.93.11.3.21.58.31.84.1.26.18.49.26.69.08.2.14.36.19.49.05.13.09.21.1.24.01.05.03.1.05.17s.04.13.06.2c.02.07.04.15.06.22.02.07.04.14.06.21.01-.07.03-.14.05-.21.02-.07.04-.15.06-.22.02-.07.04-.14.05-.2.02-.06.03-.12.05-.17,0-.03.03-.11.08-.24.04-.13.1-.29.18-.49.07-.2.16-.43.25-.69.1-.26.2-.54.32-.84.11-.3.23-.61.35-.93.12-.32.25-.64.37-.97.22-.58.44-1.19.68-1.83.24-.64.49-1.31.76-2.02h1.42l1.72,11.17h-1.79Z"/>
    <path class="cls-3" d="m219.47,62.94c-.08.06-.18.1-.3.14-.12.03-.24.05-.38.05-.14,0-.27-.02-.41-.06-.14-.04-.27-.1-.4-.18-.13-.08-.25-.2-.35-.34-.1-.14-.19-.32-.25-.53-.34.32-.71.57-1.12.75-.4.18-.81.29-1.21.33-.4.04-.8.02-1.17-.08-.38-.09-.71-.24-1-.44-.29-.21-.53-.47-.7-.79-.18-.32-.26-.68-.26-1.1s.06-.78.19-1.11c.12-.32.3-.61.53-.85.23-.25.51-.45.83-.62.32-.17.68-.31,1.08-.42.39-.11.82-.18,1.27-.23.46-.05.93-.07,1.43-.07-.03-.06-.05-.13-.06-.23-.01-.09-.02-.19-.02-.28,0-.09,0-.17,0-.24,0-.07,0-.12,0-.13,0-.14-.05-.28-.15-.41-.1-.13-.25-.25-.44-.35-.19-.1-.42-.18-.69-.23-.27-.05-.58-.07-.91-.05-.34.02-.7.08-1.1.19-.39.1-.81.26-1.25.47l-.37-1.21c.3-.16.62-.31.96-.43.35-.12.7-.22,1.06-.29.36-.07.72-.11,1.09-.13.36-.02.71,0,1.05.05.33.05.65.13.94.25.29.12.54.28.76.47.21.2.38.44.5.72.12.28.18.61.18.98v4.64c0,.52.31.78.92.78l-.23,1Zm-2.21-4.59c-.64.06-1.19.15-1.66.26-.47.12-.85.26-1.15.44-.3.18-.52.38-.67.62-.14.24-.22.51-.22.82,0,.22.05.41.14.57.09.16.23.29.39.39.17.1.37.17.6.21.23.04.48.05.74.02.27-.02.54-.08.84-.17.29-.09.58-.21.88-.37v-2.38c0-.05,0-.12.03-.19.02-.07.05-.15.08-.24"/>
    <path class="cls-3" d="m227.16,62.92v-5.78c0-.31-.06-.58-.18-.83-.12-.24-.29-.43-.49-.58-.21-.15-.45-.24-.72-.28-.27-.04-.56-.02-.87.06-.3.08-.62.23-.93.45-.32.22-.62.52-.92.89v6.07h-1.62v-6.68c0-.18-.02-.33-.06-.45-.04-.12-.09-.22-.15-.29-.06-.08-.13-.13-.2-.17-.07-.04-.15-.06-.22-.08-.07-.01-.14-.02-.21-.02h-.15l.23-1.02c.32-.12.63-.18.92-.17.29.01.54.08.76.19.22.12.39.28.52.49.13.21.19.45.19.73l.06.04c.2-.28.43-.52.7-.72.27-.2.56-.36.86-.48.3-.12.62-.19.94-.23.32-.03.63-.02.94.03.31.05.6.15.87.29.27.14.51.32.71.55.2.23.37.5.49.82.12.32.18.68.18,1.09v6.07h-1.62Z"/>
    <path class="cls-3" d="m238.21,62.94c-.08.06-.18.1-.3.14-.12.03-.24.05-.38.05-.13,0-.27-.02-.41-.06-.14-.04-.27-.1-.4-.18-.13-.08-.25-.2-.35-.34-.1-.14-.19-.32-.25-.53-.34.32-.71.57-1.12.75-.4.18-.81.29-1.21.33-.4.04-.8.02-1.17-.08-.38-.09-.71-.24-1-.44-.29-.21-.52-.47-.7-.79-.18-.32-.26-.68-.26-1.1s.06-.78.19-1.11c.12-.32.3-.61.53-.85.23-.25.51-.45.83-.62.32-.17.68-.31,1.08-.42.39-.11.82-.18,1.27-.23.46-.05.93-.07,1.43-.07-.03-.06-.05-.13-.06-.23-.01-.09-.02-.19-.03-.28,0-.09,0-.17,0-.24,0-.07,0-.12,0-.13,0-.14-.05-.28-.15-.41-.1-.13-.25-.25-.44-.35-.19-.1-.42-.18-.69-.23-.27-.05-.58-.07-.91-.05-.34.02-.7.08-1.1.19-.39.1-.81.26-1.25.47l-.37-1.21c.3-.16.62-.31.96-.43.35-.12.7-.22,1.06-.29.36-.07.72-.11,1.09-.13.36-.02.71,0,1.05.05.33.05.65.13.94.25.29.12.54.28.76.47.21.2.38.44.5.72.12.28.18.61.18.98v4.64c0,.52.31.78.92.78l-.22,1Zm-2.21-4.59c-.64.06-1.19.15-1.66.26-.47.12-.85.26-1.15.44-.3.18-.52.38-.67.62-.15.24-.22.51-.22.82,0,.22.05.41.14.57.1.16.23.29.39.39.17.1.37.17.6.21.23.04.48.05.74.02.27-.02.54-.08.84-.17.29-.09.58-.21.88-.37v-2.38c0-.05,0-.12.03-.19.02-.07.04-.15.08-.24"/>
    <path class="cls-3" d="m247.76,55.35c-.07.03-.17.04-.31.04-.14,0-.29,0-.45-.02-.16-.02-.33-.04-.5-.06-.17-.02-.32-.05-.45-.08l-.16.12c.23.21.41.45.55.73.14.28.23.56.27.87.04.3.04.61-.01.93-.05.31-.15.61-.29.9-.14.28-.33.54-.58.77-.24.23-.53.42-.86.57-.33.15-.71.24-1.14.29-.43.04-.9.01-1.43-.09-.09.05-.18.12-.27.2-.09.08-.15.16-.2.25-.05.09-.08.19-.07.28,0,.1.04.19.12.28.08.09.21.18.39.26.18.08.42.15.72.2.38.07.76.14,1.12.21.36.06.7.14,1.02.23.32.09.61.19.88.31.27.12.5.26.7.44.2.17.35.38.47.62.12.24.19.53.2.86.02.37-.03.71-.17,1.01-.14.31-.33.58-.58.81-.25.24-.55.44-.9.62-.34.17-.72.31-1.11.41-.39.1-.8.16-1.22.19-.42.03-.83.02-1.23-.02-.4-.05-.79-.13-1.15-.25-.36-.12-.68-.29-.96-.49-.28-.2-.5-.45-.67-.73-.17-.28-.26-.61-.28-.98-.02-.27.03-.53.14-.78.11-.25.28-.47.49-.68.21-.2.46-.38.75-.52.29-.15.61-.25.95-.32-.01-.01-.02-.03-.02-.04,0-.03,0-.05.02-.06-.31-.05-.57-.15-.77-.28-.2-.13-.36-.29-.46-.47-.1-.18-.16-.37-.16-.56,0-.2.04-.39.13-.58.09-.19.22-.35.4-.5.18-.15.4-.27.66-.35-.18-.12-.37-.26-.56-.42-.19-.16-.37-.35-.52-.57-.16-.21-.28-.46-.38-.72-.1-.27-.15-.57-.15-.89,0-.4.05-.75.16-1.07.1-.32.24-.59.42-.83.18-.24.39-.44.63-.61.24-.17.5-.31.78-.42.28-.11.57-.19.87-.24.3-.05.61-.08.91-.08.18,0,.35.02.51.04.16.03.31.07.45.11.14.04.27.09.38.15.12.05.22.1.3.15.08-.04.19-.06.32-.08.13-.01.27-.03.42-.03.15,0,.31-.02.47-.03.16-.01.31-.03.45-.07.14-.03.27-.08.38-.14.11-.06.19-.15.25-.25l.31,1.46Zm-1.85,9.37c-.03-.25-.09-.46-.2-.63s-.24-.31-.39-.41c-.16-.11-.34-.19-.53-.25-.19-.06-.4-.12-.61-.16-.21-.04-.42-.08-.62-.12-.21-.04-.4-.08-.57-.14-.35.1-.66.22-.92.37-.26.15-.48.32-.66.5-.17.18-.31.37-.39.56-.09.2-.13.39-.12.57.01.25.09.47.25.65.15.18.35.32.6.43.24.11.52.18.83.22.31.04.62.05.94.03.32-.02.62-.07.92-.16.3-.08.56-.19.79-.33.23-.14.41-.3.54-.49.13-.19.18-.41.16-.64m-2.66-5.41c.33,0,.61-.06.85-.18.24-.12.43-.28.58-.47.15-.2.26-.42.33-.67.07-.25.1-.51.09-.77,0-.26-.06-.52-.14-.77-.09-.25-.21-.47-.37-.67-.16-.19-.35-.35-.57-.47-.22-.12-.48-.18-.77-.18-.32,0-.59.06-.82.18-.23.12-.43.28-.58.47-.15.19-.27.42-.34.67-.07.25-.11.51-.1.77,0,.26.05.52.13.77.08.25.2.47.35.67.15.19.34.35.57.47.23.12.49.18.79.18"/>
    <path class="cls-3" d="m256.49,58.65h-5.7c0,.42.06.79.17,1.12.11.33.26.62.45.86.19.24.41.44.66.6.25.16.52.27.81.35.28.07.58.1.88.09.3,0,.59-.06.87-.15.28-.09.55-.23.8-.41.25-.18.47-.4.65-.66l.78,1.09c-.24.33-.53.6-.88.83-.35.23-.72.41-1.13.53-.41.12-.83.19-1.27.21-.44.01-.88-.03-1.3-.14-.42-.1-.83-.27-1.21-.5-.38-.23-.72-.52-1.01-.89-.29-.36-.52-.79-.69-1.29s-.26-1.07-.26-1.72c0-.38.04-.76.11-1.13.08-.37.19-.73.34-1.06.15-.34.34-.65.58-.94.23-.29.51-.54.82-.75.31-.21.67-.38,1.08-.5.4-.12.85-.18,1.33-.18.44,0,.84.05,1.2.14.36.1.67.23.95.4.28.17.52.37.72.61.2.23.37.49.5.76.13.27.23.56.29.86.06.3.1.61.1.91l-.64.92Zm-.88-1.15c-.04-.27-.1-.51-.2-.72-.1-.21-.21-.39-.35-.54-.13-.15-.28-.28-.44-.38-.16-.1-.31-.18-.47-.24-.15-.06-.3-.1-.45-.13-.14-.02-.27-.04-.37-.04-.33,0-.63.06-.91.18-.28.12-.53.28-.74.47-.21.19-.38.41-.51.66-.13.24-.21.49-.23.74h4.67Z"/>
    <path class="cls-3" d="m269.88,62.92v-5.66c0-.34-.06-.64-.17-.89-.11-.25-.27-.46-.46-.61-.19-.15-.42-.25-.67-.29-.25-.04-.52-.02-.8.06-.28.08-.56.23-.85.45-.29.21-.56.5-.82.86v6.07h-1.62v-5.66c0-.34-.06-.64-.17-.89-.12-.25-.27-.46-.46-.61-.19-.15-.42-.25-.67-.29-.25-.04-.52-.02-.8.06-.28.08-.56.23-.85.45-.29.21-.56.5-.81.86v6.07h-1.62v-6.68c0-.18-.02-.33-.06-.45-.04-.12-.09-.22-.15-.29-.06-.08-.13-.13-.2-.17-.07-.04-.15-.06-.22-.08-.07-.01-.14-.02-.21-.02h-.15l.23-1.02c.32-.12.63-.18.92-.17.29.01.54.08.75.19.22.12.39.28.52.49.13.21.19.45.19.73l.06.04c.24-.37.51-.67.82-.89.31-.22.63-.37.97-.46.34-.09.68-.12,1.02-.08.34.03.66.11.96.25.3.13.56.3.79.52.23.22.41.46.53.74h.08c.2-.29.43-.54.69-.75.26-.21.54-.37.84-.5.3-.12.6-.2.92-.24.32-.04.62-.03.92.02.3.05.58.15.84.3.27.14.5.33.69.57.2.24.36.52.47.86.12.33.18.71.18,1.14v5.95h-1.62Z"/>
    <path class="cls-3" d="m280.75,58.65h-5.7c0,.42.06.79.17,1.12.11.33.26.62.45.86.19.24.41.44.66.6.25.16.52.27.81.35.29.07.58.1.88.09.3,0,.59-.06.87-.15.28-.09.55-.23.8-.41.25-.18.47-.4.65-.66l.78,1.09c-.24.33-.53.6-.88.83-.35.23-.72.41-1.13.53-.41.12-.83.19-1.27.21-.44.01-.88-.03-1.3-.14-.42-.1-.83-.27-1.21-.5-.38-.23-.72-.52-1.01-.89-.29-.36-.52-.79-.69-1.29-.17-.5-.26-1.07-.26-1.72,0-.38.04-.76.11-1.13.07-.37.19-.73.34-1.06.15-.34.34-.65.58-.94.23-.29.51-.54.82-.75.31-.21.67-.38,1.08-.5.4-.12.85-.18,1.33-.18.44,0,.84.05,1.2.14.36.1.67.23.95.4.28.17.52.37.72.61.2.23.37.49.5.76.13.27.23.56.29.86.06.3.1.61.1.91l-.64.92Zm-.88-1.15c-.04-.27-.1-.51-.2-.72-.1-.21-.21-.39-.35-.54-.13-.15-.28-.28-.44-.38-.16-.1-.31-.18-.47-.24-.15-.06-.3-.1-.45-.13-.14-.02-.27-.04-.37-.04-.33,0-.63.06-.91.18-.28.12-.53.28-.74.47-.21.19-.38.41-.51.66-.13.24-.21.49-.23.74h4.67Z"/>
    <path class="cls-3" d="m289.09,62.92v-5.78c0-.31-.06-.58-.18-.83-.12-.24-.29-.43-.49-.58-.21-.15-.45-.24-.72-.28-.27-.04-.56-.02-.87.06-.31.08-.62.23-.93.45-.32.22-.62.52-.92.89v6.07h-1.62v-6.68c0-.18-.02-.33-.06-.45-.04-.12-.09-.22-.15-.29-.06-.08-.13-.13-.2-.17-.07-.04-.15-.06-.22-.08-.07-.01-.14-.02-.21-.02h-.15l.23-1.02c.32-.12.63-.18.91-.17.29.01.54.08.76.19.22.12.39.28.52.49.13.21.19.45.19.73l.06.04c.2-.28.43-.52.7-.72.27-.2.56-.36.86-.48.3-.12.62-.19.94-.23.32-.03.63-.02.94.03.31.05.6.15.87.29.27.14.51.32.71.55.2.23.37.5.49.82.12.32.18.68.18,1.09v6.07h-1.62Z"/>
    <path class="cls-3" d="m297.36,62.73c-.53.19-1,.32-1.41.37-.41.06-.77.06-1.08,0-.31-.05-.57-.15-.79-.3-.21-.15-.39-.33-.52-.55-.14-.21-.23-.46-.29-.73-.06-.27-.09-.55-.09-.85v-4.7s0-.09,0-.15c0-.06.01-.12.03-.18.01-.06.03-.12.04-.17.02-.05.04-.1.06-.14-.04.02-.08.03-.13.03-.05,0-.1.01-.16.02-.05,0-.11,0-.16,0h-.8v-.9c.28,0,.51-.04.7-.09.19-.05.34-.12.47-.21.12-.09.22-.2.29-.34.07-.14.13-.3.18-.49.05-.19.09-.41.13-.65.04-.25.08-.52.14-.83h.88l-.04,2.11s0,.04,0,.08c0,.04-.01.08-.02.12,0,.04-.02.08-.03.12-.01.04-.03.06-.04.07.03,0,.06-.02.08-.02.02,0,.05,0,.08-.02.07-.01.14-.02.19-.03.05,0,.09-.01.12-.01h1.74v1.09h-1.76c-.08,0-.16,0-.22,0-.06,0-.14-.01-.23-.04.01.02.03.06.04.11.01.05.02.11.02.17,0,.06,0,.12.01.19,0,.06,0,.11,0,.15v4.45c0,.28.04.52.12.72.08.2.21.35.4.44.18.1.42.15.72.14.29,0,.65-.07,1.08-.19l.25,1.19Z"/>
  </g>
  <g id="Layer_2-2" data-name="Layer 2">
    <g>
      <path class="cls-3" d="m71.18,35.93c0,19.47-15.78,35.25-35.25,35.25S.67,55.4.67,35.93,16.46.68,35.93.68s35.25,15.78,35.25,35.25Z"/>
      <path class="cls-5" d="m59.8,35.75c0,13.37-10.84,24.21-24.21,24.21s-24.21-10.84-24.21-24.21,10.84-24.21,24.21-24.21,24.21,10.84,24.21,24.21Z"/>
      <path class="cls-4" d="m9.85,47.03c-.03-.1-.05-.17-.06-.22l.8.32c.03.19.05.31.06.38.05.52-.13.86-.55,1.01l-1.35.51c0,.05-.01.22-.01.49,0,.28-.04.6-.11.98-.02.1-.04.2-.06.29l2.34-.89,1.04.79-3.61,1.37-1.02-.79c.16-.18.37-.46.62-.84.08-.16.14-.41.18-.73,0-.1.02-.25.03-.45l-.77.29-1.03-.82s.11-.08.19-.14c.27-.21.47-.41.59-.59.07-.09.14-.25.23-.47.04-.1.07-.19.11-.3.08.03.15.06.2.09.14.08.25.15.33.22.14.12.26.23.34.34,0,0,.03.04.06.08l1.3-.49c.17-.06.22-.21.16-.45Zm-1.79,1.06s0-.07-.03-.14c-.05-.14-.1-.24-.14-.3-.01,0-.02.01-.03.02,0,.08-.03.19-.09.35-.02.05-.05.12-.1.22l.4-.15Z"/>
      <path class="cls-4" d="m12.77,52.12c.05.12.08.22.08.29.02.22-.05.4-.21.52-.05.04-.09.06-.11.07-.09.04-.33.05-.7.02-.37-.03-.71.07-1,.32-.22.18-.31.55-.28,1.11l.13.74s.09.04.12.04c.1.01.2-.02.29-.09.19-.14.34-.42.46-.84.05-.18.15-.33.28-.42.19-.14.45-.19.77-.15.1.01.25.05.44.11,0-.02,0-.04-.01-.06-.03-.14-.03-.26,0-.37,0-.05.03-.08.05-.1.01,0,.03-.01.05,0l1.06.22c-.07.13-.11.23-.13.31-.05.25,0,.48.15.69.12.16.28.27.49.36.21.08.39.1.53.06-.06.02-.12.04-.17.06-.13.02-.25.04-.36.04-.02,0-.1-.02-.23-.05l-.19-.04c.01.06.02.12.03.18.02.23.01.43-.04.61-.03.11-.08.19-.13.23l-1.97,1.46-1.15-.53,2.25-1.66c.15-.12.2-.34.12-.68-.02-.09-.07-.21-.14-.35-.02-.03-.06-.1-.12-.21-.02-.03-.07-.01-.15.04-.18.14-.38.46-.59.98-.05.11-.12.21-.22.28-.2.15-.51.21-.93.2-.36-.02-.7-.07-1.02-.16-.11-.04-.27-.09-.48-.16-.02-.03-.05-.18-.08-.45-.11-.89.03-1.49.44-1.79.15-.11.43-.16.84-.16.41,0,.68-.04.8-.14.16-.12.21-.29.14-.5-.02-.05-.04-.13-.09-.23l.98.21Z"/>
      <path class="cls-4" d="m16.58,57.47l-1.51-1.31,1.16-.07,1.73,1.5-2.54,2.92-1.28-.22,2.45-2.81Z"/>
      <path class="cls-4" d="m19.51,58.5l1.97,1.36-2.17,3.14-1.48-.14s-.06-.05-.1-.09c-.15-.14-.29-.31-.4-.5-.07-.11-.11-.26-.13-.47,0-.09.01-.19.02-.28l.89-.03c-.05.08-.08.14-.1.18-.06.15-.06.27,0,.38.08.18.18.3.29.37.03.02.05.02.05.01l1.76-2.55-1.65-1.14,1.05-.26Z"/>
      <path class="cls-4" d="m20.17,58.25c.07.04.2.06.4.06.06,0,.15,0,.27-.02-.17.05-.31.08-.43.1-.33.05-.58.04-.77-.05-.03-.01-.07-.03-.12-.06-.2-.12-.4-.3-.6-.56-.08-.12-.15-.24-.22-.36.08-.02.21-.06.39-.1.27-.06.59-.08.94-.08.5,0,.92.11,1.26.31.5.29.93.79,1.29,1.5.04.08.09.2.17.36l-.97.19c.01-.13,0-.23,0-.31-.05-.26-.19-.53-.41-.81-.33-.41-.64-.71-.93-.88-.2-.11-.4-.2-.6-.25-.07-.02-.15-.03-.24-.04.02.12.04.25.06.37.14.29.32.5.53.62Z"/>
      <path class="cls-4" d="m22.63,60.62c.13.14.23.25.28.33.18.26.23.49.15.68-.04.08-.19.19-.46.36-.25.15-.42.35-.52.59-.04.11-.08.24-.12.4-.08.32-.02.71.16,1.17.1.19.21.38.31.57.06-.03.1-.06.14-.08.1-.09.19-.21.25-.36.1-.26.13-.59.08-1-.02-.19,0-.39.09-.6.15-.37.46-.69.93-.96.41-.23.7-.31.86-.25l1.72.68-1.43,3.59-1.28.22,1.39-3.5-1.11-.44c-.06-.02-.1,0-.12.07,0,.11-.02.47-.04,1.06-.01.34-.05.6-.12.78l-.04.09s-.02.03-.03.04c-.3.51-.85.85-1.65,1.02-.14.02-.28.03-.42.05-.03-.01-.11-.12-.26-.34-.48-.71-.61-1.32-.4-1.84.07-.17.27-.36.6-.57.33-.21.53-.38.58-.53.08-.21.02-.41-.19-.58-.03-.02-.11-.08-.25-.18l.91-.46Z"/>
      <path class="cls-4" d="m28.5,62.78c.05-.01.11-.01.16,0,.15.03.31.14.48.31.16.17.23.26.2.27l-.82.44s-.02-.08-.03-.14c-.07-.19-.23-.32-.5-.37-.21-.04-.33,0-.35.12-.02.11.02.25.13.42s.22.3.35.39c.17.11.35.19.54.23.14.03.28.04.43.02.05,0,.11-.02.17-.03-.18.04-.39.11-.62.2-.57.22-.88.44-.92.68-.06.28.19.63.75,1.04.29.16.58.31.87.46l.65-3.15,1.25-.45-.71,3.45-1.92.64c-.06.02-.26-.06-.6-.22-1.01-.49-1.46-.99-1.36-1.5,0,0,0-.02,0-.03.05-.24.27-.43.66-.58.13-.05.32-.09.58-.14-.59-.13-.92-.41-.96-.84,0-.02,0-.04,0-.08.04-.2.25-.43.63-.68.36-.24.68-.4.97-.47Z"/>
      <path class="cls-4" d="m33.88,64.36l-2-.13.88-.76,2.28.15-.25,3.86-1.15.6.25-3.72Z"/>
      <path class="cls-4" d="m37.52,68.39s-.14-.09-.29-.22c-.57-.47-.87-.95-.91-1.42-.05-.7.24-1.32.89-1.86.19-.16.3-.24.33-.25l-1.58.13.6-.86,4-.32.31,3.85-1.12.77c-.05-.05-.2-.27-.43-.63l-.74-1.16c-.19-.3-.46-.62-.81-.95-.17-.12-.34-.24-.51-.37-.04.09-.07.17-.11.26-.04.22-.05.45-.04.67.02.26.09.48.2.65.2.31.41.54.63.68.13.08.3.13.5.14l-.93.9Zm.66-3.79l.34.35c.16.16.27.27.33.34.03.03.21.24.52.61.07.08.16.19.29.33l-.14-1.74-1.34.11Z"/>
      <path class="cls-4" d="m39.04,61.72s-.05.1-.08.15c-.05.13-.07.23-.06.31.04.26.37.34.98.23.26-.04.54-.2.84-.45.24-.2.45-.43.65-.68.05-.07.14-.19.25-.34-.05.12-.14.28-.27.51-.22.37-.51.71-.86,1.02-.45.4-.93.64-1.43.72-.32.05-.66,0-1.02-.15-.14-.09-.28-.18-.42-.27l1.41-1.04Z"/>
      <path class="cls-4" d="m42.79,62.96s.09-.06.14-.08c.15-.04.34-.02.57.06.22.07.32.12.3.14l-.52.77s-.05-.06-.09-.11c-.15-.14-.35-.17-.62-.09-.2.06-.29.15-.26.27.03.1.13.21.31.31.17.1.33.16.48.18.2.02.4,0,.59-.05.14-.04.27-.1.39-.18.04-.03.09-.06.13-.11-.14.13-.29.28-.45.47-.4.46-.57.8-.5,1.03.08.28.46.47,1.14.57.33,0,.66,0,.98,0l-.89-3.09.89-.97.98,3.39-1.4,1.46s-.26.07-.63.08c-1.12.03-1.76-.2-1.9-.7,0,0-.01-.01-.02-.02-.07-.24.04-.51.31-.82.09-.1.24-.23.44-.39-.59.16-1.01.06-1.25-.29,0-.01-.02-.04-.03-.08-.06-.2.02-.49.23-.9.21-.38.42-.67.64-.86Z"/>
      <path class="cls-4" d="m47.16,61.96c-.09.04-.16.06-.21.08l.25-.82c.18-.05.31-.08.38-.1.51-.1.86.05,1.06.45l.63,1.3c.05,0,.21,0,.49-.03.28-.03.61-.02.99.02.1.01.2.02.3.04l-1.1-2.25.7-1.11,1.69,3.47-.69,1.09c-.19-.14-.49-.32-.89-.55-.17-.06-.42-.1-.75-.11-.1,0-.25,0-.45,0l.36.74-.72,1.1s-.09-.1-.16-.17c-.24-.25-.45-.43-.64-.53-.1-.06-.26-.12-.49-.18-.1-.03-.2-.06-.3-.08.03-.08.05-.15.08-.21.06-.14.12-.26.19-.35.1-.15.2-.28.3-.37,0,0,.03-.03.08-.07l-.62-1.25c-.08-.16-.23-.2-.46-.12Zm1.22,1.68s-.06,0-.13.04c-.13.06-.22.12-.28.17,0,.01.01.03.03.03.07-.01.19,0,.35.06.05.01.12.04.22.08l-.19-.38Z"/>
      <path class="cls-4" d="m52.29,58.69c.12-.05.21-.08.29-.09.22-.03.4.04.52.2.04.05.06.09.08.11.04.09.06.33.04.7-.02.37.09.71.34.99.19.22.56.3,1.12.26l.74-.15c.02-.05.04-.09.04-.12.01-.1-.02-.2-.09-.29-.14-.18-.42-.33-.85-.44-.19-.05-.33-.14-.43-.27-.14-.19-.2-.44-.17-.77,0-.1.04-.25.1-.44-.02,0-.04,0-.05.01-.14.03-.26.03-.37.01-.05,0-.08-.02-.1-.04,0-.01-.01-.03-.01-.05l.2-1.06c.13.06.24.1.32.12.25.05.48,0,.69-.17.15-.12.27-.28.35-.5.08-.21.09-.39.04-.54.02.06.04.12.06.17.03.13.04.25.05.36,0,.02-.01.09-.04.23l-.04.19c.06-.01.12-.02.18-.03.23-.03.43-.02.62.03.11.03.19.07.23.13l1.5,1.94-.5,1.16-1.71-2.21c-.12-.15-.35-.19-.68-.11-.09.02-.21.07-.35.15-.03.02-.1.06-.21.12-.03.02,0,.07.05.15.14.18.47.37.99.57.12.04.21.11.29.21.15.19.22.5.21.92,0,.35-.05.7-.14,1.03-.04.11-.09.27-.15.48-.03.02-.18.05-.45.09-.89.13-1.49,0-1.8-.4-.11-.15-.17-.43-.18-.84,0-.41-.06-.68-.15-.8-.12-.16-.29-.2-.51-.13-.05.02-.13.05-.23.09l.19-.99Z"/>
      <path class="cls-4" d="m52.8,57.17c.06-.06.12-.18.16-.37.02-.06.04-.15.05-.26,0,.18,0,.32-.02.44-.04.33-.12.57-.24.73-.02.03-.05.06-.09.1-.17.16-.4.31-.69.44-.13.04-.27.08-.4.12,0-.09,0-.22,0-.4.02-.28.07-.59.17-.93.14-.48.34-.86.62-1.14.41-.4,1-.69,1.78-.85.09-.02.22-.04.39-.07l-.06.98c-.12-.04-.22-.07-.3-.07-.26-.02-.56.04-.89.19-.48.21-.85.44-1.09.67-.16.16-.29.33-.39.51-.03.06-.06.14-.1.22.12.01.25.02.37.04.32-.06.56-.18.73-.35Z"/>
      <path class="cls-4" d="m58.54,51.96l3.01,2.43-.17,1.29-2.9-2.34-1.7,2.1c.09.09.21.19.36.31.18.1.45.11.82.01.16-.06.31-.13.48-.2-.01-.02-.02-.05-.04-.07-.04-.07-.09-.12-.13-.16-.11-.08-.27-.07-.49.03-.02.01-.05.02-.09.04l-.12-.84c.12-.07.2-.12.26-.14.2-.08.36-.07.46.02.06.05.11.11.14.2.09.26.13.56.12.91-.03.58,0,.91.12,1,.25.2.53.24.84.12.1-.04.23-.12.39-.25l.21.84c-.08.06-.16.11-.23.16-.38.19-.71.24-.96.16-.08-.03-.14-.06-.2-.1-.12-.1-.2-.25-.24-.45,0-.18,0-.36,0-.55-.61.28-1.06.3-1.37.05-.42-.34-.61-.92-.56-1.73.02-.26.04-.41.07-.46l1.92-2.38Z"/>
      <path class="cls-4" d="m63.78,51.89s-.15.08-.34.14c-.7.25-1.26.26-1.68.06-.63-.31-1.01-.88-1.15-1.72-.04-.25-.05-.38-.04-.41l-.7,1.42-.44-.96,1.76-3.6,3.47,1.7.09,1.35c-.08.02-.33.03-.76.05l-1.37.04c-.36,0-.77.08-1.23.21-.19.08-.38.17-.58.25.05.08.11.15.17.22.17.15.36.28.56.37.24.12.46.17.66.16.37-.01.67-.08.9-.2.14-.07.26-.19.37-.36l.29,1.26Zm-2.93-2.5l.48-.12c.22-.05.37-.09.45-.11.05-.01.31-.06.8-.14.1-.02.24-.05.43-.08l-1.56-.76-.59,1.21Z"/>
      <path class="cls-4" d="m8.38,21.23c.04-.05.13-.13.29-.22.16-.09.24-.13.26-.11l.17.99s-.08,0-.14.02c-.11.02-.19.05-.24.09-.04.02-.13.12-.25.29-.05.07,0,.15.14.23.17.1.34.15.51.13.27-.02.48-.04.62-.06.53-.09,1-.29,1.44-.58.08-.08.17-.15.25-.23l-2.56-1.52-1.46,2.46-.35-.99,1.71-2.87,3.09,1.84-.12,1.96s0,.03-.01.04c-.05.08-.22.2-.52.36-.37.19-.75.33-1.13.41-.47.09-.83.07-1.09-.09-.25-.15-.47-.43-.66-.83-.21-.47-.22-.86-.03-1.18.04-.06.07-.11.09-.13Z"/>
      <path class="cls-4" d="m11.33,16.85c.11-.06.2-.09.26-.11.21-.05.37-.03.5.07.22.18.25.66.09,1.44-.05.26-.03.43.08.52.21.17.43.22.67.17.2-.11.4-.22.6-.34l.12.95c.01.05-.12.14-.38.28-.3.15-.57.19-.79.13-.07-.02-.14-.05-.2-.1-.15-.12-.24-.34-.26-.65,0-.14,0-.29,0-.43-.62.29-1.08.31-1.38.07-.46-.38-.57-1.06-.33-2.05.08-.34.16-.52.23-.55.13-.01.25-.03.35-.05.27-.05.45-.13.56-.26.12-.14.18-.34.18-.61,0-.07,0-.19-.03-.36.16-.1.26-.17.31-.2.24-.14.42-.2.56-.2.17.02.33.1.49.22l2.23,1.84-.2,1.3-2.74-2.25c-.1-.08-.3-.02-.58.2-.03.12-.05.25-.08.37-.09.29-.2.5-.33.63-.11.1-.29.21-.56.3-.09.03-.21.07-.35.11.02.11.04.2.06.27.06.19.14.33.24.41.02.02.04.03.06.04.15.08.43.07.84-.04.04-.01.24-.07.58-.19,0-.01-.01-.03-.01-.04-.03-.03-.05-.06-.09-.09-.15-.13-.33-.13-.53,0-.03.02-.07.05-.12.08l-.03-.86Z"/>
      <path class="cls-4" d="m15.43,18.56c-.21-.2-.17-.45.11-.74.29-.3.54-.34.75-.13.21.2.17.45-.11.74-.29.3-.54.34-.75.13Z"/>
      <path class="cls-4" d="m15.24,12.96c.12-.04.21-.06.28-.06.21-.02.37.03.48.16.18.21.13.69-.16,1.43-.1.25-.1.42-.02.52.17.2.38.3.63.28.22-.07.43-.15.65-.23l-.05.95c0,.05-.13.12-.43.21-.32.09-.59.09-.8,0-.07-.03-.13-.08-.18-.14-.13-.15-.17-.38-.14-.69.03-.14.05-.28.08-.42-.66.18-1.12.12-1.37-.17-.39-.46-.38-1.15.03-2.08.14-.32.25-.49.33-.5.13,0,.24.01.35.01.27,0,.47-.05.59-.16.14-.12.23-.31.28-.57.01-.07.03-.19.03-.36.17-.07.29-.12.34-.14.26-.09.45-.13.59-.1.17.05.31.15.44.3l1.88,2.2-.43,1.25-2.31-2.7c-.08-.1-.29-.07-.61.09-.05.12-.1.23-.15.35-.14.27-.29.46-.43.56-.12.09-.32.15-.6.2-.1.02-.22.03-.36.04,0,.11,0,.2.01.27.02.2.08.35.16.45.02.02.04.04.05.05.14.1.42.14.84.11.04,0,.24-.03.6-.08,0-.01,0-.03,0-.04-.02-.04-.04-.07-.07-.11-.13-.15-.3-.18-.52-.09-.04.02-.08.03-.13.06l.12-.85Z"/>
      <path class="cls-4" d="m19.56,9.58l-1.74,1.07.3-1.13,2-1.23,2,3.25-.64,1.17-1.93-3.14Z"/>
      <path class="cls-4" d="m21.57,8.28l.46-.89c.13.02.27.03.41.04.29.07.46.17.53.32l.02.04c.04.17,0,.56-.16,1.16-.07.26-.06.47,0,.63.02.04.03.08.05.1.16.26.41.43.76.54.46.14.81.16,1.03.06.06-.02.16-.11.29-.29.13-.18.19-.28.17-.31l-1.03-2.44.8-1.08,1.19,2.82-.63.45c.06,0,.15-.02.25-.04.25-.03.49,0,.71.11.11.06.17.1.16.11l-.45.89c-.39-.35-.76-.45-1.1-.31-.19.08-.34.28-.44.59-.08.26-.12.4-.12.42-.03.01-.18.02-.46,0-.9-.04-1.45-.29-1.64-.73-.08-.19-.08-.43,0-.71.17-.61.24-.98.19-1.11,0-.02-.02-.04-.02-.07-.02-.02-.02-.03-.01-.04-.08-.19-.26-.3-.55-.32-.09,0-.23,0-.4.03Z"/>
      <path class="cls-4" d="m22.9,6c-.11-.05-.17-.1-.19-.15,0-.02,0-.05.01-.08l.67-.94c.09-.12.3-.23.63-.34.04-.01.1-.03.16-.04.11-.04.25-.05.43-.04.2.02.31.06.33.14.01.04,0,.07-.02.11l-.65,1.06c-.07.11-.26.22-.56.32-.11.03-.19.06-.27.07-.15.03-.33,0-.55-.1Zm.3-.66c.03.09.08.15.14.17.12.04.3.05.53.01.07,0,.13-.02.18-.04.16-.05.28-.13.34-.25.02-.03.04-.08.06-.15,0-.02,0-.04,0-.06-.04-.13-.19-.16-.45-.1-.13.03-.22.06-.27.07-.22.07-.38.16-.49.26-.01.03-.03.05-.05.08Z"/>
      <path class="cls-4" d="m36.7,4.6c.07,0,.18.06.33.16.16.1.23.16.22.17l-.79.62s-.05-.07-.08-.11c-.07-.09-.13-.14-.19-.17-.04-.02-.16-.05-.37-.09-.09-.01-.13.06-.14.23,0,.2.03.37.12.51.14.23.26.4.34.51.33.42.73.75,1.19,1,.11.04.21.08.32.11l.14-2.98-2.86-.13.71-.77,3.34.15-.16,3.6-1.79.81s-.03.01-.05,0c-.1,0-.28-.1-.56-.29-.35-.24-.64-.51-.9-.81-.3-.37-.45-.7-.44-1,.01-.3.16-.62.43-.97.31-.41.65-.6,1.02-.58.07,0,.12.01.16.02Z"/>
      <path class="cls-4" d="m37.8,8.39s.08.02.12.04c.29.09.49.21.58.37.05.07.07.13.06.16l-.09.68-1.1.43.11-.87c0-.07,0-.14-.05-.21-.04-.05-.14-.08-.29-.1-.06,0-.12-.01-.17-.01l.82-.49Z"/>
      <path class="cls-4" d="m41.73,4.38c.13.11.21.2.27.26.17.21.23.43.18.63l-.02.06s-.03.05-.03.07c-.06.12-.25.3-.57.51-.29.2-.46.38-.49.51-.02.1-.02.2,0,.3.14.56.4,1.01.77,1.34.24.22.49.35.74.42.07.01.1.02.11,0l1.01-4.12,1.28-.37-1.13,4.59-2,.43c-.08.02-.27-.07-.59-.27-.92-.58-1.29-1.21-1.12-1.91.05-.18.18-.36.39-.52.47-.35.71-.6.75-.73,0-.03.01-.06.01-.09.02-.14-.06-.29-.22-.44-.05-.05-.13-.11-.25-.18l.9-.51Z"/>
      <path class="cls-4" d="m46.09,6.48c-.09-.05-.16-.08-.21-.11l.79-.34c.16.1.27.18.33.22.42.32.55.68.38,1.09l-.55,1.31s.15.16.37.35c.21.19.43.45.67.76.06.09.12.17.18.25l.96-2.28,1.31-.19-1.47,3.52-1.31.18c-.02-.24-.09-.58-.2-1.03-.07-.17-.21-.38-.43-.63-.07-.08-.17-.19-.32-.34l-.31.75-1.33.17c0-.06.02-.13.02-.23.03-.34.02-.62-.03-.83-.03-.11-.09-.28-.19-.49-.04-.09-.09-.19-.15-.28.08-.03.15-.06.21-.07.15-.04.28-.07.39-.09.19-.02.35-.02.49-.01.01,0,.04,0,.1.01l.53-1.27c.07-.16,0-.3-.22-.42Zm-.44,2.01s-.05-.04-.12-.07c-.14-.06-.25-.09-.32-.1,0,.01,0,.03,0,.04.06.05.13.15.2.3.03.05.05.12.1.22l.16-.39Z"/>
      <path class="cls-4" d="m49.05,6.02c-.04-.11-.05-.19-.02-.24,0-.02.04-.03.07-.04l1.14-.16c.15-.02.38.06.68.22.04.02.09.05.14.08.1.06.21.15.32.29.12.16.17.27.13.34-.02.03-.05.05-.1.06l-1.21.26c-.13.03-.34-.04-.62-.19-.1-.05-.18-.1-.23-.15-.13-.09-.23-.25-.3-.47Zm.68-.23c-.04.08-.05.16-.03.22.05.12.17.25.35.39.05.04.11.07.15.1.15.08.29.11.42.08.04,0,.09-.03.15-.06.02-.01.03-.03.04-.04.06-.12-.02-.25-.24-.4-.12-.08-.19-.12-.23-.15-.2-.11-.38-.17-.53-.17-.03,0-.06.02-.09.02Z"/>
      <path class="cls-4" d="m54.25,16.05l2.37-2.19c.12-.11.17-.23.15-.35-.02-.09-.07-.21-.15-.36-.02-.04-.06-.1-.12-.2l1.03.05,2.35,2.54-2.8,2.59-1.28-.4,2.71-2.5-1.02-1.1.03.46-2.01,1.85-1.27-.4Z"/>
      <path class="cls-4" d="m58.31,19.93c.02.06.04.14.1.24.01.03.04.07.07.14l-.93-.3c-.11-.03-.19-.24-.22-.61-.03-.3,0-.49.12-.56l2.62-1.87,1.22.55-2.87,2.05c-.11.07-.14.2-.1.37Z"/>
      <path class="cls-4" d="m58.95,21.01l1,.37c-.36.31-.42.68-.18,1.12.14.25.29.39.46.42.12.02.26-.01.4-.09.35-.19.62-.54.82-1.04.32-.83.36-1.61.11-2.35-.03-.07-.07-.18-.11-.33l1.06.27,1.66,2.99-1.09-.31-.49-.89s-.03.16-.09.34c-.21.69-.53,1.16-.97,1.4-.16.09-.3.14-.44.17-.59.12-1.26-.09-2-.65-.04-.04-.07-.07-.09-.11-.11-.2-.15-.48-.13-.83.02-.33.06-.49.1-.47Z"/>
      <path class="cls-4" d="m35.93,71.86C16.12,71.86,0,55.74,0,35.93S16.12,0,35.93,0s35.93,16.12,35.93,35.93-16.12,35.93-35.93,35.93Zm0-70.51C16.86,1.35,1.35,16.86,1.35,35.93s15.51,34.58,34.58,34.58,34.58-15.51,34.58-34.58S55,1.35,35.93,1.35Z"/>
      <path class="cls-4" d="m35.93,70.21C17.03,70.21,1.65,54.83,1.65,35.93S17.03,1.65,35.93,1.65s34.28,15.38,34.28,34.28-15.38,34.28-34.28,34.28Zm0-68.2C17.22,2.01,2.01,17.22,2.01,35.93s15.22,33.92,33.92,33.92,33.92-15.22,33.92-33.92S54.63,2.01,35.93,2.01Z"/>
      <path class="cls-4" d="m35.59,61.33c-14.1,0-25.57-11.47-25.57-25.57s11.47-25.58,25.57-25.58,25.57,11.47,25.57,25.58-11.47,25.57-25.57,25.57Zm0-50.79c-13.91,0-25.22,11.31-25.22,25.22s11.31,25.22,25.22,25.22,25.22-11.31,25.22-25.22-11.31-25.22-25.22-25.22Z"/>
      <g>
        <path class="cls-4" d="m5.93,36.55c-.45,0-.81-.36-.81-.81s.36-.81.81-.81.81.37.81.81-.36.81-.81.81Zm0-1.51c-.38,0-.7.31-.7.7s.31.7.7.7.7-.31.7-.7-.31-.7-.7-.7Z"/>
        <path class="cls-4" d="m7.52,34.79c-.37-.26-.83.1-.83.1h-.01s-.01-.02-.02-.02c.38-.41-.05-1.25-.05-1.25-.25-.39-.59-1.31-.59-1.31-.06.35-.74,1.34-.74,1.34-.47.8-.04,1.2-.04,1.2,0,0,.02,0,.03,0-.02.01-.03.03-.05.04-.12-.07-.54-.31-.86-.09,0,0-.83.84-1.16.95,0,0,.34.18.83.58,0,0,.6.69,1.13.23,0,0,.02.01.02.02-.05.07-.33.48.1,1.22,0,0,.69.98.74,1.34,0,0,.34-.92.59-1.31,0,0,.5-.85.12-1.26,0,0,0,0,0,0,.53.46,1.13-.23,1.13-.23.49-.4.83-.58.83-.58-.33-.11-1.17-.95-1.17-.95Zm-1.59,1.97c-.56,0-1.02-.46-1.02-1.02s.46-1.02,1.02-1.02,1.02.46,1.02,1.02-.46,1.02-1.02,1.02Z"/>
      </g>
      <g>
        <path class="cls-4" d="m65.6,36.55c-.45,0-.81-.36-.81-.81s.36-.81.81-.81.81.37.81.81-.36.81-.81.81Zm0-1.51c-.39,0-.7.31-.7.7s.31.7.7.7.7-.31.7-.7-.31-.7-.7-.7Z"/>
        <path class="cls-4" d="m67.19,34.79c-.37-.26-.83.1-.83.1h-.01s-.02-.02-.02-.02c.38-.41-.05-1.25-.05-1.25-.25-.39-.59-1.31-.59-1.31-.06.35-.74,1.34-.74,1.34-.47.8-.04,1.2-.04,1.2,0,0,.02,0,.03,0-.02.01-.03.03-.05.04-.12-.07-.54-.31-.85-.09,0,0-.83.84-1.17.95,0,0,.34.18.83.58,0,0,.6.69,1.13.23,0,0,.01.01.02.02-.05.07-.34.48.1,1.22,0,0,.69.98.74,1.34,0,0,.34-.92.59-1.31,0,0,.5-.85.12-1.26,0,0,0,0,0,0,.53.46,1.13-.23,1.13-.23.49-.4.83-.58.83-.58-.33-.11-1.17-.95-1.17-.95Zm-1.59,1.97c-.56,0-1.02-.46-1.02-1.02s.45-1.02,1.02-1.02,1.02.46,1.02,1.02-.46,1.02-1.02,1.02Z"/>
      </g>
      <path class="cls-4" d="m35.59,60.53c-13.66,0-24.78-11.12-24.78-24.78s11.12-24.78,24.78-24.78,24.78,11.12,24.78,24.78-11.12,24.78-24.78,24.78Zm0-48.43c-13.04,0-23.64,10.61-23.64,23.64s10.61,23.64,23.64,23.64,23.64-10.61,23.64-23.64-10.61-23.64-23.64-23.64Z"/>
      <g>
        <path class="cls-1" d="m30.02,49.65s-1.24.34-1.39,2.16c0,0-.03,1.83,1.48,2.89,0,0,1.04.77,1.87.68,0,0,.87.18,1.64-1.7,0,0,.43-1.36.41-2.52l.25.3s-.07,2.6-1.21,3.72c0,0-.61,1.12-2.38.21,0,0-2.16-.84-2.24-3.51,0,0,.02-1.98,1.61-2.46,0,0,.03.15-.04.24Z"/>
        <path class="cls-1" d="m41.41,44.01s-2.18.12-2.72,2.28c0,0-.29.92.18,2.19,0,0,.41,1.31.03,2.11,0,0,1.26-.33,1.41-1.75,0,0,.17-.57-.05-2.26,0,0-.03-1.43,1.28-1.91l-.12-.64Z"/>
        <path class="cls-1" d="m45.17,45.54l-.43-.64s.69-.63.53-1.59c0,0-.1-.71-.69-.69,0,0-.86.07-.5,1.13,0,0-1.25-.18-1.33-1.51,0,0,.03-.78.51-1.04,0,0,.54-.41.97-.13,0,0-.24-.94.95-2.12,0,0,.77-.94,1.57-1.11,0,0-.43.24-.65.9,0,0-.17.4-.04,1.39,0,0,.12.98-.45,1.44,0,0,.08.14.41-.3,0,0,.22-.36.51-.27,0,0-.38.04-.24.93,0,0,.32,1.02-.03,2.03,0,0-.41.91-1.07,1.58Z"/>
        <path class="cls-1" d="m44.1,37.65s.73-2.19-.36-4.46c0,0,.1.9-.34,1.57,0,0-.62.86-.63,1.26,0,0,0-.4-.47-.68,0,0,.18.42-.15.62,0,0-.46.64-.44,1.05,0,0-.01.58.27.84,0,0,.03-.62.47-.61,0,0,.51.04.47.83,0,0-.16.95-.62,1.64,0,0-.07-.64-.56-1.14,0,0-.62-.44-1.15-.18,0,0,0-1.4.33-2.46,0,0,.37-1.14,1.26-1.2,0,0,.44.07.58.5,0,0,0-.26.3-.78,0,0,.79-1.26-.4-4.23,0,0,.1,1.03-.25,1.71,0,0-.41.81-.21,1.2,0,0,.15.4-.22.62,0,0,.07-.35-.24-.77,0,0,.09.39-.06.49,0,0-.62.65-.74,1.05,0,0-.89-1.14-3.51-1.45l.13.41s1.07.09,1.81.67c0,0,.27.44.12.87,0,0,.64.28.73,1.02,0,0,.04,1.05.04,1.91,0,0,.09,1.63-.53,2.29,0,0-.13.15-.33.21,0,0-.27.09-.18.3,0,0,.07.31.38.19,0,0,.52-.24.84-1.18,0,0,.19-.59.16-1.04,0,0,.55-.34.98.28,0,0,.36.64.24,1.38,0,0-.16,1.12-.3,1.79,0,0-.34,1.33,0,2.6,0,0,.25,1.19,1.4,1.44,0,0,.46.16.87-.06,0,0-.01-.28-.28-.51,0,0-1.35.28-1.58-1.19,0,0-.46-1.74.61-3.69,0,0,1.16-1.84,1.55-3.14Zm-3.67-2.19s-.17-.45-.53-.71c0,0,.04-.33-.07-.54,0,0,.54.24.86.67,0,0-.26.39-.26.59Z"/>
        <path class="cls-1" d="m25.83,45.46l.54-.63s-.65-.56-.5-1.52c0,0,.1-.71.69-.69,0,0,.85.07.5,1.13,0,0,1.25-.18,1.33-1.51,0,0-.03-.78-.51-1.04,0,0-.54-.41-.97-.13,0,0,.24-.94-.95-2.12,0,0-.77-.94-1.58-1.11,0,0,.43.24.65.9,0,0,.17.4.04,1.39,0,0-.12.98.46,1.44,0,0-.08.14-.41-.3,0,0-.22-.36-.51-.27,0,0,.38.04.24.93,0,0-.32,1.02.03,2.03,0,0,.27.83.93,1.5Z"/>
        <path class="cls-1" d="m28.59,40.78c1.07,1.94.61,3.69.61,3.69-.22,1.47-1.54,1.22-1.54,1.22-.27.23-.31.48-.31.48.41.22.87.06.87.06,1.16-.25,1.4-1.44,1.4-1.44.34-1.27,0-2.6,0-2.6-.13-.67-.3-1.79-.3-1.79-.12-.74.24-1.38.24-1.38.43-.62.98-.28.98-.28-.03.44.16,1.04.16,1.04.33.95.84,1.18.84,1.18.31.12.38-.19.38-.19.09-.21-.18-.3-.18-.3-.19-.06-.32-.21-.32-.21-.62-.67-.53-2.29-.53-2.29,0-.86.04-1.91.04-1.91.09-.74.72-1.02.72-1.02-.15-.43.12-.87.12-.87.74-.58,1.88-.67,1.88-.67l.13-.41c-2.62.31-3.58,1.45-3.58,1.45-.12-.4-.74-1.05-.74-1.05-.15-.1-.06-.49-.06-.49-.31.41-.24.77-.24.77-.37-.22-.22-.62-.22-.62.21-.38-.21-1.2-.21-1.2-.35-.68-.25-1.71-.25-1.71-1.19,2.97-.4,4.23-.4,4.23.29.52.29.78.29.78.13-.43.58-.5.58-.5.89.06,1.26,1.2,1.26,1.2.33,1.05.33,2.46.33,2.46-.53-.27-1.15.18-1.15.18-.49.5-.56,1.14-.56,1.14-.46-.7-.62-1.64-.62-1.64-.03-.79.47-.83.47-.83.44-.01.47.61.47.61.28-.27.27-.84.27-.84.02-.41-.44-1.05-.44-1.05-.33-.21-.15-.62-.15-.62-.47.28-.47.68-.47.68-.02-.4-.64-1.26-.64-1.26-.44-.67-.34-1.57-.34-1.57-1.09,2.26-.36,4.46-.36,4.46.39,1.29,1.55,3.14,1.55,3.14Zm1.87-5.92c.31-.42.85-.67.85-.67-.11.21-.07.54-.07.54-.37.26-.53.71-.53.71,0-.2-.25-.59-.25-.59Z"/>
        <path class="cls-1" d="m36.03,13.49c0,.23-.19.41-.41.41s-.41-.19-.41-.41.19-.41.41-.41.41.19.41.41Z"/>
        <path class="cls-1" d="m35.62,14.08s.49,2.56.62,3.45c0,0-.43.39-.64.62,0,0-.41-.46-.69-.58,0,0,.24-1.32.71-3.49Z"/>
        <path class="cls-1" d="m28.78,50.97s1.28.02,1.74-1.31c0,0,.21-.68-.3-1.3,0,0-.51-.52-1.19-.33,0,0,.46-.77,1.24-.61,0,0,.93.16,1.22,1.35,0,0,.21,1.23-.46,1.94,0,0-.9,1.3-2.44,1.08l.18-.82Z"/>
        <path class="cls-1" d="m41.61,45.08s-.78.34-.79,1.58c0,0,.07.71.13,1.23,0,0,.15,1.12-.31,1.83,0,0-.43.72-1.28,1.17,0,0-.82.4-1.3.5,0,0,.18-.4.3-.77,0,0,.28-.71-.03-1.8,0,0-.12-.43-.23-1,0,0-.39-1.26.32-2.5,0,0,.83-1.66,2.93-1.76v.24s-1.47,0-2.59,1.41c0,0-.59.94-.5,1.98,0,0,.16.91.29,1.52,0,0,.38,1.64-.11,2.3,0,0,1.03-.16,1.9-1.27,0,0,.53-.72.4-1.77,0,0-.17-.93-.13-1.53,0,0,.14-1.2.98-1.58l.03.22Z"/>
        <path class="cls-1" d="m28.88,50.73s.98-.06,1.34-1.06c0,0,.29-.89-.45-1.31,0,0-.59-.23-1.04-.06,0,0,.08-1.03,1.25-1.18,0,0,1.3-.01,1.74,1.29,0,0,.33.93-.13,2,0,0-.86,1.77-2.97,1.59l.02.2s1.67.26,2.78-1.12c0,0,1.04-1.08.49-2.83,0,0-.61-1.39-1.95-1.28,0,0-1.44.01-1.46,1.65,0,0,.85-.41,1.3.06,0,0,.59.52.03,1.32,0,0-.52.54-.88.53l-.07.2Z"/>
        <path class="cls-1" d="m27.91,50.3s-.98-.6-1.15-2.2c0,0-.16-1.65,1.61-2.69,0,0,1.71-.85,3.19.09,0,0,1.28.72,2,2.19,0,0,.33.53.49,1.89l.28.27s-.03-1.65-1.08-3c0,0-1.04-1.66-2.87-1.99,0,0-1.27-.2-2.31.44,0,0-1.25.69-1.5,2.31,0,0-.28,1.65,1.25,2.9l.1-.21Z"/>
        <path class="cls-1" d="m30.1,49.29s-1.38.17-1.76,1.97c0,0-.3,1.3.5,2.69,0,0,.86,1.57,2.62,2,0,0,1.04.22,1.58-.37,0,0,1.05-.74,1.39-2.78,0,0,.18-.8.13-1.1,0,0,1.01,1.33,1.23,1.91,0,0-.13,1.39-1.23,2.93,0,0-.93,1.36-2.4.87,0,0-2.01-.49-3.6-2.81,0,0-.88-1.34-.74-2.74,0,0-.04-1.36,1.04-2.31,0,0,.7-.58,1.18-.59l.04.33Z"/>
        <path class="cls-1" d="m31.98,48.57s1.2.15,2.49,1.32c0,0,1.47,1.35,2.27,2.23,0,0,1.35,1.54,1.7,1.88,0,0,.49.52.74.52,0,0,.24.15,1.69-1.24,0,0,1.37-1.27,2.21-3.15,0,0,.84-1.57.87-2.91,0,0,.06-1.38-.74-1.86,0,0-.54-.41-1.15-.41l-.09-.15s.53-.17,1.45.5c0,0,.74.64.72,1.78,0,0,.07,1.3-.99,3.4,0,0-.89,1.69-1.73,2.59,0,0-1.57,1.82-2.24,1.77,0,0-.2.02-.59-.25,0,0-.17-.2-1.58-1.85,0,0-1-1.23-1.87-2.04,0,0-1.44-1.25-1.88-1.42,0,0-.9-.54-1.29-.49v-.19Z"/>
        <path class="cls-1" d="m41.84,43.98s1.45-.04,2.34,1.04c0,0,.89.9.9,2.6,0,0,.02,1.48-.65,3.12,0,0-.72,1.85-1.6,2.9,0,0-1.37,1.81-2.17,2.47,0,0-.99.88-1.44,1.06,0,0-.5.31-1.21-.48,0,0-.34-.32-.79-1.41,0,0-.88-1.75-1.85-3.22,0,0-1.63-2.14-3.34-2.54l.06-.54s1.22.18,2.64,1.6c0,0,1.12.98,2.01,2.18,0,0,.93,1.23,1.31,1.68,0,0,.54.67,1,.68,0,0,.59.17,1.71-.93,0,0,1.44-1.29,2.3-2.87,0,0,.93-1.4,1.27-3.19,0,0,.4-1.44-.33-2.54,0,0-.48-.89-2.05-1.02l-.08-.57Z"/>
        <path class="cls-1" d="m41.77,43.55s1.25-.07,2.4.85c0,0,.95.78,1.17,1.76,0,0,.42.98.14,2.7,0,0-.28,1.97-1.41,3.76,0,0-1.05,1.78-1.73,2.55,0,0-.99,1.17-1.97,1.92,0,0-.87.78-1.42.72,0,0-.96.11-1.82-1.4,0,0-.6-1.22-.93-1.93,0,0-.79-1.58-1.73-2.77,0,0-.83-1.23-2.49-1.81v-.2s1.21.31,2.36,1.52c1.09,1.23.98,1.32,1.58,2.26,0,0,.62,1.08.9,1.74,0,0,.34.67.59,1.1,0,0,.47.83,1.03,1.09,0,0,.48.32,1.14-.04,0,0,.98-.58,2.37-2.1,0,0,.96-1.06,2.08-2.97,0,0,.75-1.34,1.14-3.09,0,0,.51-1.66-.12-3.23,0,0-.42-1.09-1.3-1.65,0,0-.98-.6-1.96-.58v-.2Z"/>
        <path class="cls-1" d="m29.96,48.79s-1.35.33-1.94,1.55c0,0-.68,1.17-.24,2.92,0,0,.49,1.58,1.72,2.77,0,0,1.58,1.59,3.43,1.69,0,0,.98-.06,1.61-.78,0,0,.87-.89,1.45-2.8l.13.18s-.37,1.31-1.42,2.65c0,0-.62.93-1.84.9,0,0-.97.08-2.34-.87,0,0-1.74-.97-2.59-2.98,0,0-.58-1.09-.46-2.26,0,0,.1-1.6,1.2-2.44,0,0,.55-.5,1.23-.64l.05.11Z"/>
        <path class="cls-1" d="m34.63,50.08s.09-1.68-1.38-3.7c0,0-.74-1.05-2.19-1.6,0,0-1.23-.43-2.35-.09,0,0-1.2.24-2.04,1.61,0,0-.64,1.15-.32,2.44,0,0,.28,1.27,1.38,1.95l-.18.73s-1.3-.52-1.77-2.08c0,0-.62-1.65.1-3.17,0,0,1.03-2.11,3.21-2.23,0,0,1.37-.46,3.49,1.05,0,0,1.41.94,2.29,2.48,0,0,1.33,2.32,1.14,3.92l-1.38-1.32Z"/>
        <path class="cls-1" d="m27.56,51.63s-1.5-.44-2.1-2.52c0,0-.52-1.35.1-2.9,0,0,.68-1.81,2.5-2.29,0,0,1.9-.64,3.42.17,0,0,1.66.75,3.01,2.39,0,0,.89,1.02,1.62,3.07,0,0,.37,1.4.3,2.36l.22.23s.25-2.58-1.66-5.27c0,0-1.2-2.13-3.89-3.12,0,0-1.42-.62-3.31,0,0,0-2.27.71-2.71,3.36,0,0-.34,1.69.71,3.29,0,0,.76,1.25,1.75,1.43l.03-.2Z"/>
        <path class="cls-1" d="m35.58,18.79s.04-.35.68-.71c0,0,.3-.14.43-.38,0,0,.18.93-.33,1.4,0,0-.48.51-.76,1.07l-.02-1.38Z"/>
        <path class="cls-1" d="m35.6,18.79s-.03-.35-.67-.71c0,0-.3-.14-.43-.38,0,0-.18.93.33,1.4,0,0,.5.51.79,1.07v-1.38Z"/>
        <path class="cls-1" d="m33.96,20.16h1.24s-.28-.63-.93-1.15c0,0,.2.63-.31,1.15Z"/>
        <path class="cls-1" d="m37.26,20.16h-1.24s.28-.63.93-1.15c0,0-.2.63.31,1.15Z"/>
        <path class="cls-2" d="m37.53,20.49h-3.87c-.28,0-.5.23-.5.51s.23.5.5.5h3.87c.28,0,.51-.23.51-.5s-.23-.51-.51-.51Zm-3.81.73s-.52-.24.02-.53l.73.02s-.25.33.06.51h-.81Zm2.41.01h-1.08c-.15,0-.27-.12-.27-.27s.12-.27.27-.27h1.08c.15,0,.27.12.27.27s-.12.27-.27.27Zm1.33-.01h-.81c.31-.18.05-.51.05-.51l.73-.02c.54.29.02.53.02.53Z"/>
        <path class="cls-1" d="m33.61,21.69h1.7s-.64.77-.91,1.24c0,0-.08-.34-.23-.56,0,0-.51-.58-.56-.69Z"/>
        <path class="cls-1" d="m37.47,21.72l-1.7-.06s.62.79.87,1.28c0,0,.09-.34.25-.55,0,0,.53-.56.58-.67Z"/>
        <g>
          <path class="cls-1" d="m35.04,42.6h.94s.08.16-.06.2v.37s-.07.13-.14.13h-.58s-.1-.06-.09-.16v-.37s-.15-.03-.07-.17Z"/>
          <path class="cls-1" d="m35.21,43.4h.56l.02.15s.19.11.08.41c0,0-.32.71-.37.77,0,0-.34-.61-.42-.95,0,0,0-.15.11-.24l.02-.14Z"/>
          <rect class="cls-1" x="35.14" y="40.18" width=".78" height=".5"/>
          <path class="cls-1" d="m33.76,38.33s-.34.46-.2,1.44c0,0,.12.9,1.16,1.4,0,0,1.24.54,2.17-.34,0,0,1.2-1,.48-2.41,0,0,.42-.54.18-1.6,0,0,.28.28.28.8,0,0,.16-.24.1-.54,0,0,.38.26.36.82,0,0-.02.34-.56.78,0,0-.11.42.17.28,0,0,.67-.49.66-.99,0,0,.48.64.24,1.12,0,0-.22.46-.37.55,0,0,.29.02.39-.28,0,0,.2.84-.85.97,0,0-.33.07-.46.01,0,0-.19.19-.01.25,0,0,.54.25,1.15-.16,0,0-.18.72-.72,1.03,0,0-.25.08-.49.03,0,0,.13.21.42.15,0,0-.31.55-.87.36,0,0-.48-.19-.73-.61,0,0-.3-.06-.24.24,0,0,.16.54.91.61,0,0-.48.42-1.08.28,0,0-.33-.1-.54-.43,0,0,.02.3.15.45,0,0-.43.07-.84-.64,0,0-.1-.27,0-.54,0,0-.06-.3-.3-.08,0,0-.25.36.15,1.06,0,0-1.21-.22-1.03-1.12,0,0-.18.18-.18.45,0,0-.49-.51-.21-1.17,0,0,.21-.43.42-.48,0,0,.02-.28-.16-.24,0,0-.67.33-.7,1.08,0,0-.7-.99.03-1.72,0,0-.33.08-.42.25,0,0,.01-1,.69-1.06,0,0,.4-.01.52.18,0,0,.21-.16.03-.33,0,0-.48-.43-.99.02,0,0,.15-.87.9-1.02,0,0,.26.09.23.42,0,0-.07.44.18.72Z"/>
          <path class="cls-1" d="m33.82,38.61s-.24.63-.04,1.2c0,0,.22.94,1.33,1.29,0,0,1.11.19,1.75-.57,0,0,.76-.64.42-1.83l-.26.23s.11.68-.27,1.21c0,0-.45.69-1.2.67,0,0-.88.03-1.41-.88,0,0-.21-.6-.09-1.03l-.24-.28Z"/>
          <path class="cls-1" d="m35.21,40.03h.64s.11-.06.12-.18v-.26s.04-.23.43-.42c0,0,.53-.25.71-.49,0,0,.26-.19.3-.7,0,0,.16-.12.03-.16h-.63s.06.45-.43.54c0,0-.45-.01-.51-.34v-.48s.06,0,.1-.04c0,0,.06-.12-.03-.17h-.74s-.1.04-.08.09c0,0-.02.1.1.13v.49s-.07.32-.49.34c0,0-.4-.04-.39-.54h-.69s-.06.12.06.14c0,0,.06.65.68,1.02,0,0,.17.08.34.14,0,0,.37.09.39.46v.33s0,.06.08.11Z"/>
          <path class="cls-1" d="m33.54,37.13l.02-.52s-.32.24-.48.46c0,0,.36-.02.46.06Z"/>
          <path class="cls-1" d="m35.06,37.05s-.26-.4-.72-.7c0,0,.32-.22.64-.22,0,0,.16.4.08.92Z"/>
          <path class="cls-1" d="m36.71,37.67s-.28-.38-.66-.48l-.06-1.16s.8.32.72,1.64Z"/>
          <path class="cls-1" d="m36.81,36.63s.18-.3-.22-.42l.22.42Z"/>
          <path class="cls-1" d="m34.4,37.55s.32-.26.64-.28c0,0-.44-.38-.68-.48l.04.76Z"/>
          <path class="cls-1" d="m34.54,38.11s.28-.24.56-.34c0,0,.04-.14-.06-.26,0,0-.46.17-.57.36,0,0-.05.2.07.24Z"/>
          <path class="cls-1" d="m36.12,37.52s.36.16.51.38c0,0,.12.23-.15.24,0,0-.23-.26-.4-.33,0,0-.04-.2.04-.29Z"/>
          <path class="cls-1" d="m35.18,37.09h.72s.1-.06,0-.18v-.46s.15-.16,0-.26h-.7s-.14.16.03.25v.45s-.12.11-.06.2Z"/>
          <path class="cls-1" d="m33.66,37.61h.62v-.52h-.65s-.06.12.09.13v.26s-.11.08-.06.13Z"/>
          <path class="cls-1" d="m37.47,37.61h-.62v-.52h.65s.06.12-.09.13v.26s.11.08.06.13Z"/>
          <path class="cls-1" d="m36.94,36.9h.51s.05-.83.14-1.75c0,0,.14-.74-.08-1.25,0,0-.24-.64-.25-.88,0,0-.11.48-.25.76,0,0-.26.6-.15,1.35,0,0,.08,1.49.08,1.75Z"/>
          <path class="cls-1" d="m34.27,36.9h-.51s-.05-.83-.14-1.75c0,0-.14-.74.08-1.25,0,0,.24-.64.26-.88,0,0,.1.48.25.76,0,0,.26.6.14,1.35,0,0-.08,1.49-.08,1.75Z"/>
          <path class="cls-1" d="m35.24,36.01h.65s.19-2.15.21-2.45c0,0,.13-.89.02-1.4,0,0-.34-1.05-.54-1.54,0,0-.34.96-.5,1.54,0,0-.16.34.04,1.38,0,0,.18,2.2.13,2.46Z"/>
        </g>
        <path class="cls-1" d="m34.51,34.75s.44.13.62.12l.02.4s-.4.03-.67-.07l.03-.44Z"/>
        <path class="cls-1" d="m36.05,34.88l-.03.38s.61.02.77-.07c0,0-.06-.31-.03-.44,0,0-.36.18-.71.13Z"/>
        <path class="cls-1" d="m37.73,34.48s0,.33-.03.48c0,0,1.13-.41,1.64-.9l-.38-.28s-.57.52-1.23.7Z"/>
        <path class="cls-1" d="m32.11,33.87s.72.41,1.33.58l-.02.43s-1.1-.26-1.64-.78l.33-.23Z"/>
        <path class="cls-1" d="m33.05,23.73s2.83-.16,5.05,0c0,0-.8-.99-.59-1.48,0,0-.61.69-.92,1.34,0,0-.83-1.05-1-1.66,0,0-.4,1-.94,1.64,0,0-.16-.35-1.02-1.23,0,0,.07.84-.58,1.39Z"/>
        <path class="cls-1" d="m38.93,24.54c-.17-.54-.7-.57-.7-.57-1.95-.14-5.5,0-5.5,0-.52.17-.57.64-.57.64.12.44.79.54.79.54,2.01-.16,5.38,0,5.38,0,.68-.13.59-.62.59-.62Zm-6.08.3s-.28-.1-.28-.32c0,0,.03-.21.31-.31,0,0,.32-.02,1.07-.02,0,0-.39.31.05.66h-1.15Zm3.82-.02h-2.23c-.68-.34,0-.65,0-.65l2.23-.02c.73.35,0,.67,0,.67Zm1.65.02h-1.15c.45-.34.06-.65.06-.65.74,0,1.06.02,1.06.02.28.1.31.31.31.31,0,.22-.28.32-.28.32Z"/>
        <path class="cls-1" d="m39.29,26.65s-4.59-.71-7.3,0c0,0,.74-.93.77-1.5,0,0,.65.57.9,1.17,0,0,.85-.93.95-1.18,0,0,.73.92.98,1.14,0,0,.44-.31,1.06-1.15,0,0,.81,1,.96,1.24,0,0,.39-.8.78-1.15,0,0,.08.43.9,1.43Z"/>
        <path class="cls-1" d="m30.61,28.33s3.84-1.11,10.36,0c0,0-.91-.87-1.06-1.65,0,0-.61.69-.73,1.31,0,0-.7-1.19-.71-1.37,0,0-.88,1.18-.93,1.22,0,0-.91-1.2-1.02-1.43,0,0-.66,1.09-.98,1.37,0,0-.83-1.09-.93-1.37,0,0-.59,1.09-.73,1.38,0,0-.69-1.01-.96-1.27,0,0-.41,1.14-.64,1.42,0,0-.34-.76-.9-1.32,0,0,0,.79-.77,1.71Z"/>
        <path class="cls-1" d="m28.94,30.26s5.54-2.46,13.33,0c0,0-.88-1.33-.8-1.87,0,0-.72,1.01-.78,1.35,0,0-.62-1.21-.7-1.49,0,0-.59.89-.83,1.15,0,0-.55-.87-.71-1.36,0,0-.85,1.04-.9,1.17,0,0-.83-1.17-.93-1.32,0,0-.74.86-1.08,1.21,0,0-.59-1.01-.83-1.23,0,0-.61,1.05-.75,1.24,0,0-.65-.87-.93-1.12,0,0-.56,1.01-.78,1.32,0,0-.81-.96-.95-1.06,0,0-.49,1.14-.66,1.41,0,0-.33-.83-.86-1.27,0,0-.01.93-.82,1.88Z"/>
        <path class="cls-1" d="m29,30.57s5.22-2.62,13.16,0c0,0,.56,1.05-2.43,3.26l-.45-.24s1.1-.68,1.46-1.15c0,0-2.53-.84-4.75-.81l-.07-.22s.76,0,1.01-.52c0,0,.31.72,1.14.8,0,0,.81.1,1.35-.62,0,0,.07.67.83.99,0,0,.81.3,1.12-.4,0,0,.24-.53-.33-.9,0,0-.75-.43-1.64.21,0,0-.15-.77-1.2-.9,0,0-.91,0-1.26.67,0,0-.06-.36-.55-.64,0,0-.84-.34-1.58.03,0,0-.33.15-.49.52,0,0-.19-.37-.77-.5,0,0-.83-.15-1.41.34,0,0-.33.31-.43.56,0,0-.31-.36-.65-.49,0,0-.9-.21-1.42.34,0,0-.56.61.19,1.1,0,0,.5.24,1.45-.25,0,0,.41-.24.44-.58,0,0,.18.38.98.37,0,0,.8.06,1.3-.37,0,0,.24-.21.33-.34,0,0,.35.5.86.62l-.07.16s-2.71-.12-5,.8c0,0,1.04.98,1.63,1.26l-.47.27s-2.77-1.79-2.28-3.35Z"/>
        <path class="cls-1" d="m34.95,33.39s-.51.02-.75.04l-.13-.37s.5-.11.84-.06l.04.38Z"/>
        <path class="cls-1" d="m36.28,33.05l-.06.37s.49-.02.77.03l.14-.39s-.47-.06-.86-.01Z"/>
      </g>
    </g>
  </g>
</svg>