<svg width="624" height="1248" viewBox="0 0 624 1248" fill="none" xmlns="http://www.w3.org/2000/svg">
<path d="M157.425 1018.73C157.425 1018.73 122.808 1028.35 118.687 1078.9C118.687 1078.9 117.863 1129.72 159.898 1159.4C159.898 1159.4 189.021 1180.83 211.824 1178.35C211.824 1178.35 236.275 1183.3 257.705 1130.82C257.705 1130.82 269.794 1092.91 269.244 1060.77L276.387 1069.01C276.387 1069.01 274.464 1141.54 242.594 1172.58C242.594 1172.58 225.561 1203.9 176.108 1178.35C176.108 1178.35 115.94 1154.73 113.742 1080.55C113.742 1080.55 114.292 1025.32 158.799 1012.14C158.799 1012.14 159.623 1016.26 157.425 1018.73Z" fill="#1A4789"/>
<path d="M474.472 861.581C474.472 861.581 413.755 864.878 398.644 925.046C398.644 925.046 390.677 950.596 403.59 986.038C403.59 986.038 415.129 1022.58 404.414 1044.83C404.414 1044.83 439.306 1035.49 443.702 995.928C443.702 995.928 448.372 980.268 442.053 932.738C442.053 932.738 441.229 892.901 477.494 879.439L474.198 861.581H474.472Z" fill="#1A4789"/>
<path d="M579.423 904.164L567.334 886.306C567.334 886.306 586.291 868.997 582.17 842.073C582.17 842.073 579.423 822.292 562.939 822.841C562.939 822.841 539.036 824.764 548.927 854.436C548.927 854.436 514.035 849.491 511.837 812.401C511.837 812.401 512.661 790.697 526.124 783.279C526.124 783.279 541.234 771.74 553.048 779.433C553.048 779.433 546.179 753.058 579.698 720.364C579.698 720.364 601.127 693.989 623.656 689.318C623.656 689.318 611.567 696.187 605.523 714.32C605.523 714.32 600.852 725.309 604.149 753.057C604.149 753.057 607.446 780.257 591.511 793.169C591.511 793.169 593.709 797.29 603.05 784.927C603.05 784.927 609.095 775.037 617.337 777.509C617.337 777.509 606.897 778.883 610.468 803.61C610.468 803.61 619.535 832.182 609.644 860.206C609.644 860.206 598.38 885.756 579.698 904.164H579.423Z" fill="#1A4789"/>
<path d="M549.477 684.373C549.477 684.373 569.808 623.382 539.587 560.192C539.587 560.192 542.609 585.468 529.971 603.875C529.971 603.875 512.662 627.777 512.388 639.042C512.388 639.042 512.388 627.777 499.2 620.085C499.2 620.085 504.145 631.624 495.079 637.393C495.079 637.393 482.166 655.251 482.716 666.79C482.716 666.79 482.166 683 490.134 690.418C490.134 690.418 490.958 673.109 503.321 673.384C503.321 673.384 517.333 674.758 516.509 696.462C516.509 696.462 511.838 722.837 499.2 742.343C499.2 742.343 497.002 724.485 483.54 710.474C483.54 710.474 466.232 698.11 451.396 705.528C451.396 705.528 451.396 666.515 460.462 637.118C460.462 637.118 470.627 605.249 495.629 603.601C495.629 603.601 507.992 605.798 511.838 617.612C511.838 617.612 511.838 610.469 520.08 595.908C520.08 595.908 542.059 561.016 508.816 478.045C508.816 478.045 511.563 506.618 501.673 525.575C501.673 525.575 490.134 548.378 495.903 559.093C495.903 559.093 500.024 570.357 489.584 576.401C489.584 576.401 491.507 566.511 482.991 554.972C482.991 554.972 485.463 565.687 481.342 568.709C481.342 568.709 464.034 586.841 460.737 598.105C460.737 598.105 436.01 566.236 362.93 557.719L366.501 569.258C366.501 569.258 396.173 571.731 416.779 587.94C416.779 587.94 424.197 600.304 420.075 612.392C420.075 612.392 437.934 620.359 440.406 640.965C440.406 640.965 441.78 670.362 441.78 694.264C441.78 694.264 444.252 739.596 426.944 758.278C426.944 758.278 423.372 762.399 417.878 764.048C417.878 764.048 410.46 766.52 412.932 772.29C412.932 772.29 414.855 781.081 423.647 777.51C423.647 777.51 437.934 770.916 447.275 744.541C447.275 744.541 452.769 728.057 451.945 715.694C451.945 715.694 467.331 706.078 479.144 723.386C479.144 723.386 489.035 741.244 485.738 761.85C485.738 761.85 481.067 793.17 477.496 811.852C477.496 811.852 468.155 848.942 477.496 884.383C477.496 884.383 484.364 917.352 516.509 924.495C516.509 924.495 529.421 928.891 540.96 922.847C540.96 922.847 540.686 914.879 533.268 908.56C533.268 908.56 495.629 916.253 489.31 875.591C489.31 875.591 476.672 826.963 506.343 772.839C506.343 772.839 538.763 721.463 549.752 685.473L549.477 684.373ZM447 623.381C447 623.381 442.329 610.744 432.164 603.601C432.164 603.601 433.263 594.259 430.241 588.49C430.241 588.49 445.351 595.358 454.143 607.172C454.143 607.172 447 617.887 447 623.656V623.381Z" fill="#1A4789"/>
<path d="M40.3865 901.966L55.4971 884.382C55.4971 884.382 37.3644 868.997 41.4855 842.073C41.4855 842.073 44.2329 822.292 60.7172 822.841C60.7172 822.841 84.6194 824.764 74.7288 854.436C74.7288 854.436 109.621 849.491 111.818 812.401C111.818 812.401 110.994 790.697 97.5322 783.279C97.5322 783.279 82.4215 771.74 70.6077 779.433C70.6077 779.433 77.4763 753.058 43.9582 720.364C43.9582 720.364 22.5286 693.989 0 689.318C0 689.318 12.0885 696.187 18.1327 714.32C18.1327 714.32 22.8033 725.309 19.5064 753.057C19.5064 753.057 16.2096 780.257 32.1444 793.169C32.1444 793.169 29.9465 797.29 20.6054 784.927C20.6054 784.927 14.5611 775.037 6.31897 777.509C6.31897 777.509 16.759 778.883 13.1874 803.61C13.1874 803.61 4.12108 832.182 14.0117 860.206C14.0117 860.206 21.4296 883.283 40.1118 901.966H40.3865Z" fill="#1A4789"/>
<path d="M117.588 771.741C147.259 825.864 134.621 874.493 134.621 874.493C128.302 915.429 91.7621 908.56 91.7621 908.56C84.3441 914.879 82.9704 922.023 82.9704 922.023C94.5095 928.342 107.422 923.671 107.422 923.671C139.567 916.528 146.435 883.559 146.435 883.559C156.051 848.118 146.435 811.028 146.435 811.028C142.863 792.346 138.193 761.026 138.193 761.026C134.896 740.421 144.787 722.562 144.787 722.562C156.875 705.254 171.986 714.87 171.986 714.87C171.162 727.233 176.656 743.717 176.656 743.717C185.723 770.092 200.009 776.686 200.009 776.686C208.801 779.983 210.724 771.466 210.724 771.466C213.197 765.696 205.779 763.224 205.779 763.224C200.284 761.576 196.712 757.454 196.712 757.454C179.404 738.772 181.876 693.44 181.876 693.44C181.876 669.538 183.25 640.141 183.25 640.141C185.723 619.535 203.581 611.568 203.581 611.568C199.46 599.755 206.878 587.117 206.878 587.117C227.483 570.907 259.078 568.434 259.078 568.434L262.924 556.895C189.844 565.687 163.194 597.282 163.194 597.282C159.897 586.017 142.589 567.885 142.589 567.885C138.468 565.138 140.94 554.148 140.94 554.148C132.423 565.687 134.347 575.578 134.347 575.578C123.907 569.259 128.028 558.269 128.028 558.269C133.797 547.554 122.258 524.751 122.258 524.751C112.367 505.794 115.115 477.221 115.115 477.221C82.1463 560.192 103.851 595.084 103.851 595.084C111.818 609.645 112.093 616.788 112.093 616.788C115.939 604.7 128.302 602.776 128.302 602.776C153.029 604.425 163.469 636.295 163.469 636.295C172.81 665.692 172.535 704.705 172.535 704.705C157.699 697.287 140.391 709.65 140.391 709.65C126.929 723.661 124.731 741.519 124.731 741.519C112.093 722.013 107.422 695.638 107.422 695.638C106.598 673.659 120.61 672.56 120.61 672.56C132.973 672.285 133.797 689.594 133.797 689.594C141.49 682.176 141.215 665.966 141.215 665.966C141.49 654.427 128.852 636.57 128.852 636.57C119.785 630.8 124.731 619.261 124.731 619.261C111.543 627.228 111.543 638.218 111.543 638.218C110.994 626.954 93.96 603.051 93.96 603.051C81.5968 584.369 84.3441 559.368 84.3441 559.368C54.1229 622.558 74.4536 683.55 74.4536 683.55C85.1684 719.54 117.862 770.917 117.862 770.917L117.588 771.741ZM169.513 606.898C178.305 595.084 193.415 588.215 193.415 588.215C190.393 593.985 191.492 603.326 191.492 603.326C181.327 610.469 176.656 623.107 176.656 623.107C176.656 617.612 169.513 606.623 169.513 606.623V606.898Z" fill="#1A4789"/>
<path d="M324.74 11.539C324.74 17.8579 319.52 23.0781 313.201 23.0781C306.882 23.0781 301.662 17.8579 301.662 11.539C301.662 5.21998 306.882 0 313.201 0C319.52 0 324.74 5.21998 324.74 11.539Z" fill="#1A4789"/>
<path d="M313.202 28.0229C313.202 28.0229 326.939 99.4549 330.51 124.181C330.51 124.181 318.422 134.896 312.652 141.49C312.652 141.49 301.113 128.852 293.42 125.555C293.42 125.555 300.014 88.7404 313.202 28.298V28.0229Z" fill="#1A4789"/>
<path d="M122.807 1055.54C122.807 1055.54 158.249 1056.09 171.436 1019C171.436 1019 177.206 1000.05 163.194 982.738C163.194 982.738 148.908 968.177 130.225 973.397C130.225 973.397 142.863 951.968 164.842 956.363C164.842 956.363 190.943 960.759 198.91 994.002C198.91 994.002 204.68 1028.34 186.272 1048.13C186.272 1048.13 161.271 1084.39 118.137 1078.07L123.082 1055.27L122.807 1055.54Z" fill="#1A4789"/>
<path d="M480.242 891.527C480.242 891.527 458.538 901.143 458.263 935.485C458.263 935.485 460.186 955.266 461.835 969.827C461.835 969.827 465.956 1001.15 453.043 1020.93C453.043 1020.93 440.955 1040.98 417.602 1053.35C417.602 1053.35 394.799 1064.34 381.337 1067.36C381.337 1067.36 386.282 1056.1 389.579 1045.93C389.579 1045.93 397.271 1026.15 388.754 995.928C388.754 995.928 385.458 983.839 382.161 968.179C382.161 968.179 371.446 933.287 391.227 898.67C391.227 898.67 414.305 852.24 472.824 849.492V856.086C472.824 856.086 431.888 856.086 400.568 895.373C400.568 895.373 384.084 921.748 386.556 950.321C386.556 950.321 390.952 975.597 394.524 992.631C394.524 992.631 404.964 1038.51 391.502 1056.64C391.502 1056.64 420.349 1052.25 444.252 1021.48C444.252 1021.48 459.087 1001.42 455.516 972.3C455.516 972.3 450.845 946.2 451.67 929.716C451.67 929.716 455.791 896.198 478.869 885.757L479.693 891.802L480.242 891.527Z" fill="#1A4789"/>
<path d="M125.555 1048.95C125.555 1048.95 152.754 1047.3 162.919 1019.28C162.919 1019.28 170.886 994.553 150.281 982.739C150.281 982.739 133.797 976.145 121.159 981.091C121.159 981.091 123.357 952.243 156.051 948.397C156.051 948.397 192.316 948.122 204.679 984.387C204.679 984.387 214.02 1010.49 200.833 1040.16C200.833 1040.16 176.931 1089.34 117.862 1084.39L118.411 1089.89C118.411 1089.89 165.117 1097.31 195.888 1058.57C195.888 1058.57 225.01 1028.62 209.35 979.717C209.35 979.717 192.316 940.979 154.952 944.276C154.952 944.276 114.84 944.55 114.29 990.432C114.29 990.432 138.193 978.893 150.556 992.08C150.556 992.08 167.04 1006.64 151.38 1028.9C151.38 1028.9 136.819 1044.01 126.928 1043.73L125.005 1049.23L125.555 1048.95Z" fill="#1A4789"/>
<path d="M98.3559 1036.86C98.3559 1036.86 71.1568 1020.1 66.4863 975.596C66.4863 975.596 62.0905 929.44 111.269 900.867C111.269 900.867 158.798 876.965 200.009 903.34C200.009 903.34 235.45 923.396 255.781 964.332C255.781 964.332 265.122 979.168 269.243 1016.81L276.936 1024.23C276.936 1024.23 276.112 978.344 246.715 940.43C246.715 940.43 217.592 893.999 166.491 885.208C166.491 885.208 131.325 879.713 102.202 897.571C102.202 897.571 67.3105 916.802 60.442 961.859C60.442 961.859 52.7493 1008.02 95.3338 1042.91L98.0811 1037.14L98.3559 1036.86Z" fill="#1A4789"/>
<path d="M159.348 1008.84C159.348 1008.84 120.884 1013.78 110.169 1063.79C110.169 1063.79 101.927 1100.05 124.181 1138.79C124.181 1138.79 148.083 1182.47 197.262 1194.56C197.262 1194.56 226.109 1200.88 241.494 1184.12C241.494 1184.12 270.891 1163.52 280.233 1106.65C280.233 1106.65 285.178 1084.39 284.079 1076.15C284.079 1076.15 312.102 1113.24 318.421 1129.45C318.421 1129.45 314.85 1168.19 284.079 1211.05C284.079 1211.05 257.979 1248.96 217.317 1235.5C217.317 1235.5 161.271 1221.76 117.038 1157.2C117.038 1157.2 92.3115 1119.83 96.4326 1080.82C96.4326 1080.82 95.0588 1042.91 125.28 1016.53C125.28 1016.53 144.512 1000.6 158.249 1000.05L159.622 1009.11L159.348 1008.84Z" fill="#1A4789"/>
<path d="M211.823 988.784C211.823 988.784 245.341 992.905 281.057 1025.6C281.057 1025.6 321.993 1063.24 344.247 1087.96C344.247 1087.96 381.886 1130.82 391.777 1140.44C391.777 1140.44 405.514 1154.73 412.382 1154.73C412.382 1154.73 418.976 1158.85 459.362 1120.11C459.362 1120.11 497.551 1084.67 520.904 1032.19C520.904 1032.19 544.531 988.51 545.356 950.87C545.356 950.87 547.004 912.407 524.75 898.945C524.75 898.945 509.64 887.406 492.606 887.406L490.133 883.285C490.133 883.285 504.969 878.614 530.52 897.296C530.52 897.296 551.125 915.154 550.576 946.749C550.576 946.749 552.499 983.015 523.102 1041.26C523.102 1041.26 498.375 1088.24 474.748 1113.24C474.748 1113.24 431.064 1163.79 412.382 1162.69C412.382 1162.69 406.887 1163.24 395.898 1155.55C395.898 1155.55 390.953 1150.06 351.665 1103.9C351.665 1103.9 323.916 1069.56 299.465 1047.03C299.465 1047.03 259.353 1012.14 247.264 1007.47C247.264 1007.47 222.263 992.356 211.274 993.73V988.509L211.823 988.784Z" fill="#1A4789"/>
<path d="M486.562 861.03C486.562 861.03 526.948 859.656 551.675 890.152C551.675 890.152 576.401 915.153 576.676 962.408C576.676 962.408 577.226 1003.62 558.543 1049.23C558.543 1049.23 538.488 1100.88 514.036 1130C514.036 1130 475.572 1180.28 453.319 1198.96C453.319 1198.96 425.845 1223.41 413.207 1228.36C413.207 1228.36 399.195 1237.15 379.414 1215.17C379.414 1215.17 369.798 1206.1 357.435 1175.88C357.435 1175.88 332.983 1126.98 305.784 1086.32C305.784 1086.32 260.452 1026.7 212.648 1015.43L214.296 1000.32C214.296 1000.32 248.364 1005.27 287.926 1044.83C287.926 1044.83 319.246 1072.03 343.973 1105.55C343.973 1105.55 370.073 1139.89 380.513 1152.25C380.513 1152.25 395.623 1170.66 408.261 1171.21C408.261 1171.21 424.746 1175.88 455.791 1145.11C455.791 1145.11 495.903 1109.12 519.805 1064.89C519.805 1064.89 545.905 1025.87 554.972 976.145C554.972 976.145 566.236 936.034 545.631 905.263C545.631 905.263 532.443 880.536 488.485 876.69L486.287 861.03H486.562Z" fill="#1A4789"/>
<path d="M484.638 848.942C484.638 848.942 519.53 847.019 551.4 872.844C551.4 872.844 577.775 894.549 583.819 922.023C583.819 922.023 595.633 949.222 587.94 997.301C587.94 997.301 580.247 1052.25 548.652 1101.98C548.652 1101.98 519.256 1151.43 500.299 1172.86C500.299 1172.86 472.55 1205.55 445.351 1226.43C445.351 1226.43 421.174 1248.41 405.788 1246.49C405.788 1246.49 378.864 1249.51 354.962 1207.48C354.962 1207.48 338.203 1173.41 328.862 1153.63C328.862 1153.63 306.883 1109.67 280.508 1076.43C280.508 1076.43 257.43 1042.08 211.274 1026.15V1020.65C211.274 1020.65 245.066 1029.45 276.936 1062.96C307.432 1097.31 304.135 1099.78 320.894 1126.15C320.894 1126.15 338.203 1156.1 345.895 1174.78C345.895 1174.78 355.511 1193.46 362.38 1205.28C362.38 1205.28 375.293 1228.36 391.227 1235.5C391.227 1235.5 404.415 1244.57 423.097 1234.13C423.097 1234.13 450.296 1218.19 489.034 1175.61C489.034 1175.61 515.959 1145.93 546.729 1092.64C546.729 1092.64 567.884 1055.27 578.599 1006.64C578.599 1006.64 592.885 960.211 575.302 916.528C575.302 916.528 563.488 886.307 539.037 870.372C539.037 870.372 511.838 853.613 484.364 854.162V848.393L484.638 848.942Z" fill="#1A4789"/>
<path d="M155.777 994.828C155.777 994.828 118.138 1003.89 101.653 1038.24C101.653 1038.24 82.6965 1070.93 95.0598 1119.56C95.0598 1119.56 108.797 1163.79 142.864 1196.76C142.864 1196.76 186.822 1240.99 238.473 1243.74C238.473 1243.74 265.672 1242.09 283.53 1221.76C283.53 1221.76 307.982 1197.04 323.917 1143.74L327.488 1148.68C327.488 1148.68 317.323 1185.22 287.926 1222.59C287.926 1222.59 270.618 1248.69 236.55 1247.59C236.55 1247.59 209.626 1249.79 171.437 1223.41C171.437 1223.41 122.808 1196.49 99.4556 1140.44C99.4556 1140.44 83.2459 1110.22 86.8175 1077.25C86.8175 1077.25 89.5649 1032.74 120.336 1009.11C120.336 1009.11 135.721 995.102 154.678 991.256L156.052 994.553L155.777 994.828Z" fill="#1A4789"/>
<path d="M285.728 1030.82C285.728 1030.82 288.2 983.838 247.264 927.791C247.264 927.791 226.659 898.394 186.272 883.283C186.272 883.283 152.205 871.195 120.61 880.811C120.61 880.811 87.0917 887.679 63.7389 925.593C63.7389 925.593 45.8809 957.738 54.6726 993.728C54.6726 993.728 62.3653 1028.89 93.136 1048.13L88.1907 1068.46C88.1907 1068.46 51.9252 1054.17 39.0125 1010.76C39.0125 1010.76 21.7039 964.881 41.7598 922.296C41.7598 922.296 70.3326 863.502 131.05 860.205C131.05 860.205 169.238 847.567 228.307 889.602C228.307 889.602 267.595 915.703 292.047 958.562C292.047 958.562 329.136 1023.13 323.916 1067.63L285.453 1030.82H285.728Z" fill="#1A4789"/>
<path d="M88.7409 1073.95C88.7409 1073.95 46.9807 1061.59 30.2217 1003.89C30.2217 1003.89 15.6605 966.256 32.969 923.122C32.969 923.122 51.926 872.845 102.753 859.108C102.753 859.108 155.502 841.25 198.087 864.053C198.087 864.053 244.518 885.208 281.882 930.54C281.882 930.54 306.883 958.838 326.939 1016.26C326.939 1016.26 337.379 1055.27 335.181 1082.2L341.226 1088.51C341.226 1088.51 348.369 1016.81 295.07 941.804C295.07 941.804 261.826 882.461 186.548 854.712C186.548 854.712 146.985 837.404 94.2357 854.712C94.2357 854.712 31.0459 874.493 18.6827 948.398C18.6827 948.398 9.06681 995.378 38.4638 1039.89C38.4638 1039.89 59.6187 1074.78 87.3672 1079.72L88.1915 1074.23L88.7409 1073.95Z" fill="#1A4789"/>
<path d="M312.379 159.348C312.379 159.348 313.478 149.457 331.336 139.567C331.336 139.567 339.852 135.446 343.149 129.127C343.149 129.127 348.095 155.227 334.083 168.14C334.083 168.14 320.621 182.426 312.928 197.812L312.379 159.348Z" fill="#1A4789"/>
<path d="M312.653 159.348C312.653 159.348 311.828 149.457 293.97 139.567C293.97 139.567 285.453 135.446 282.157 129.127C282.157 129.127 277.211 155.227 291.223 168.14C291.223 168.14 305.235 182.426 313.202 197.812V159.348H312.653Z" fill="#1A4789"/>
<path d="M267.045 197.262H301.662C301.662 197.262 293.969 179.678 275.562 165.117C275.562 165.117 281.057 182.7 266.77 197.262H267.045Z" fill="#1A4789"/>
<path d="M359.082 197.262H324.465C324.465 197.262 332.158 179.678 350.566 165.117C350.566 165.117 345.071 182.7 359.357 197.262H359.082Z" fill="#1A4789"/>
<path opacity="0.99" d="M366.5 206.604H258.528C250.836 206.604 244.517 212.923 244.517 220.616C244.517 228.309 250.836 234.627 258.528 234.627H366.5C374.193 234.627 380.512 228.309 380.512 220.616C380.512 212.923 374.193 206.604 366.5 206.604ZM260.451 226.935C260.451 226.935 245.89 220.067 261.001 212.099L281.332 212.648C281.332 212.648 274.188 221.99 282.98 226.935H260.451ZM327.762 227.209H297.816C293.695 227.209 290.123 223.913 290.123 219.517C290.123 215.121 293.42 211.824 297.816 211.824H327.762C331.883 211.824 335.455 215.121 335.455 219.517C335.455 223.913 332.158 227.209 327.762 227.209ZM364.852 226.935H342.324C350.84 221.99 343.972 212.648 343.972 212.648L364.303 212.099C379.413 220.067 364.852 226.935 364.852 226.935Z" fill="#1A4789"/>
<path d="M257.155 239.846H304.41C304.41 239.846 286.552 261.276 279.134 274.463C279.134 274.463 276.936 264.847 272.54 259.078C272.54 259.078 258.253 242.868 257.155 239.846Z" fill="#1A4789"/>
<path d="M364.853 240.946L317.598 239.298C317.598 239.298 334.632 261.277 341.775 274.739C341.775 274.739 344.248 265.123 348.918 259.629C348.918 259.629 363.754 244.243 365.128 240.946H364.853Z" fill="#1A4789"/>
<path d="M296.99 822.293H323.09C323.09 822.293 325.288 826.689 321.442 827.788V837.953C321.442 837.953 319.519 841.525 317.595 841.525H301.386C301.386 841.525 298.639 839.876 298.913 837.129V826.963C298.913 826.963 294.792 826.139 296.99 822.293Z" fill="#1A4789"/>
<path d="M301.937 844.822H317.597L318.146 848.943C318.146 848.943 323.366 851.965 320.344 860.208C320.344 860.208 311.552 879.989 310.179 881.637C310.179 881.637 300.838 864.603 298.365 855.262C298.365 855.262 298.365 851.141 301.387 848.669L301.937 844.822Z" fill="#1A4789"/>
<path d="M321.443 754.982H299.739V768.993H321.443V754.982Z" fill="#1A4789"/>
<path d="M261.55 703.331C261.55 703.331 252.209 716.244 256.055 743.443C256.055 743.443 259.352 768.444 288.199 782.456C288.199 782.456 322.542 797.566 348.642 773.115C348.642 773.115 381.885 745.366 362.104 705.803C362.104 705.803 373.643 690.693 367.049 661.296C367.049 661.296 374.742 668.989 374.742 683.55C374.742 683.55 379.138 676.956 377.489 668.439C377.489 668.439 387.929 675.582 387.38 691.242C387.38 691.242 386.83 700.584 371.72 712.947C371.72 712.947 368.698 724.486 376.665 720.914C376.665 720.914 395.347 707.177 395.073 693.44C395.073 693.44 408.535 711.298 401.666 724.76C401.666 724.76 395.347 737.673 391.226 740.146C391.226 740.146 399.194 740.695 401.941 732.178C401.941 732.178 407.436 755.531 378.039 759.378C378.039 759.378 368.972 761.575 365.126 759.927C365.126 759.927 359.631 765.422 364.577 767.07C364.577 767.07 379.687 774.214 396.721 762.4C396.721 762.4 391.776 782.455 376.665 791.247C376.665 791.247 369.522 793.445 362.928 792.071C362.928 792.071 366.775 797.841 374.467 796.193C374.467 796.193 365.676 811.578 350.29 806.083C350.29 806.083 336.828 800.589 329.96 789.05C329.96 789.05 321.717 787.401 323.366 795.643C323.366 795.643 328.036 810.753 348.917 812.677C348.917 812.677 335.729 824.216 318.97 820.644C318.97 820.644 309.904 817.622 303.859 808.556C303.859 808.556 304.409 816.798 307.981 821.194C307.981 821.194 295.892 823.392 284.628 803.336C284.628 803.336 281.606 795.918 284.628 788.225C284.628 788.225 282.979 779.983 276.386 786.027C276.386 786.027 269.242 795.918 280.507 815.699C280.507 815.699 246.714 809.38 251.659 784.379C251.659 784.379 246.714 789.324 246.714 797.017C246.714 797.017 232.977 782.73 240.944 764.597C240.944 764.597 246.714 752.509 252.758 751.135C252.758 751.135 253.033 743.168 248.088 744.542C248.088 744.542 229.405 753.608 228.581 774.488C228.581 774.488 209.075 747.014 229.405 726.684C229.405 726.684 220.339 728.882 217.592 733.827C217.592 733.827 217.866 705.803 236.823 704.155C236.823 704.155 248.088 703.881 251.384 709.101C251.384 709.101 257.154 704.43 252.209 700.034C252.209 700.034 238.746 687.945 224.735 700.309C224.735 700.309 228.856 676.132 249.736 672.011C249.736 672.011 256.879 674.484 256.055 683.825C256.055 683.825 254.132 696.188 261 703.88L261.55 703.331Z" fill="#1A4789"/>
<path d="M263.198 711.298C263.198 711.298 256.604 728.881 262.099 744.541C262.099 744.541 268.418 770.916 299.189 780.257C299.189 780.257 329.959 785.752 348.092 764.322C348.092 764.322 369.247 746.465 359.631 713.496L352.488 719.815C352.488 719.815 355.51 738.772 345.07 753.608C345.07 753.608 332.707 772.84 311.827 772.29C311.827 772.29 287.375 773.114 272.539 747.563C272.539 747.563 266.769 730.804 270.066 718.716L263.473 710.749L263.198 711.298Z" fill="#1A4789"/>
<path d="M301.937 750.861H319.795C319.795 750.861 322.817 748.939 323.092 745.642V738.498C323.092 738.498 324.191 732.179 334.905 726.685C334.905 726.685 349.741 719.816 354.687 712.948C354.687 712.948 361.83 707.728 362.929 693.441C362.929 693.441 367.599 690.144 363.753 688.771H346.17C346.17 688.771 347.818 701.134 334.081 703.881C334.081 703.881 321.443 703.332 319.795 694.265V680.803C319.795 680.803 321.443 681.078 322.817 679.704C322.817 679.704 324.465 676.407 321.993 675.034H301.387C301.387 675.034 298.64 676.133 299.189 677.506C299.189 677.506 298.64 680.254 301.937 681.078V694.815C301.937 694.815 300.014 703.606 288.2 704.156C288.2 704.156 277.21 703.057 277.485 689.045H258.253C258.253 689.045 256.605 692.342 259.902 692.892C259.902 692.892 261.55 711.025 278.859 721.19C278.859 721.19 283.529 723.388 288.2 725.036C288.2 725.036 298.64 727.509 298.915 737.949V747.015C298.915 747.015 298.915 748.664 301.387 750.312L301.937 750.861Z" fill="#1A4789"/>
<path d="M255.506 670.088L256.055 655.527C256.055 655.527 247.263 662.12 242.593 668.165C242.593 668.165 252.483 667.615 255.506 669.813V670.088Z" fill="#1A4789"/>
<path d="M297.541 667.889C297.541 667.889 290.397 656.9 277.485 648.383C277.485 648.383 286.276 642.338 295.343 642.338C295.343 642.338 299.738 653.328 297.541 667.889Z" fill="#1A4789"/>
<path d="M343.697 685.198C343.697 685.198 336.004 674.758 325.289 671.736L323.641 639.592C323.641 639.592 345.895 648.383 343.697 685.198Z" fill="#1A4789"/>
<path d="M346.442 656.076C346.442 656.076 351.388 647.834 340.398 644.537L346.442 656.076Z" fill="#1A4789"/>
<path d="M279.408 681.627C279.408 681.627 288.2 674.484 297.266 673.935C297.266 673.935 285.178 663.494 278.309 660.472L279.408 681.627Z" fill="#1A4789"/>
<path d="M283.254 697.287C283.254 697.287 290.947 690.693 298.914 687.946C298.914 687.946 300.013 684.1 297.265 680.803C297.265 680.803 284.353 685.473 281.331 690.693C281.331 690.693 279.957 696.188 283.254 697.287Z" fill="#1A4789"/>
<path d="M327.212 680.803C327.212 680.803 337.103 685.198 341.499 691.243C341.499 691.243 344.796 697.562 337.378 697.836C337.378 697.836 331.059 690.693 326.388 688.77C326.388 688.77 325.289 683.275 327.487 680.803H327.212Z" fill="#1A4789"/>
<path d="M301.112 668.989H321.168C321.168 668.989 323.915 667.341 321.168 664.044V651.406C321.168 651.406 325.289 647.01 321.168 644.263H301.661C301.661 644.263 297.815 648.659 302.486 651.131V663.769C302.486 663.769 299.189 666.791 300.837 669.264L301.112 668.989Z" fill="#1A4789"/>
<path d="M258.804 683.55H276.112V668.989H257.98C257.98 668.989 256.331 672.286 260.452 672.561V679.704C260.452 679.704 257.43 681.902 258.804 683.276V683.55Z" fill="#1A4789"/>
<path d="M364.852 683.55H347.544V668.989H365.676C365.676 668.989 367.325 672.286 363.204 672.561V679.704C363.204 679.704 366.226 681.902 364.852 683.276V683.55Z" fill="#1A4789"/>
<path d="M350.289 663.769H364.575C364.575 663.769 366.224 640.691 368.697 615.14C368.697 615.14 372.543 594.535 366.224 580.523C366.224 580.523 359.63 562.665 359.081 556.071C359.081 556.071 356.059 569.534 351.937 577.226C351.937 577.226 344.519 593.985 347.816 614.865C347.816 614.865 350.014 656.351 350.014 663.769H350.289Z" fill="#1A4789"/>
<path d="M275.836 663.769H261.55C261.55 663.769 259.902 640.691 257.429 615.14C257.429 615.14 253.583 594.535 259.902 580.523C259.902 580.523 266.495 562.665 267.045 556.071C267.045 556.071 270.067 569.534 274.188 577.226C274.188 577.226 281.606 593.985 278.309 614.865C278.309 614.865 276.111 656.351 276.111 663.769H275.836Z" fill="#1A4789"/>
<path d="M302.76 639.043H320.893C320.893 639.043 326.113 579.15 326.663 570.633C326.663 570.633 330.509 545.906 327.212 531.62C327.212 531.62 317.596 502.223 312.102 488.761C312.102 488.761 302.761 515.41 298.09 531.62C298.09 531.62 293.694 540.961 299.189 570.084C299.189 570.084 304.409 631.625 302.76 638.768V639.043Z" fill="#1A4789"/>
<path d="M282.43 603.602C282.43 603.602 294.794 607.173 299.739 606.898V618.163C299.739 618.163 289.024 618.987 281.606 615.965L282.43 603.602Z" fill="#1A4789"/>
<path d="M325.29 607.448L324.465 618.163C324.465 618.163 341.224 618.437 345.895 615.965C345.895 615.965 344.247 607.173 345.071 603.602C345.071 603.602 335.18 608.547 325.29 607.448Z" fill="#1A4789"/>
<path d="M371.996 596.183C371.996 596.183 371.996 605.524 371.172 609.37C371.172 609.37 402.767 597.831 417.053 584.369L406.613 576.676C406.613 576.676 390.953 591.238 372.271 596.183H371.996Z" fill="#1A4789"/>
<path d="M215.67 579.149C215.67 579.149 235.726 590.688 252.76 595.359L252.21 607.447C252.21 607.447 221.714 600.304 206.329 585.743L215.67 579.149Z" fill="#1A4789"/>
<path d="M241.77 296.719C241.77 296.719 320.62 292.323 382.436 296.719C382.436 296.719 360.182 269.245 365.952 255.508C365.952 255.508 348.918 274.74 340.401 292.872C340.401 292.872 317.323 263.476 312.652 246.442C312.652 246.442 301.388 274.19 286.278 292.323C286.278 292.323 281.882 282.433 257.705 257.981C257.705 257.981 259.628 281.608 241.495 296.719H241.77Z" fill="#1A4789"/>
<path d="M405.513 319.522C400.843 304.411 386.007 303.862 386.007 303.862C331.609 299.741 232.977 303.862 232.977 303.862C218.416 308.532 217.317 321.72 217.317 321.72C220.614 334.083 239.297 336.83 239.297 336.83C295.343 332.435 389.304 336.83 389.304 336.83C408.261 332.984 405.788 319.522 405.788 319.522H405.513ZM236 327.764C236 327.764 228.307 325.017 228.307 318.973C228.307 318.973 229.131 313.203 237.099 310.455C237.099 310.455 246.165 309.631 266.77 309.631C266.77 309.631 256.056 318.148 268.419 328.039H236.274L236 327.764ZM342.323 326.94H280.233C261.276 317.599 280.233 308.807 280.233 308.807L342.323 308.258C362.654 317.874 342.323 326.94 342.323 326.94ZM388.48 327.764H356.335C368.698 318.148 357.984 309.631 357.984 309.631C378.589 309.631 387.655 310.455 387.655 310.455C395.348 313.203 396.172 318.973 396.172 318.973C396.172 325.017 388.48 327.764 388.48 327.764Z" fill="#1A4789"/>
<path d="M415.405 378.04C415.405 378.04 287.651 358.259 212.098 378.04C212.098 378.04 232.703 351.94 233.528 336.28C233.528 336.28 251.661 351.94 258.804 368.699C258.804 368.699 282.706 342.599 285.453 336.006C285.453 336.006 305.784 361.556 312.652 367.875C312.652 367.875 325.016 359.084 342.324 335.731C342.324 335.731 364.853 363.479 368.974 370.348C368.974 370.348 379.689 348.094 390.678 338.204C390.678 338.204 392.876 350.017 415.679 378.04H415.405Z" fill="#1A4789"/>
<path d="M173.909 424.747C173.909 424.747 280.783 393.701 462.385 424.747C462.385 424.747 437.109 400.57 432.988 378.591C432.988 378.591 415.954 397.822 412.657 415.131C412.657 415.131 393.151 382.162 392.876 377.217C392.876 377.217 368.424 409.911 366.776 411.285C366.776 411.285 341.5 377.766 338.203 371.447C338.203 371.447 320.07 401.669 311.004 409.361C311.004 409.361 287.926 379.14 284.904 371.447C284.904 371.447 268.419 401.669 264.573 409.911C264.573 409.911 245.341 381.888 237.923 374.744C237.923 374.744 226.384 406.614 220.065 414.306C220.065 414.306 210.45 393.152 195.064 377.492C195.064 377.492 195.064 399.471 173.635 425.022L173.909 424.747Z" fill="#1A4789"/>
<path d="M127.203 478.594C127.203 478.594 281.606 409.909 498.649 478.594C498.649 478.594 474.197 441.504 476.395 426.668C476.395 426.668 456.065 454.691 454.416 464.307C454.416 464.307 437.108 430.514 434.91 422.547C434.91 422.547 418.426 447.273 411.832 454.691C411.832 454.691 396.447 430.24 392.051 416.777C392.051 416.777 368.423 445.625 366.775 449.471C366.775 449.471 343.697 417.052 340.675 412.656C340.675 412.656 320.069 436.559 310.453 446.449C310.453 446.449 293.969 418.426 287.375 412.107C287.375 412.107 270.342 441.504 266.221 446.724C266.221 446.724 248.088 422.547 240.12 415.404C240.12 415.404 224.46 443.427 218.141 452.219C218.141 452.219 195.338 425.294 191.766 422.547C191.766 422.547 178.304 454.142 173.084 461.835C173.084 461.835 164.018 438.756 149.182 426.393C149.182 426.393 148.907 452.493 126.379 478.868L127.203 478.594Z" fill="#1A4789"/>
<path d="M128.853 487.387C128.853 487.387 274.464 414.306 495.354 487.387C495.354 487.387 511.014 516.784 427.768 578.051L415.405 571.457C415.405 571.457 445.901 552.5 456.341 539.312C456.341 539.312 385.733 515.685 323.917 516.509L321.994 510.19C321.994 510.19 342.874 510.19 350.017 495.629C350.017 495.629 358.809 515.96 381.887 517.883C381.887 517.883 404.69 520.631 419.526 500.575C419.526 500.575 421.724 519.257 442.604 528.323C442.604 528.323 465.407 536.565 473.924 517.059C473.924 517.059 480.518 502.223 464.858 491.783C464.858 491.783 443.703 479.695 418.976 497.553C418.976 497.553 414.855 476.123 385.458 472.276C385.458 472.276 359.908 472.276 350.292 490.959C350.292 490.959 348.643 481.068 334.907 473.101C334.907 473.101 311.279 463.485 290.674 473.925C290.674 473.925 281.607 478.046 276.937 488.486C276.937 488.486 271.442 478.321 255.507 474.474C255.507 474.474 232.429 470.353 216.494 484.09C216.494 484.09 207.428 492.607 204.406 499.75C204.406 499.75 195.614 489.86 186.273 486.288C186.273 486.288 160.997 480.518 146.711 495.904C146.711 495.904 131.051 512.938 152.205 526.4C152.205 526.4 166.217 532.994 192.592 519.257C192.592 519.257 204.131 512.663 204.955 503.047C204.955 503.047 209.9 513.762 232.154 513.212C232.154 513.212 254.408 514.861 268.42 503.047C268.42 503.047 275.014 497.278 277.486 493.431C277.486 493.431 287.377 507.443 301.388 510.74L299.465 515.41C299.465 515.41 223.912 512.113 160.173 537.664C160.173 537.664 189.02 564.863 205.505 572.831L192.317 580.249C192.317 580.249 115.116 530.246 128.853 487.112V487.387Z" fill="#1A4789"/>
<path d="M294.795 565.961C294.795 565.961 280.509 566.511 273.641 567.335L269.794 557.17C269.794 557.17 283.806 554.148 293.422 555.522L294.795 565.961Z" fill="#1A4789"/>
<path d="M331.884 556.345L330.235 566.511C330.235 566.511 343.972 565.961 351.665 567.335L355.786 556.62C355.786 556.62 342.873 554.972 331.884 556.345Z" fill="#1A4789"/>
</svg>
